<?xml version="1.0" encoding="utf-8" standalone="no"?>
<!DOCTYPE svg PUBLIC "-//W3C//DTD SVG 1.1//EN"
  "http://www.w3.org/Graphics/SVG/1.1/DTD/svg11.dtd">
<svg xmlns:xlink="http://www.w3.org/1999/xlink" width="523.016328pt" height="233.930109pt" viewBox="0 0 523.016328 233.930109" xmlns="http://www.w3.org/2000/svg" version="1.1">
 <metadata>
  <rdf:RDF xmlns:dc="http://purl.org/dc/elements/1.1/" xmlns:cc="http://creativecommons.org/ns#" xmlns:rdf="http://www.w3.org/1999/02/22-rdf-syntax-ns#">
   <cc:Work>
    <dc:type rdf:resource="http://purl.org/dc/dcmitype/StillImage"/>
    <dc:date>2026-04-12T04:27:52.398449</dc:date>
    <dc:format>image/svg+xml</dc:format>
    <dc:creator>
     <cc:Agent>
      <dc:title>Matplotlib v3.10.8, https://matplotlib.org/</dc:title>
     </cc:Agent>
    </dc:creator>
   </cc:Work>
  </rdf:RDF>
 </metadata>
 <defs>
  <style type="text/css">*{stroke-linejoin: round; stroke-linecap: butt}</style>
 </defs>
 <g id="figure_1">
  <g id="patch_1">
   <path d="M 0 233.930109 
L 523.016328 233.930109 
L 523.016328 0 
L 0 0 
z
" style="fill: #ffffff"/>
  </g>
  <g id="axes_1">
   <g id="patch_2">
    <path d="M 69.416328 226.730109 
L 515.816328 226.730109 
L 515.816328 60.410109 
L 69.416328 60.410109 
z
" style="fill: #ffffff"/>
   </g>
   <g id="patch_3">
    <path d="M 69.416328 205.346109 
L 509.346763 205.346109 
Q 512.581546 205.346109 512.581546 206.534109 
L 512.581546 227.918109 
Q 512.581546 229.106109 509.346763 229.106109 
L 69.416328 229.106109 
Q 66.181546 229.106109 66.181546 227.918109 
L 66.181546 206.534109 
Q 66.181546 205.346109 69.416328 205.346109 
z
" clip-path="url(#p8c52bf6459)" style="fill: #f0fdfa; stroke: #0d9488; stroke-width: 1.2; stroke-linejoin: miter"/>
   </g>
   <g id="line2d_1">
    <path d="M 69.416328 86.546109 
L 515.816328 86.546109 
" clip-path="url(#p8c52bf6459)" style="fill: none; stroke: #e5e7eb; stroke-width: 0.5; stroke-linecap: square"/>
   </g>
   <g id="line2d_2">
    <path d="M 69.416328 110.306109 
L 515.816328 110.306109 
" clip-path="url(#p8c52bf6459)" style="fill: none; stroke: #e5e7eb; stroke-width: 0.5; stroke-linecap: square"/>
   </g>
   <g id="line2d_3">
    <path d="M 69.416328 134.066109 
L 515.816328 134.066109 
" clip-path="url(#p8c52bf6459)" style="fill: none; stroke: #e5e7eb; stroke-width: 0.5; stroke-linecap: square"/>
   </g>
   <g id="line2d_4">
    <path d="M 69.416328 157.826109 
L 515.816328 157.826109 
" clip-path="url(#p8c52bf6459)" style="fill: none; stroke: #e5e7eb; stroke-width: 0.5; stroke-linecap: square"/>
   </g>
   <g id="line2d_5">
    <path d="M 69.416328 181.586109 
L 515.816328 181.586109 
" clip-path="url(#p8c52bf6459)" style="fill: none; stroke: #e5e7eb; stroke-width: 0.5; stroke-linecap: square"/>
   </g>
   <g id="line2d_6">
    <path d="M 69.416328 205.346109 
L 515.816328 205.346109 
" clip-path="url(#p8c52bf6459)" style="fill: none; stroke: #e5e7eb; stroke-width: 0.5; stroke-linecap: square"/>
   </g>
   <g id="matplotlib.axis_1">
    <g id="xtick_1">
     <g id="line2d_7"/>
     <g id="text_1">
      <!-- Runtime -->
      <g transform="translate(81.925482 44.296484) scale(0.095 -0.095)">
       <defs>
        <path id="DejaVuSans-52" d="M 2841 2188 
Q 3044 2119 3236 1894 
Q 3428 1669 3622 1275 
L 4263 0 
L 3584 0 
L 2988 1197 
Q 2756 1666 2539 1819 
Q 2322 1972 1947 1972 
L 1259 1972 
L 1259 0 
L 628 0 
L 628 4666 
L 2053 4666 
Q 2853 4666 3247 4331 
Q 3641 3997 3641 3322 
Q 3641 2881 3436 2590 
Q 3231 2300 2841 2188 
z
M 1259 4147 
L 1259 2491 
L 2053 2491 
Q 2509 2491 2742 2702 
Q 2975 2913 2975 3322 
Q 2975 3731 2742 3939 
Q 2509 4147 2053 4147 
L 1259 4147 
z
" transform="scale(0.015625)"/>
        <path id="DejaVuSans-75" d="M 544 1381 
L 544 3500 
L 1119 3500 
L 1119 1403 
Q 1119 906 1312 657 
Q 1506 409 1894 409 
Q 2359 409 2629 706 
Q 2900 1003 2900 1516 
L 2900 3500 
L 3475 3500 
L 3475 0 
L 2900 0 
L 2900 538 
Q 2691 219 2414 64 
Q 2138 -91 1772 -91 
Q 1169 -91 856 284 
Q 544 659 544 1381 
z
M 1991 3584 
L 1991 3584 
z
" transform="scale(0.015625)"/>
        <path id="DejaVuSans-6e" d="M 3513 2113 
L 3513 0 
L 2938 0 
L 2938 2094 
Q 2938 2591 2744 2837 
Q 2550 3084 2163 3084 
Q 1697 3084 1428 2787 
Q 1159 2491 1159 1978 
L 1159 0 
L 581 0 
L 581 3500 
L 1159 3500 
L 1159 2956 
Q 1366 3272 1645 3428 
Q 1925 3584 2291 3584 
Q 2894 3584 3203 3211 
Q 3513 2838 3513 2113 
z
" transform="scale(0.015625)"/>
        <path id="DejaVuSans-74" d="M 1172 4494 
L 1172 3500 
L 2356 3500 
L 2356 3053 
L 1172 3053 
L 1172 1153 
Q 1172 725 1289 603 
Q 1406 481 1766 481 
L 2356 481 
L 2356 0 
L 1766 0 
Q 1100 0 847 248 
Q 594 497 594 1153 
L 594 3053 
L 172 3053 
L 172 3500 
L 594 3500 
L 594 4494 
L 1172 4494 
z
" transform="scale(0.015625)"/>
        <path id="DejaVuSans-69" d="M 603 3500 
L 1178 3500 
L 1178 0 
L 603 0 
L 603 3500 
z
M 603 4863 
L 1178 4863 
L 1178 4134 
L 603 4134 
L 603 4863 
z
" transform="scale(0.015625)"/>
        <path id="DejaVuSans-6d" d="M 3328 2828 
Q 3544 3216 3844 3400 
Q 4144 3584 4550 3584 
Q 5097 3584 5394 3201 
Q 5691 2819 5691 2113 
L 5691 0 
L 5113 0 
L 5113 2094 
Q 5113 2597 4934 2840 
Q 4756 3084 4391 3084 
Q 3944 3084 3684 2787 
Q 3425 2491 3425 1978 
L 3425 0 
L 2847 0 
L 2847 2094 
Q 2847 2600 2669 2842 
Q 2491 3084 2119 3084 
Q 1678 3084 1418 2786 
Q 1159 2488 1159 1978 
L 1159 0 
L 581 0 
L 581 3500 
L 1159 3500 
L 1159 2956 
Q 1356 3278 1631 3431 
Q 1906 3584 2284 3584 
Q 2666 3584 2933 3390 
Q 3200 3197 3328 2828 
z
" transform="scale(0.015625)"/>
        <path id="DejaVuSans-65" d="M 3597 1894 
L 3597 1613 
L 953 1613 
Q 991 1019 1311 708 
Q 1631 397 2203 397 
Q 2534 397 2845 478 
Q 3156 559 3463 722 
L 3463 178 
Q 3153 47 2828 -22 
Q 2503 -91 2169 -91 
Q 1331 -91 842 396 
Q 353 884 353 1716 
Q 353 2575 817 3079 
Q 1281 3584 2069 3584 
Q 2775 3584 3186 3129 
Q 3597 2675 3597 1894 
z
M 3022 2063 
Q 3016 2534 2758 2815 
Q 2500 3097 2075 3097 
Q 1594 3097 1305 2825 
Q 1016 2553 972 2059 
L 3022 2063 
z
" transform="scale(0.015625)"/>
       </defs>
       <use xlink:href="#DejaVuSans-52"/>
       <use xlink:href="#DejaVuSans-75" transform="translate(64.982422 0)"/>
       <use xlink:href="#DejaVuSans-6e" transform="translate(128.361328 0)"/>
       <use xlink:href="#DejaVuSans-74" transform="translate(191.740234 0)"/>
       <use xlink:href="#DejaVuSans-69" transform="translate(230.949219 0)"/>
       <use xlink:href="#DejaVuSans-6d" transform="translate(258.732422 0)"/>
       <use xlink:href="#DejaVuSans-65" transform="translate(356.144531 0)"/>
      </g>
      <!-- Select -->
      <g transform="translate(87.109662 54.934406) scale(0.095 -0.095)">
       <defs>
        <path id="DejaVuSans-53" d="M 3425 4513 
L 3425 3897 
Q 3066 4069 2747 4153 
Q 2428 4238 2131 4238 
Q 1616 4238 1336 4038 
Q 1056 3838 1056 3469 
Q 1056 3159 1242 3001 
Q 1428 2844 1947 2747 
L 2328 2669 
Q 3034 2534 3370 2195 
Q 3706 1856 3706 1288 
Q 3706 609 3251 259 
Q 2797 -91 1919 -91 
Q 1588 -91 1214 -16 
Q 841 59 441 206 
L 441 856 
Q 825 641 1194 531 
Q 1563 422 1919 422 
Q 2459 422 2753 634 
Q 3047 847 3047 1241 
Q 3047 1584 2836 1778 
Q 2625 1972 2144 2069 
L 1759 2144 
Q 1053 2284 737 2584 
Q 422 2884 422 3419 
Q 422 4038 858 4394 
Q 1294 4750 2059 4750 
Q 2388 4750 2728 4690 
Q 3069 4631 3425 4513 
z
" transform="scale(0.015625)"/>
        <path id="DejaVuSans-6c" d="M 603 4863 
L 1178 4863 
L 1178 0 
L 603 0 
L 603 4863 
z
" transform="scale(0.015625)"/>
        <path id="DejaVuSans-63" d="M 3122 3366 
L 3122 2828 
Q 2878 2963 2633 3030 
Q 2388 3097 2138 3097 
Q 1578 3097 1268 2742 
Q 959 2388 959 1747 
Q 959 1106 1268 751 
Q 1578 397 2138 397 
Q 2388 397 2633 464 
Q 2878 531 3122 666 
L 3122 134 
Q 2881 22 2623 -34 
Q 2366 -91 2075 -91 
Q 1284 -91 818 406 
Q 353 903 353 1747 
Q 353 2603 823 3093 
Q 1294 3584 2113 3584 
Q 2378 3584 2631 3529 
Q 2884 3475 3122 3366 
z
" transform="scale(0.015625)"/>
       </defs>
       <use xlink:href="#DejaVuSans-53"/>
       <use xlink:href="#DejaVuSans-65" transform="translate(63.476562 0)"/>
       <use xlink:href="#DejaVuSans-6c" transform="translate(125 0)"/>
       <use xlink:href="#DejaVuSans-65" transform="translate(152.783203 0)"/>
       <use xlink:href="#DejaVuSans-63" transform="translate(214.306641 0)"/>
       <use xlink:href="#DejaVuSans-74" transform="translate(269.287109 0)"/>
      </g>
     </g>
    </g>
    <g id="xtick_2">
     <g id="line2d_8"/>
     <g id="text_2">
      <!-- Cross- -->
      <g transform="translate(151.728127 44.296484) scale(0.095 -0.095)">
       <defs>
        <path id="DejaVuSans-43" d="M 4122 4306 
L 4122 3641 
Q 3803 3938 3442 4084 
Q 3081 4231 2675 4231 
Q 1875 4231 1450 3742 
Q 1025 3253 1025 2328 
Q 1025 1406 1450 917 
Q 1875 428 2675 428 
Q 3081 428 3442 575 
Q 3803 722 4122 1019 
L 4122 359 
Q 3791 134 3420 21 
Q 3050 -91 2638 -91 
Q 1578 -91 968 557 
Q 359 1206 359 2328 
Q 359 3453 968 4101 
Q 1578 4750 2638 4750 
Q 3056 4750 3426 4639 
Q 3797 4528 4122 4306 
z
" transform="scale(0.015625)"/>
        <path id="DejaVuSans-72" d="M 2631 2963 
Q 2534 3019 2420 3045 
Q 2306 3072 2169 3072 
Q 1681 3072 1420 2755 
Q 1159 2438 1159 1844 
L 1159 0 
L 581 0 
L 581 3500 
L 1159 3500 
L 1159 2956 
Q 1341 3275 1631 3429 
Q 1922 3584 2338 3584 
Q 2397 3584 2469 3576 
Q 2541 3569 2628 3553 
L 2631 2963 
z
" transform="scale(0.015625)"/>
        <path id="DejaVuSans-6f" d="M 1959 3097 
Q 1497 3097 1228 2736 
Q 959 2375 959 1747 
Q 959 1119 1226 758 
Q 1494 397 1959 397 
Q 2419 397 2687 759 
Q 2956 1122 2956 1747 
Q 2956 2369 2687 2733 
Q 2419 3097 1959 3097 
z
M 1959 3584 
Q 2709 3584 3137 3096 
Q 3566 2609 3566 1747 
Q 3566 888 3137 398 
Q 2709 -91 1959 -91 
Q 1206 -91 779 398 
Q 353 888 353 1747 
Q 353 2609 779 3096 
Q 1206 3584 1959 3584 
z
" transform="scale(0.015625)"/>
        <path id="DejaVuSans-73" d="M 2834 3397 
L 2834 2853 
Q 2591 2978 2328 3040 
Q 2066 3103 1784 3103 
Q 1356 3103 1142 2972 
Q 928 2841 928 2578 
Q 928 2378 1081 2264 
Q 1234 2150 1697 2047 
L 1894 2003 
Q 2506 1872 2764 1633 
Q 3022 1394 3022 966 
Q 3022 478 2636 193 
Q 2250 -91 1575 -91 
Q 1294 -91 989 -36 
Q 684 19 347 128 
L 347 722 
Q 666 556 975 473 
Q 1284 391 1588 391 
Q 1994 391 2212 530 
Q 2431 669 2431 922 
Q 2431 1156 2273 1281 
Q 2116 1406 1581 1522 
L 1381 1569 
Q 847 1681 609 1914 
Q 372 2147 372 2553 
Q 372 3047 722 3315 
Q 1072 3584 1716 3584 
Q 2034 3584 2315 3537 
Q 2597 3491 2834 3397 
z
" transform="scale(0.015625)"/>
        <path id="DejaVuSans-2d" d="M 313 2009 
L 1997 2009 
L 1997 1497 
L 313 1497 
L 313 2009 
z
" transform="scale(0.015625)"/>
       </defs>
       <use xlink:href="#DejaVuSans-43"/>
       <use xlink:href="#DejaVuSans-72" transform="translate(69.824219 0)"/>
       <use xlink:href="#DejaVuSans-6f" transform="translate(108.6875 0)"/>
       <use xlink:href="#DejaVuSans-73" transform="translate(169.869141 0)"/>
       <use xlink:href="#DejaVuSans-73" transform="translate(221.96875 0)"/>
       <use xlink:href="#DejaVuSans-2d" transform="translate(274.068359 0)"/>
      </g>
      <!-- Vendor -->
      <g transform="translate(149.770978 54.934406) scale(0.095 -0.095)">
       <defs>
        <path id="DejaVuSans-56" d="M 1831 0 
L 50 4666 
L 709 4666 
L 2188 738 
L 3669 4666 
L 4325 4666 
L 2547 0 
L 1831 0 
z
" transform="scale(0.015625)"/>
        <path id="DejaVuSans-64" d="M 2906 2969 
L 2906 4863 
L 3481 4863 
L 3481 0 
L 2906 0 
L 2906 525 
Q 2725 213 2448 61 
Q 2172 -91 1784 -91 
Q 1150 -91 751 415 
Q 353 922 353 1747 
Q 353 2572 751 3078 
Q 1150 3584 1784 3584 
Q 2172 3584 2448 3432 
Q 2725 3281 2906 2969 
z
M 947 1747 
Q 947 1113 1208 752 
Q 1469 391 1925 391 
Q 2381 391 2643 752 
Q 2906 1113 2906 1747 
Q 2906 2381 2643 2742 
Q 2381 3103 1925 3103 
Q 1469 3103 1208 2742 
Q 947 2381 947 1747 
z
" transform="scale(0.015625)"/>
       </defs>
       <use xlink:href="#DejaVuSans-56"/>
       <use xlink:href="#DejaVuSans-65" transform="translate(60.658203 0)"/>
       <use xlink:href="#DejaVuSans-6e" transform="translate(122.181641 0)"/>
       <use xlink:href="#DejaVuSans-64" transform="translate(185.560547 0)"/>
       <use xlink:href="#DejaVuSans-6f" transform="translate(249.037109 0)"/>
       <use xlink:href="#DejaVuSans-72" transform="translate(310.21875 0)"/>
      </g>
     </g>
    </g>
    <g id="xtick_3">
     <g id="line2d_9"/>
     <g id="text_3">
      <!-- MLIR- -->
      <g transform="translate(218.18499 44.296484) scale(0.095 -0.095)">
       <defs>
        <path id="DejaVuSans-4d" d="M 628 4666 
L 1569 4666 
L 2759 1491 
L 3956 4666 
L 4897 4666 
L 4897 0 
L 4281 0 
L 4281 4097 
L 3078 897 
L 2444 897 
L 1241 4097 
L 1241 0 
L 628 0 
L 628 4666 
z
" transform="scale(0.015625)"/>
        <path id="DejaVuSans-4c" d="M 628 4666 
L 1259 4666 
L 1259 531 
L 3531 531 
L 3531 0 
L 628 0 
L 628 4666 
z
" transform="scale(0.015625)"/>
        <path id="DejaVuSans-49" d="M 628 4666 
L 1259 4666 
L 1259 0 
L 628 0 
L 628 4666 
z
" transform="scale(0.015625)"/>
       </defs>
       <use xlink:href="#DejaVuSans-4d"/>
       <use xlink:href="#DejaVuSans-4c" transform="translate(86.279297 0)"/>
       <use xlink:href="#DejaVuSans-49" transform="translate(141.992188 0)"/>
       <use xlink:href="#DejaVuSans-52" transform="translate(171.484375 0)"/>
       <use xlink:href="#DejaVuSans-2d" transform="translate(236.966797 0)"/>
      </g>
      <!-- Native -->
      <g transform="translate(215.775107 54.934406) scale(0.095 -0.095)">
       <defs>
        <path id="DejaVuSans-4e" d="M 628 4666 
L 1478 4666 
L 3547 763 
L 3547 4666 
L 4159 4666 
L 4159 0 
L 3309 0 
L 1241 3903 
L 1241 0 
L 628 0 
L 628 4666 
z
" transform="scale(0.015625)"/>
        <path id="DejaVuSans-61" d="M 2194 1759 
Q 1497 1759 1228 1600 
Q 959 1441 959 1056 
Q 959 750 1161 570 
Q 1363 391 1709 391 
Q 2188 391 2477 730 
Q 2766 1069 2766 1631 
L 2766 1759 
L 2194 1759 
z
M 3341 1997 
L 3341 0 
L 2766 0 
L 2766 531 
Q 2569 213 2275 61 
Q 1981 -91 1556 -91 
Q 1019 -91 701 211 
Q 384 513 384 1019 
Q 384 1609 779 1909 
Q 1175 2209 1959 2209 
L 2766 2209 
L 2766 2266 
Q 2766 2663 2505 2880 
Q 2244 3097 1772 3097 
Q 1472 3097 1187 3025 
Q 903 2953 641 2809 
L 641 3341 
Q 956 3463 1253 3523 
Q 1550 3584 1831 3584 
Q 2591 3584 2966 3190 
Q 3341 2797 3341 1997 
z
" transform="scale(0.015625)"/>
        <path id="DejaVuSans-76" d="M 191 3500 
L 800 3500 
L 1894 563 
L 2988 3500 
L 3597 3500 
L 2284 0 
L 1503 0 
L 191 3500 
z
" transform="scale(0.015625)"/>
       </defs>
       <use xlink:href="#DejaVuSans-4e"/>
       <use xlink:href="#DejaVuSans-61" transform="translate(74.804688 0)"/>
       <use xlink:href="#DejaVuSans-74" transform="translate(136.083984 0)"/>
       <use xlink:href="#DejaVuSans-69" transform="translate(175.292969 0)"/>
       <use xlink:href="#DejaVuSans-76" transform="translate(203.076172 0)"/>
       <use xlink:href="#DejaVuSans-65" transform="translate(262.255859 0)"/>
      </g>
     </g>
    </g>
    <g id="xtick_4">
     <g id="line2d_10"/>
     <g id="text_4">
      <!-- Ranked -->
      <g transform="translate(278.219704 54.934406) scale(0.095 -0.095)">
       <defs>
        <path id="DejaVuSans-6b" d="M 581 4863 
L 1159 4863 
L 1159 1991 
L 2875 3500 
L 3609 3500 
L 1753 1863 
L 3688 0 
L 2938 0 
L 1159 1709 
L 1159 0 
L 581 0 
L 581 4863 
z
" transform="scale(0.015625)"/>
       </defs>
       <use xlink:href="#DejaVuSans-52"/>
       <use xlink:href="#DejaVuSans-61" transform="translate(67.232422 0)"/>
       <use xlink:href="#DejaVuSans-6e" transform="translate(128.511719 0)"/>
       <use xlink:href="#DejaVuSans-6b" transform="translate(191.890625 0)"/>
       <use xlink:href="#DejaVuSans-65" transform="translate(246.175781 0)"/>
       <use xlink:href="#DejaVuSans-64" transform="translate(307.699219 0)"/>
      </g>
     </g>
    </g>
    <g id="xtick_5">
     <g id="line2d_11"/>
     <g id="text_5">
      <!-- Light- -->
      <g transform="translate(346.978833 44.296484) scale(0.095 -0.095)">
       <defs>
        <path id="DejaVuSans-67" d="M 2906 1791 
Q 2906 2416 2648 2759 
Q 2391 3103 1925 3103 
Q 1463 3103 1205 2759 
Q 947 2416 947 1791 
Q 947 1169 1205 825 
Q 1463 481 1925 481 
Q 2391 481 2648 825 
Q 2906 1169 2906 1791 
z
M 3481 434 
Q 3481 -459 3084 -895 
Q 2688 -1331 1869 -1331 
Q 1566 -1331 1297 -1286 
Q 1028 -1241 775 -1147 
L 775 -588 
Q 1028 -725 1275 -790 
Q 1522 -856 1778 -856 
Q 2344 -856 2625 -561 
Q 2906 -266 2906 331 
L 2906 616 
Q 2728 306 2450 153 
Q 2172 0 1784 0 
Q 1141 0 747 490 
Q 353 981 353 1791 
Q 353 2603 747 3093 
Q 1141 3584 1784 3584 
Q 2172 3584 2450 3431 
Q 2728 3278 2906 2969 
L 2906 3500 
L 3481 3500 
L 3481 434 
z
" transform="scale(0.015625)"/>
        <path id="DejaVuSans-68" d="M 3513 2113 
L 3513 0 
L 2938 0 
L 2938 2094 
Q 2938 2591 2744 2837 
Q 2550 3084 2163 3084 
Q 1697 3084 1428 2787 
Q 1159 2491 1159 1978 
L 1159 0 
L 581 0 
L 581 4863 
L 1159 4863 
L 1159 2956 
Q 1366 3272 1645 3428 
Q 1925 3584 2291 3584 
Q 2894 3584 3203 3211 
Q 3513 2838 3513 2113 
z
" transform="scale(0.015625)"/>
       </defs>
       <use xlink:href="#DejaVuSans-4c"/>
       <use xlink:href="#DejaVuSans-69" transform="translate(55.712891 0)"/>
       <use xlink:href="#DejaVuSans-67" transform="translate(83.496094 0)"/>
       <use xlink:href="#DejaVuSans-68" transform="translate(146.972656 0)"/>
       <use xlink:href="#DejaVuSans-74" transform="translate(210.351562 0)"/>
       <use xlink:href="#DejaVuSans-2d" transform="translate(249.560547 0)"/>
      </g>
      <!-- weight -->
      <g transform="translate(344.531841 54.934406) scale(0.095 -0.095)">
       <defs>
        <path id="DejaVuSans-77" d="M 269 3500 
L 844 3500 
L 1563 769 
L 2278 3500 
L 2956 3500 
L 3675 769 
L 4391 3500 
L 4966 3500 
L 4050 0 
L 3372 0 
L 2619 2869 
L 1863 0 
L 1184 0 
L 269 3500 
z
" transform="scale(0.015625)"/>
       </defs>
       <use xlink:href="#DejaVuSans-77"/>
       <use xlink:href="#DejaVuSans-65" transform="translate(81.787109 0)"/>
       <use xlink:href="#DejaVuSans-69" transform="translate(143.310547 0)"/>
       <use xlink:href="#DejaVuSans-67" transform="translate(171.09375 0)"/>
       <use xlink:href="#DejaVuSans-68" transform="translate(234.570312 0)"/>
       <use xlink:href="#DejaVuSans-74" transform="translate(297.949219 0)"/>
      </g>
     </g>
    </g>
    <g id="xtick_6">
     <g id="line2d_12"/>
     <g id="text_6">
      <!-- LOC -->
      <g transform="translate(460.998942 54.934406) scale(0.095 -0.095)">
       <defs>
        <path id="DejaVuSans-4f" d="M 2522 4238 
Q 1834 4238 1429 3725 
Q 1025 3213 1025 2328 
Q 1025 1447 1429 934 
Q 1834 422 2522 422 
Q 3209 422 3611 934 
Q 4013 1447 4013 2328 
Q 4013 3213 3611 3725 
Q 3209 4238 2522 4238 
z
M 2522 4750 
Q 3503 4750 4090 4092 
Q 4678 3434 4678 2328 
Q 4678 1225 4090 567 
Q 3503 -91 2522 -91 
Q 1538 -91 948 565 
Q 359 1222 359 2328 
Q 359 3434 948 4092 
Q 1538 4750 2522 4750 
z
" transform="scale(0.015625)"/>
       </defs>
       <use xlink:href="#DejaVuSans-4c"/>
       <use xlink:href="#DejaVuSans-4f" transform="translate(52.087891 0)"/>
       <use xlink:href="#DejaVuSans-43" transform="translate(130.798828 0)"/>
      </g>
     </g>
    </g>
   </g>
   <g id="matplotlib.axis_2">
    <g id="ytick_1">
     <g id="line2d_13"/>
     <g id="text_7">
      <!-- IREE HAL -->
      <g transform="translate(17.987109 78.655289) scale(0.105 -0.105)">
       <defs>
        <path id="DejaVuSans-45" d="M 628 4666 
L 3578 4666 
L 3578 4134 
L 1259 4134 
L 1259 2753 
L 3481 2753 
L 3481 2222 
L 1259 2222 
L 1259 531 
L 3634 531 
L 3634 0 
L 628 0 
L 628 4666 
z
" transform="scale(0.015625)"/>
        <path id="DejaVuSans-20" transform="scale(0.015625)"/>
        <path id="DejaVuSans-48" d="M 628 4666 
L 1259 4666 
L 1259 2753 
L 3553 2753 
L 3553 4666 
L 4184 4666 
L 4184 0 
L 3553 0 
L 3553 2222 
L 1259 2222 
L 1259 0 
L 628 0 
L 628 4666 
z
" transform="scale(0.015625)"/>
        <path id="DejaVuSans-41" d="M 2188 4044 
L 1331 1722 
L 3047 1722 
L 2188 4044 
z
M 1831 4666 
L 2547 4666 
L 4325 0 
L 3669 0 
L 3244 1197 
L 1141 1197 
L 716 0 
L 50 0 
L 1831 4666 
z
" transform="scale(0.015625)"/>
       </defs>
       <use xlink:href="#DejaVuSans-49"/>
       <use xlink:href="#DejaVuSans-52" transform="translate(29.492188 0)"/>
       <use xlink:href="#DejaVuSans-45" transform="translate(98.974609 0)"/>
       <use xlink:href="#DejaVuSans-45" transform="translate(162.158203 0)"/>
       <use xlink:href="#DejaVuSans-20" transform="translate(225.341797 0)"/>
       <use xlink:href="#DejaVuSans-48" transform="translate(257.128906 0)"/>
       <use xlink:href="#DejaVuSans-41" transform="translate(332.324219 0)"/>
       <use xlink:href="#DejaVuSans-4c" transform="translate(400.732422 0)"/>
      </g>
     </g>
    </g>
    <g id="ytick_2">
     <g id="line2d_14"/>
     <g id="text_8">
      <!-- chipStar -->
      <g transform="translate(22.3725 102.415289) scale(0.105 -0.105)">
       <defs>
        <path id="DejaVuSans-70" d="M 1159 525 
L 1159 -1331 
L 581 -1331 
L 581 3500 
L 1159 3500 
L 1159 2969 
Q 1341 3281 1617 3432 
Q 1894 3584 2278 3584 
Q 2916 3584 3314 3078 
Q 3713 2572 3713 1747 
Q 3713 922 3314 415 
Q 2916 -91 2278 -91 
Q 1894 -91 1617 61 
Q 1341 213 1159 525 
z
M 3116 1747 
Q 3116 2381 2855 2742 
Q 2594 3103 2138 3103 
Q 1681 3103 1420 2742 
Q 1159 2381 1159 1747 
Q 1159 1113 1420 752 
Q 1681 391 2138 391 
Q 2594 391 2855 752 
Q 3116 1113 3116 1747 
z
" transform="scale(0.015625)"/>
       </defs>
       <use xlink:href="#DejaVuSans-63"/>
       <use xlink:href="#DejaVuSans-68" transform="translate(54.980469 0)"/>
       <use xlink:href="#DejaVuSans-69" transform="translate(118.359375 0)"/>
       <use xlink:href="#DejaVuSans-70" transform="translate(146.142578 0)"/>
       <use xlink:href="#DejaVuSans-53" transform="translate(209.619141 0)"/>
       <use xlink:href="#DejaVuSans-74" transform="translate(273.095703 0)"/>
       <use xlink:href="#DejaVuSans-61" transform="translate(312.304688 0)"/>
       <use xlink:href="#DejaVuSans-72" transform="translate(373.583984 0)"/>
      </g>
     </g>
    </g>
    <g id="ytick_3">
     <g id="line2d_15"/>
     <g id="text_9">
      <!-- Proteus -->
      <g transform="translate(26.562656 126.175289) scale(0.105 -0.105)">
       <defs>
        <path id="DejaVuSans-50" d="M 1259 4147 
L 1259 2394 
L 2053 2394 
Q 2494 2394 2734 2622 
Q 2975 2850 2975 3272 
Q 2975 3691 2734 3919 
Q 2494 4147 2053 4147 
L 1259 4147 
z
M 628 4666 
L 2053 4666 
Q 2838 4666 3239 4311 
Q 3641 3956 3641 3272 
Q 3641 2581 3239 2228 
Q 2838 1875 2053 1875 
L 1259 1875 
L 1259 0 
L 628 0 
L 628 4666 
z
" transform="scale(0.015625)"/>
       </defs>
       <use xlink:href="#DejaVuSans-50"/>
       <use xlink:href="#DejaVuSans-72" transform="translate(58.552734 0)"/>
       <use xlink:href="#DejaVuSans-6f" transform="translate(97.416016 0)"/>
       <use xlink:href="#DejaVuSans-74" transform="translate(158.597656 0)"/>
       <use xlink:href="#DejaVuSans-65" transform="translate(197.806641 0)"/>
       <use xlink:href="#DejaVuSans-75" transform="translate(259.330078 0)"/>
       <use xlink:href="#DejaVuSans-73" transform="translate(322.708984 0)"/>
      </g>
     </g>
    </g>
    <g id="ytick_4">
     <g id="line2d_16"/>
     <g id="text_10">
      <!-- HetGPU -->
      <g transform="translate(25.291172 149.935289) scale(0.105 -0.105)">
       <defs>
        <path id="DejaVuSans-47" d="M 3809 666 
L 3809 1919 
L 2778 1919 
L 2778 2438 
L 4434 2438 
L 4434 434 
Q 4069 175 3628 42 
Q 3188 -91 2688 -91 
Q 1594 -91 976 548 
Q 359 1188 359 2328 
Q 359 3472 976 4111 
Q 1594 4750 2688 4750 
Q 3144 4750 3555 4637 
Q 3966 4525 4313 4306 
L 4313 3634 
Q 3963 3931 3569 4081 
Q 3175 4231 2741 4231 
Q 1884 4231 1454 3753 
Q 1025 3275 1025 2328 
Q 1025 1384 1454 906 
Q 1884 428 2741 428 
Q 3075 428 3337 486 
Q 3600 544 3809 666 
z
" transform="scale(0.015625)"/>
        <path id="DejaVuSans-55" d="M 556 4666 
L 1191 4666 
L 1191 1831 
Q 1191 1081 1462 751 
Q 1734 422 2344 422 
Q 2950 422 3222 751 
Q 3494 1081 3494 1831 
L 3494 4666 
L 4128 4666 
L 4128 1753 
Q 4128 841 3676 375 
Q 3225 -91 2344 -91 
Q 1459 -91 1007 375 
Q 556 841 556 1753 
L 556 4666 
z
" transform="scale(0.015625)"/>
       </defs>
       <use xlink:href="#DejaVuSans-48"/>
       <use xlink:href="#DejaVuSans-65" transform="translate(75.195312 0)"/>
       <use xlink:href="#DejaVuSans-74" transform="translate(136.71875 0)"/>
       <use xlink:href="#DejaVuSans-47" transform="translate(175.927734 0)"/>
       <use xlink:href="#DejaVuSans-50" transform="translate(253.417969 0)"/>
       <use xlink:href="#DejaVuSans-55" transform="translate(313.720703 0)"/>
      </g>
     </g>
    </g>
    <g id="ytick_5">
     <g id="line2d_17"/>
     <g id="text_11">
      <!-- liboffload -->
      <g transform="translate(17.156953 173.695289) scale(0.105 -0.105)">
       <defs>
        <path id="DejaVuSans-62" d="M 3116 1747 
Q 3116 2381 2855 2742 
Q 2594 3103 2138 3103 
Q 1681 3103 1420 2742 
Q 1159 2381 1159 1747 
Q 1159 1113 1420 752 
Q 1681 391 2138 391 
Q 2594 391 2855 752 
Q 3116 1113 3116 1747 
z
M 1159 2969 
Q 1341 3281 1617 3432 
Q 1894 3584 2278 3584 
Q 2916 3584 3314 3078 
Q 3713 2572 3713 1747 
Q 3713 922 3314 415 
Q 2916 -91 2278 -91 
Q 1894 -91 1617 61 
Q 1341 213 1159 525 
L 1159 0 
L 581 0 
L 581 4863 
L 1159 4863 
L 1159 2969 
z
" transform="scale(0.015625)"/>
        <path id="DejaVuSans-66" d="M 2375 4863 
L 2375 4384 
L 1825 4384 
Q 1516 4384 1395 4259 
Q 1275 4134 1275 3809 
L 1275 3500 
L 2222 3500 
L 2222 3053 
L 1275 3053 
L 1275 0 
L 697 0 
L 697 3053 
L 147 3053 
L 147 3500 
L 697 3500 
L 697 3744 
Q 697 4328 969 4595 
Q 1241 4863 1831 4863 
L 2375 4863 
z
" transform="scale(0.015625)"/>
       </defs>
       <use xlink:href="#DejaVuSans-6c"/>
       <use xlink:href="#DejaVuSans-69" transform="translate(27.783203 0)"/>
       <use xlink:href="#DejaVuSans-62" transform="translate(55.566406 0)"/>
       <use xlink:href="#DejaVuSans-6f" transform="translate(119.042969 0)"/>
       <use xlink:href="#DejaVuSans-66" transform="translate(180.224609 0)"/>
       <use xlink:href="#DejaVuSans-66" transform="translate(215.429688 0)"/>
       <use xlink:href="#DejaVuSans-6c" transform="translate(250.634766 0)"/>
       <use xlink:href="#DejaVuSans-6f" transform="translate(278.417969 0)"/>
       <use xlink:href="#DejaVuSans-61" transform="translate(339.599609 0)"/>
       <use xlink:href="#DejaVuSans-64" transform="translate(400.878906 0)"/>
      </g>
     </g>
    </g>
    <g id="ytick_6">
     <g id="line2d_18"/>
     <g id="text_12">
      <!-- CPU FMV -->
      <g transform="translate(18.950156 197.455289) scale(0.105 -0.105)">
       <defs>
        <path id="DejaVuSans-46" d="M 628 4666 
L 3309 4666 
L 3309 4134 
L 1259 4134 
L 1259 2759 
L 3109 2759 
L 3109 2228 
L 1259 2228 
L 1259 0 
L 628 0 
L 628 4666 
z
" transform="scale(0.015625)"/>
       </defs>
       <use xlink:href="#DejaVuSans-43"/>
       <use xlink:href="#DejaVuSans-50" transform="translate(69.824219 0)"/>
       <use xlink:href="#DejaVuSans-55" transform="translate(130.126953 0)"/>
       <use xlink:href="#DejaVuSans-20" transform="translate(203.320312 0)"/>
       <use xlink:href="#DejaVuSans-46" transform="translate(235.107422 0)"/>
       <use xlink:href="#DejaVuSans-4d" transform="translate(292.626953 0)"/>
       <use xlink:href="#DejaVuSans-56" transform="translate(378.90625 0)"/>
      </g>
     </g>
    </g>
    <g id="ytick_7">
     <g id="line2d_19"/>
     <g id="text_13">
      <!-- This Work -->
      <g style="fill: #0d9488" transform="translate(7.2 221.215289) scale(0.105 -0.105)">
       <defs>
        <path id="DejaVuSans-Bold-54" d="M 31 4666 
L 4331 4666 
L 4331 3756 
L 2784 3756 
L 2784 0 
L 1581 0 
L 1581 3756 
L 31 3756 
L 31 4666 
z
" transform="scale(0.015625)"/>
        <path id="DejaVuSans-Bold-68" d="M 4056 2131 
L 4056 0 
L 2931 0 
L 2931 347 
L 2931 1625 
Q 2931 2084 2911 2256 
Q 2891 2428 2841 2509 
Q 2775 2619 2662 2680 
Q 2550 2741 2406 2741 
Q 2056 2741 1856 2470 
Q 1656 2200 1656 1722 
L 1656 0 
L 538 0 
L 538 4863 
L 1656 4863 
L 1656 2988 
Q 1909 3294 2193 3439 
Q 2478 3584 2822 3584 
Q 3428 3584 3742 3212 
Q 4056 2841 4056 2131 
z
" transform="scale(0.015625)"/>
        <path id="DejaVuSans-Bold-69" d="M 538 3500 
L 1656 3500 
L 1656 0 
L 538 0 
L 538 3500 
z
M 538 4863 
L 1656 4863 
L 1656 3950 
L 538 3950 
L 538 4863 
z
" transform="scale(0.015625)"/>
        <path id="DejaVuSans-Bold-73" d="M 3272 3391 
L 3272 2541 
Q 2913 2691 2578 2766 
Q 2244 2841 1947 2841 
Q 1628 2841 1473 2761 
Q 1319 2681 1319 2516 
Q 1319 2381 1436 2309 
Q 1553 2238 1856 2203 
L 2053 2175 
Q 2913 2066 3209 1816 
Q 3506 1566 3506 1031 
Q 3506 472 3093 190 
Q 2681 -91 1863 -91 
Q 1516 -91 1145 -36 
Q 775 19 384 128 
L 384 978 
Q 719 816 1070 734 
Q 1422 653 1784 653 
Q 2113 653 2278 743 
Q 2444 834 2444 1013 
Q 2444 1163 2330 1236 
Q 2216 1309 1875 1350 
L 1678 1375 
Q 931 1469 631 1722 
Q 331 1975 331 2491 
Q 331 3047 712 3315 
Q 1094 3584 1881 3584 
Q 2191 3584 2531 3537 
Q 2872 3491 3272 3391 
z
" transform="scale(0.015625)"/>
        <path id="DejaVuSans-Bold-20" transform="scale(0.015625)"/>
        <path id="DejaVuSans-Bold-57" d="M 191 4666 
L 1344 4666 
L 2150 1275 
L 2950 4666 
L 4109 4666 
L 4909 1275 
L 5716 4666 
L 6859 4666 
L 5759 0 
L 4372 0 
L 3525 3547 
L 2688 0 
L 1300 0 
L 191 4666 
z
" transform="scale(0.015625)"/>
        <path id="DejaVuSans-Bold-6f" d="M 2203 2784 
Q 1831 2784 1636 2517 
Q 1441 2250 1441 1747 
Q 1441 1244 1636 976 
Q 1831 709 2203 709 
Q 2569 709 2762 976 
Q 2956 1244 2956 1747 
Q 2956 2250 2762 2517 
Q 2569 2784 2203 2784 
z
M 2203 3584 
Q 3106 3584 3614 3096 
Q 4122 2609 4122 1747 
Q 4122 884 3614 396 
Q 3106 -91 2203 -91 
Q 1297 -91 786 396 
Q 275 884 275 1747 
Q 275 2609 786 3096 
Q 1297 3584 2203 3584 
z
" transform="scale(0.015625)"/>
        <path id="DejaVuSans-Bold-72" d="M 3138 2547 
Q 2991 2616 2845 2648 
Q 2700 2681 2553 2681 
Q 2122 2681 1889 2404 
Q 1656 2128 1656 1613 
L 1656 0 
L 538 0 
L 538 3500 
L 1656 3500 
L 1656 2925 
Q 1872 3269 2151 3426 
Q 2431 3584 2822 3584 
Q 2878 3584 2943 3579 
Q 3009 3575 3134 3559 
L 3138 2547 
z
" transform="scale(0.015625)"/>
        <path id="DejaVuSans-Bold-6b" d="M 538 4863 
L 1656 4863 
L 1656 2216 
L 2944 3500 
L 4244 3500 
L 2534 1894 
L 4378 0 
L 3022 0 
L 1656 1459 
L 1656 0 
L 538 0 
L 538 4863 
z
" transform="scale(0.015625)"/>
       </defs>
       <use xlink:href="#DejaVuSans-Bold-54"/>
       <use xlink:href="#DejaVuSans-Bold-68" transform="translate(68.212891 0)"/>
       <use xlink:href="#DejaVuSans-Bold-69" transform="translate(139.404297 0)"/>
       <use xlink:href="#DejaVuSans-Bold-73" transform="translate(173.681641 0)"/>
       <use xlink:href="#DejaVuSans-Bold-20" transform="translate(233.203125 0)"/>
       <use xlink:href="#DejaVuSans-Bold-57" transform="translate(268.017578 0)"/>
       <use xlink:href="#DejaVuSans-Bold-6f" transform="translate(374.695312 0)"/>
       <use xlink:href="#DejaVuSans-Bold-72" transform="translate(443.396484 0)"/>
       <use xlink:href="#DejaVuSans-Bold-6b" transform="translate(492.712891 0)"/>
      </g>
     </g>
    </g>
   </g>
   <g id="patch_4">
    <path d="M 101.764154 94.149309 
C 104.852502 94.149309 107.814775 94.59994 109.998566 95.401955 
C 112.182358 96.20397 113.409372 97.291889 113.409372 98.426109 
C 113.409372 99.56033 112.182358 100.648249 109.998566 101.450264 
C 107.814775 102.252279 104.852502 102.702909 101.764154 102.702909 
C 98.675806 102.702909 95.713534 102.252279 93.529742 101.450264 
C 91.34595 100.648249 90.118937 99.56033 90.118937 98.426109 
C 90.118937 97.291889 91.34595 96.20397 93.529742 95.401955 
C 95.713534 94.59994 98.675806 94.149309 101.764154 94.149309 
z
" clip-path="url(#p8c52bf6459)" style="fill: #ffffff; stroke: #d97706; stroke-linejoin: miter"/>
   </g>
   <g id="patch_5">
    <path d="M 360.546763 117.909309 
C 363.635111 117.909309 366.597383 118.35994 368.781175 119.161955 
C 370.964967 119.96397 372.19198 121.051889 372.19198 122.186109 
C 372.19198 123.32033 370.964967 124.408249 368.781175 125.210264 
C 366.597383 126.012279 363.635111 126.462909 360.546763 126.462909 
C 357.458415 126.462909 354.496142 126.012279 352.312351 125.210264 
C 350.128559 124.408249 348.901546 123.32033 348.901546 122.186109 
C 348.901546 121.051889 350.128559 119.96397 352.312351 119.161955 
C 354.496142 118.35994 357.458415 117.909309 360.546763 117.909309 
z
" clip-path="url(#p8c52bf6459)" style="fill: #ffffff; stroke: #d97706; stroke-linejoin: miter"/>
   </g>
   <g id="patch_6">
    <path d="M 101.764154 141.669309 
C 104.852502 141.669309 107.814775 142.11994 109.998566 142.921955 
C 112.182358 143.72397 113.409372 144.811889 113.409372 145.946109 
C 113.409372 147.08033 112.182358 148.168249 109.998566 148.970264 
C 107.814775 149.772279 104.852502 150.222909 101.764154 150.222909 
C 98.675806 150.222909 95.713534 149.772279 93.529742 148.970264 
C 91.34595 148.168249 90.118937 147.08033 90.118937 145.946109 
C 90.118937 144.811889 91.34595 143.72397 93.529742 142.921955 
C 95.713534 142.11994 98.675806 141.669309 101.764154 141.669309 
z
" clip-path="url(#p8c52bf6459)" style="fill: #ffffff; stroke: #d97706; stroke-linejoin: miter"/>
   </g>
   <g id="patch_7">
    <path d="M 101.764154 165.429309 
C 104.852502 165.429309 107.814775 165.87994 109.998566 166.681955 
C 112.182358 167.48397 113.409372 168.571889 113.409372 169.706109 
C 113.409372 170.84033 112.182358 171.928249 109.998566 172.730264 
C 107.814775 173.532279 104.852502 173.982909 101.764154 173.982909 
C 98.675806 173.982909 95.713534 173.532279 93.529742 172.730264 
C 91.34595 171.928249 90.118937 170.84033 90.118937 169.706109 
C 90.118937 168.571889 91.34595 167.48397 93.529742 166.681955 
C 95.713534 165.87994 98.675806 165.429309 101.764154 165.429309 
z
" clip-path="url(#p8c52bf6459)" style="fill: #ffffff; stroke: #d97706; stroke-linejoin: miter"/>
   </g>
   <g id="patch_8">
    <path d="M 101.764154 70.389309 
C 104.852502 70.389309 107.814775 70.83994 109.998566 71.641955 
C 112.182358 72.44397 113.409372 73.531889 113.409372 74.666109 
C 113.409372 75.80033 112.182358 76.888249 109.998566 77.690264 
C 107.814775 78.492279 104.852502 78.942909 101.764154 78.942909 
C 98.675806 78.942909 95.713534 78.492279 93.529742 77.690264 
C 91.34595 76.888249 90.118937 75.80033 90.118937 74.666109 
C 90.118937 73.531889 91.34595 72.44397 93.529742 71.641955 
C 95.713534 70.83994 98.675806 70.389309 101.764154 70.389309 
z
" clip-path="url(#p8c52bf6459)" style="fill: #16a34a; stroke: #15803d; stroke-linejoin: miter"/>
   </g>
   <g id="patch_9">
    <path d="M 166.459806 70.389309 
C 169.548154 70.389309 172.510427 70.83994 174.694219 71.641955 
C 176.87801 72.44397 178.105024 73.531889 178.105024 74.666109 
C 178.105024 75.80033 176.87801 76.888249 174.694219 77.690264 
C 172.510427 78.492279 169.548154 78.942909 166.459806 78.942909 
C 163.371459 78.942909 160.409186 78.492279 158.225394 77.690264 
C 156.041603 76.888249 154.814589 75.80033 154.814589 74.666109 
C 154.814589 73.531889 156.041603 72.44397 158.225394 71.641955 
C 160.409186 70.83994 163.371459 70.389309 166.459806 70.389309 
z
" clip-path="url(#p8c52bf6459)" style="fill: #16a34a; stroke: #15803d; stroke-linejoin: miter"/>
   </g>
   <g id="patch_10">
    <path d="M 231.155459 70.389309 
C 234.243806 70.389309 237.206079 70.83994 239.389871 71.641955 
C 241.573662 72.44397 242.800676 73.531889 242.800676 74.666109 
C 242.800676 75.80033 241.573662 76.888249 239.389871 77.690264 
C 237.206079 78.492279 234.243806 78.942909 231.155459 78.942909 
C 228.067111 78.942909 225.104838 78.492279 222.921046 77.690264 
C 220.737255 76.888249 219.510241 75.80033 219.510241 74.666109 
C 219.510241 73.531889 220.737255 72.44397 222.921046 71.641955 
C 225.104838 70.83994 228.067111 70.389309 231.155459 70.389309 
z
" clip-path="url(#p8c52bf6459)" style="fill: #16a34a; stroke: #15803d; stroke-linejoin: miter"/>
   </g>
   <g id="patch_11">
    <path d="M 295.851111 70.389309 
C 298.939458 70.389309 301.901731 70.83994 304.085523 71.641955 
C 306.269315 72.44397 307.496328 73.531889 307.496328 74.666109 
C 307.496328 75.80033 306.269315 76.888249 304.085523 77.690264 
C 301.901731 78.492279 298.939458 78.942909 295.851111 78.942909 
C 292.762763 78.942909 289.80049 78.492279 287.616699 77.690264 
C 285.432907 76.888249 284.205893 75.80033 284.205893 74.666109 
C 284.205893 73.531889 285.432907 72.44397 287.616699 71.641955 
C 289.80049 70.83994 292.762763 70.389309 295.851111 70.389309 
z
" clip-path="url(#p8c52bf6459)" style="fill: #ffffff; stroke: #9ca3af; stroke-linejoin: miter"/>
   </g>
   <g id="patch_12">
    <path d="M 360.546763 70.389309 
C 363.635111 70.389309 366.597383 70.83994 368.781175 71.641955 
C 370.964967 72.44397 372.19198 73.531889 372.19198 74.666109 
C 372.19198 75.80033 370.964967 76.888249 368.781175 77.690264 
C 366.597383 78.492279 363.635111 78.942909 360.546763 78.942909 
C 357.458415 78.942909 354.496142 78.492279 352.312351 77.690264 
C 350.128559 76.888249 348.901546 75.80033 348.901546 74.666109 
C 348.901546 73.531889 350.128559 72.44397 352.312351 71.641955 
C 354.496142 70.83994 357.458415 70.389309 360.546763 70.389309 
z
" clip-path="url(#p8c52bf6459)" style="fill: #ffffff; stroke: #9ca3af; stroke-linejoin: miter"/>
   </g>
   <g id="patch_13">
    <path d="M 101.764154 102.702909 
C 98.676835 102.702909 95.712806 102.252012 93.529742 101.450264 
C 91.346678 100.648516 90.118937 99.559952 90.118937 98.426109 
C 90.118937 97.292267 91.346678 96.203703 93.529742 95.401955 
C 95.712806 94.600207 98.676835 94.149309 101.764154 94.149309 
L 101.764154 98.426109 
z
" clip-path="url(#p8c52bf6459)" style="fill: #f59e0b; stroke: #d97706; stroke-linejoin: miter"/>
   </g>
   <g id="patch_14">
    <path d="M 166.459806 94.149309 
C 169.548154 94.149309 172.510427 94.59994 174.694219 95.401955 
C 176.87801 96.20397 178.105024 97.291889 178.105024 98.426109 
C 178.105024 99.56033 176.87801 100.648249 174.694219 101.450264 
C 172.510427 102.252279 169.548154 102.702909 166.459806 102.702909 
C 163.371459 102.702909 160.409186 102.252279 158.225394 101.450264 
C 156.041603 100.648249 154.814589 99.56033 154.814589 98.426109 
C 154.814589 97.291889 156.041603 96.20397 158.225394 95.401955 
C 160.409186 94.59994 163.371459 94.149309 166.459806 94.149309 
z
" clip-path="url(#p8c52bf6459)" style="fill: #16a34a; stroke: #15803d; stroke-linejoin: miter"/>
   </g>
   <g id="patch_15">
    <path d="M 231.155459 94.149309 
C 234.243806 94.149309 237.206079 94.59994 239.389871 95.401955 
C 241.573662 96.20397 242.800676 97.291889 242.800676 98.426109 
C 242.800676 99.56033 241.573662 100.648249 239.389871 101.450264 
C 237.206079 102.252279 234.243806 102.702909 231.155459 102.702909 
C 228.067111 102.702909 225.104838 102.252279 222.921046 101.450264 
C 220.737255 100.648249 219.510241 99.56033 219.510241 98.426109 
C 219.510241 97.291889 220.737255 96.20397 222.921046 95.401955 
C 225.104838 94.59994 228.067111 94.149309 231.155459 94.149309 
z
" clip-path="url(#p8c52bf6459)" style="fill: #ffffff; stroke: #9ca3af; stroke-linejoin: miter"/>
   </g>
   <g id="patch_16">
    <path d="M 295.851111 94.149309 
C 298.939458 94.149309 301.901731 94.59994 304.085523 95.401955 
C 306.269315 96.20397 307.496328 97.291889 307.496328 98.426109 
C 307.496328 99.56033 306.269315 100.648249 304.085523 101.450264 
C 301.901731 102.252279 298.939458 102.702909 295.851111 102.702909 
C 292.762763 102.702909 289.80049 102.252279 287.616699 101.450264 
C 285.432907 100.648249 284.205893 99.56033 284.205893 98.426109 
C 284.205893 97.291889 285.432907 96.20397 287.616699 95.401955 
C 289.80049 94.59994 292.762763 94.149309 295.851111 94.149309 
z
" clip-path="url(#p8c52bf6459)" style="fill: #ffffff; stroke: #9ca3af; stroke-linejoin: miter"/>
   </g>
   <g id="patch_17">
    <path d="M 360.546763 94.149309 
C 363.635111 94.149309 366.597383 94.59994 368.781175 95.401955 
C 370.964967 96.20397 372.19198 97.291889 372.19198 98.426109 
C 372.19198 99.56033 370.964967 100.648249 368.781175 101.450264 
C 366.597383 102.252279 363.635111 102.702909 360.546763 102.702909 
C 357.458415 102.702909 354.496142 102.252279 352.312351 101.450264 
C 350.128559 100.648249 348.901546 99.56033 348.901546 98.426109 
C 348.901546 97.291889 350.128559 96.20397 352.312351 95.401955 
C 354.496142 94.59994 357.458415 94.149309 360.546763 94.149309 
z
" clip-path="url(#p8c52bf6459)" style="fill: #ffffff; stroke: #9ca3af; stroke-linejoin: miter"/>
   </g>
   <g id="patch_18">
    <path d="M 101.764154 117.909309 
C 104.852502 117.909309 107.814775 118.35994 109.998566 119.161955 
C 112.182358 119.96397 113.409372 121.051889 113.409372 122.186109 
C 113.409372 123.32033 112.182358 124.408249 109.998566 125.210264 
C 107.814775 126.012279 104.852502 126.462909 101.764154 126.462909 
C 98.675806 126.462909 95.713534 126.012279 93.529742 125.210264 
C 91.34595 124.408249 90.118937 123.32033 90.118937 122.186109 
C 90.118937 121.051889 91.34595 119.96397 93.529742 119.161955 
C 95.713534 118.35994 98.675806 117.909309 101.764154 117.909309 
z
" clip-path="url(#p8c52bf6459)" style="fill: #16a34a; stroke: #15803d; stroke-linejoin: miter"/>
   </g>
   <g id="patch_19">
    <path d="M 166.459806 117.909309 
C 169.548154 117.909309 172.510427 118.35994 174.694219 119.161955 
C 176.87801 119.96397 178.105024 121.051889 178.105024 122.186109 
C 178.105024 123.32033 176.87801 124.408249 174.694219 125.210264 
C 172.510427 126.012279 169.548154 126.462909 166.459806 126.462909 
C 163.371459 126.462909 160.409186 126.012279 158.225394 125.210264 
C 156.041603 124.408249 154.814589 123.32033 154.814589 122.186109 
C 154.814589 121.051889 156.041603 119.96397 158.225394 119.161955 
C 160.409186 118.35994 163.371459 117.909309 166.459806 117.909309 
z
" clip-path="url(#p8c52bf6459)" style="fill: #ffffff; stroke: #9ca3af; stroke-linejoin: miter"/>
   </g>
   <g id="patch_20">
    <path d="M 231.155459 117.909309 
C 234.243806 117.909309 237.206079 118.35994 239.389871 119.161955 
C 241.573662 119.96397 242.800676 121.051889 242.800676 122.186109 
C 242.800676 123.32033 241.573662 124.408249 239.389871 125.210264 
C 237.206079 126.012279 234.243806 126.462909 231.155459 126.462909 
C 228.067111 126.462909 225.104838 126.012279 222.921046 125.210264 
C 220.737255 124.408249 219.510241 123.32033 219.510241 122.186109 
C 219.510241 121.051889 220.737255 119.96397 222.921046 119.161955 
C 225.104838 118.35994 228.067111 117.909309 231.155459 117.909309 
z
" clip-path="url(#p8c52bf6459)" style="fill: #ffffff; stroke: #9ca3af; stroke-linejoin: miter"/>
   </g>
   <g id="patch_21">
    <path d="M 295.851111 117.909309 
C 298.939458 117.909309 301.901731 118.35994 304.085523 119.161955 
C 306.269315 119.96397 307.496328 121.051889 307.496328 122.186109 
C 307.496328 123.32033 306.269315 124.408249 304.085523 125.210264 
C 301.901731 126.012279 298.939458 126.462909 295.851111 126.462909 
C 292.762763 126.462909 289.80049 126.012279 287.616699 125.210264 
C 285.432907 124.408249 284.205893 123.32033 284.205893 122.186109 
C 284.205893 121.051889 285.432907 119.96397 287.616699 119.161955 
C 289.80049 118.35994 292.762763 117.909309 295.851111 117.909309 
z
" clip-path="url(#p8c52bf6459)" style="fill: #ffffff; stroke: #9ca3af; stroke-linejoin: miter"/>
   </g>
   <g id="patch_22">
    <path d="M 360.546763 126.462909 
C 357.459444 126.462909 354.495415 126.012012 352.312351 125.210264 
C 350.129286 124.408516 348.901546 123.319952 348.901546 122.186109 
C 348.901546 121.052267 350.129286 119.963703 352.312351 119.161955 
C 354.495415 118.360207 357.459444 117.909309 360.546763 117.909309 
L 360.546763 122.186109 
z
" clip-path="url(#p8c52bf6459)" style="fill: #f59e0b; stroke: #d97706; stroke-linejoin: miter"/>
   </g>
   <g id="patch_23">
    <path d="M 101.764154 150.222909 
C 98.676835 150.222909 95.712806 149.772012 93.529742 148.970264 
C 91.346678 148.168516 90.118937 147.079952 90.118937 145.946109 
C 90.118937 144.812267 91.346678 143.723703 93.529742 142.921955 
C 95.712806 142.120207 98.676835 141.669309 101.764154 141.669309 
L 101.764154 145.946109 
z
" clip-path="url(#p8c52bf6459)" style="fill: #f59e0b; stroke: #d97706; stroke-linejoin: miter"/>
   </g>
   <g id="patch_24">
    <path d="M 166.459806 141.669309 
C 169.548154 141.669309 172.510427 142.11994 174.694219 142.921955 
C 176.87801 143.72397 178.105024 144.811889 178.105024 145.946109 
C 178.105024 147.08033 176.87801 148.168249 174.694219 148.970264 
C 172.510427 149.772279 169.548154 150.222909 166.459806 150.222909 
C 163.371459 150.222909 160.409186 149.772279 158.225394 148.970264 
C 156.041603 148.168249 154.814589 147.08033 154.814589 145.946109 
C 154.814589 144.811889 156.041603 143.72397 158.225394 142.921955 
C 160.409186 142.11994 163.371459 141.669309 166.459806 141.669309 
z
" clip-path="url(#p8c52bf6459)" style="fill: #ffffff; stroke: #9ca3af; stroke-linejoin: miter"/>
   </g>
   <g id="patch_25">
    <path d="M 231.155459 141.669309 
C 234.243806 141.669309 237.206079 142.11994 239.389871 142.921955 
C 241.573662 143.72397 242.800676 144.811889 242.800676 145.946109 
C 242.800676 147.08033 241.573662 148.168249 239.389871 148.970264 
C 237.206079 149.772279 234.243806 150.222909 231.155459 150.222909 
C 228.067111 150.222909 225.104838 149.772279 222.921046 148.970264 
C 220.737255 148.168249 219.510241 147.08033 219.510241 145.946109 
C 219.510241 144.811889 220.737255 143.72397 222.921046 142.921955 
C 225.104838 142.11994 228.067111 141.669309 231.155459 141.669309 
z
" clip-path="url(#p8c52bf6459)" style="fill: #ffffff; stroke: #9ca3af; stroke-linejoin: miter"/>
   </g>
   <g id="patch_26">
    <path d="M 295.851111 141.669309 
C 298.939458 141.669309 301.901731 142.11994 304.085523 142.921955 
C 306.269315 143.72397 307.496328 144.811889 307.496328 145.946109 
C 307.496328 147.08033 306.269315 148.168249 304.085523 148.970264 
C 301.901731 149.772279 298.939458 150.222909 295.851111 150.222909 
C 292.762763 150.222909 289.80049 149.772279 287.616699 148.970264 
C 285.432907 148.168249 284.205893 147.08033 284.205893 145.946109 
C 284.205893 144.811889 285.432907 143.72397 287.616699 142.921955 
C 289.80049 142.11994 292.762763 141.669309 295.851111 141.669309 
z
" clip-path="url(#p8c52bf6459)" style="fill: #ffffff; stroke: #9ca3af; stroke-linejoin: miter"/>
   </g>
   <g id="patch_27">
    <path d="M 360.546763 141.669309 
C 363.635111 141.669309 366.597383 142.11994 368.781175 142.921955 
C 370.964967 143.72397 372.19198 144.811889 372.19198 145.946109 
C 372.19198 147.08033 370.964967 148.168249 368.781175 148.970264 
C 366.597383 149.772279 363.635111 150.222909 360.546763 150.222909 
C 357.458415 150.222909 354.496142 149.772279 352.312351 148.970264 
C 350.128559 148.168249 348.901546 147.08033 348.901546 145.946109 
C 348.901546 144.811889 350.128559 143.72397 352.312351 142.921955 
C 354.496142 142.11994 357.458415 141.669309 360.546763 141.669309 
z
" clip-path="url(#p8c52bf6459)" style="fill: #ffffff; stroke: #9ca3af; stroke-linejoin: miter"/>
   </g>
   <g id="patch_28">
    <path d="M 101.764154 173.982909 
C 98.676835 173.982909 95.712806 173.532012 93.529742 172.730264 
C 91.346678 171.928516 90.118937 170.839952 90.118937 169.706109 
C 90.118937 168.572267 91.346678 167.483703 93.529742 166.681955 
C 95.712806 165.880207 98.676835 165.429309 101.764154 165.429309 
L 101.764154 169.706109 
z
" clip-path="url(#p8c52bf6459)" style="fill: #f59e0b; stroke: #d97706; stroke-linejoin: miter"/>
   </g>
   <g id="patch_29">
    <path d="M 166.459806 165.429309 
C 169.548154 165.429309 172.510427 165.87994 174.694219 166.681955 
C 176.87801 167.48397 178.105024 168.571889 178.105024 169.706109 
C 178.105024 170.84033 176.87801 171.928249 174.694219 172.730264 
C 172.510427 173.532279 169.548154 173.982909 166.459806 173.982909 
C 163.371459 173.982909 160.409186 173.532279 158.225394 172.730264 
C 156.041603 171.928249 154.814589 170.84033 154.814589 169.706109 
C 154.814589 168.571889 156.041603 167.48397 158.225394 166.681955 
C 160.409186 165.87994 163.371459 165.429309 166.459806 165.429309 
z
" clip-path="url(#p8c52bf6459)" style="fill: #16a34a; stroke: #15803d; stroke-linejoin: miter"/>
   </g>
   <g id="patch_30">
    <path d="M 231.155459 165.429309 
C 234.243806 165.429309 237.206079 165.87994 239.389871 166.681955 
C 241.573662 167.48397 242.800676 168.571889 242.800676 169.706109 
C 242.800676 170.84033 241.573662 171.928249 239.389871 172.730264 
C 237.206079 173.532279 234.243806 173.982909 231.155459 173.982909 
C 228.067111 173.982909 225.104838 173.532279 222.921046 172.730264 
C 220.737255 171.928249 219.510241 170.84033 219.510241 169.706109 
C 219.510241 168.571889 220.737255 167.48397 222.921046 166.681955 
C 225.104838 165.87994 228.067111 165.429309 231.155459 165.429309 
z
" clip-path="url(#p8c52bf6459)" style="fill: #ffffff; stroke: #9ca3af; stroke-linejoin: miter"/>
   </g>
   <g id="patch_31">
    <path d="M 295.851111 165.429309 
C 298.939458 165.429309 301.901731 165.87994 304.085523 166.681955 
C 306.269315 167.48397 307.496328 168.571889 307.496328 169.706109 
C 307.496328 170.84033 306.269315 171.928249 304.085523 172.730264 
C 301.901731 173.532279 298.939458 173.982909 295.851111 173.982909 
C 292.762763 173.982909 289.80049 173.532279 287.616699 172.730264 
C 285.432907 171.928249 284.205893 170.84033 284.205893 169.706109 
C 284.205893 168.571889 285.432907 167.48397 287.616699 166.681955 
C 289.80049 165.87994 292.762763 165.429309 295.851111 165.429309 
z
" clip-path="url(#p8c52bf6459)" style="fill: #ffffff; stroke: #9ca3af; stroke-linejoin: miter"/>
   </g>
   <g id="patch_32">
    <path d="M 360.546763 165.429309 
C 363.635111 165.429309 366.597383 165.87994 368.781175 166.681955 
C 370.964967 167.48397 372.19198 168.571889 372.19198 169.706109 
C 372.19198 170.84033 370.964967 171.928249 368.781175 172.730264 
C 366.597383 173.532279 363.635111 173.982909 360.546763 173.982909 
C 357.458415 173.982909 354.496142 173.532279 352.312351 172.730264 
C 350.128559 171.928249 348.901546 170.84033 348.901546 169.706109 
C 348.901546 168.571889 350.128559 167.48397 352.312351 166.681955 
C 354.496142 165.87994 357.458415 165.429309 360.546763 165.429309 
z
" clip-path="url(#p8c52bf6459)" style="fill: #ffffff; stroke: #9ca3af; stroke-linejoin: miter"/>
   </g>
   <g id="patch_33">
    <path d="M 101.764154 189.189309 
C 104.852502 189.189309 107.814775 189.63994 109.998566 190.441955 
C 112.182358 191.24397 113.409372 192.331889 113.409372 193.466109 
C 113.409372 194.60033 112.182358 195.688249 109.998566 196.490264 
C 107.814775 197.292279 104.852502 197.742909 101.764154 197.742909 
C 98.675806 197.742909 95.713534 197.292279 93.529742 196.490264 
C 91.34595 195.688249 90.118937 194.60033 90.118937 193.466109 
C 90.118937 192.331889 91.34595 191.24397 93.529742 190.441955 
C 95.713534 189.63994 98.675806 189.189309 101.764154 189.189309 
z
" clip-path="url(#p8c52bf6459)" style="fill: #16a34a; stroke: #15803d; stroke-linejoin: miter"/>
   </g>
   <g id="patch_34">
    <path d="M 166.459806 189.189309 
C 169.548154 189.189309 172.510427 189.63994 174.694219 190.441955 
C 176.87801 191.24397 178.105024 192.331889 178.105024 193.466109 
C 178.105024 194.60033 176.87801 195.688249 174.694219 196.490264 
C 172.510427 197.292279 169.548154 197.742909 166.459806 197.742909 
C 163.371459 197.742909 160.409186 197.292279 158.225394 196.490264 
C 156.041603 195.688249 154.814589 194.60033 154.814589 193.466109 
C 154.814589 192.331889 156.041603 191.24397 158.225394 190.441955 
C 160.409186 189.63994 163.371459 189.189309 166.459806 189.189309 
z
" clip-path="url(#p8c52bf6459)" style="fill: #ffffff; stroke: #9ca3af; stroke-linejoin: miter"/>
   </g>
   <g id="patch_35">
    <path d="M 231.155459 189.189309 
C 234.243806 189.189309 237.206079 189.63994 239.389871 190.441955 
C 241.573662 191.24397 242.800676 192.331889 242.800676 193.466109 
C 242.800676 194.60033 241.573662 195.688249 239.389871 196.490264 
C 237.206079 197.292279 234.243806 197.742909 231.155459 197.742909 
C 228.067111 197.742909 225.104838 197.292279 222.921046 196.490264 
C 220.737255 195.688249 219.510241 194.60033 219.510241 193.466109 
C 219.510241 192.331889 220.737255 191.24397 222.921046 190.441955 
C 225.104838 189.63994 228.067111 189.189309 231.155459 189.189309 
z
" clip-path="url(#p8c52bf6459)" style="fill: #ffffff; stroke: #9ca3af; stroke-linejoin: miter"/>
   </g>
   <g id="patch_36">
    <path d="M 295.851111 189.189309 
C 298.939458 189.189309 301.901731 189.63994 304.085523 190.441955 
C 306.269315 191.24397 307.496328 192.331889 307.496328 193.466109 
C 307.496328 194.60033 306.269315 195.688249 304.085523 196.490264 
C 301.901731 197.292279 298.939458 197.742909 295.851111 197.742909 
C 292.762763 197.742909 289.80049 197.292279 287.616699 196.490264 
C 285.432907 195.688249 284.205893 194.60033 284.205893 193.466109 
C 284.205893 192.331889 285.432907 191.24397 287.616699 190.441955 
C 289.80049 189.63994 292.762763 189.189309 295.851111 189.189309 
z
" clip-path="url(#p8c52bf6459)" style="fill: #ffffff; stroke: #9ca3af; stroke-linejoin: miter"/>
   </g>
   <g id="patch_37">
    <path d="M 360.546763 189.189309 
C 363.635111 189.189309 366.597383 189.63994 368.781175 190.441955 
C 370.964967 191.24397 372.19198 192.331889 372.19198 193.466109 
C 372.19198 194.60033 370.964967 195.688249 368.781175 196.490264 
C 366.597383 197.292279 363.635111 197.742909 360.546763 197.742909 
C 357.458415 197.742909 354.496142 197.292279 352.312351 196.490264 
C 350.128559 195.688249 348.901546 194.60033 348.901546 193.466109 
C 348.901546 192.331889 350.128559 191.24397 352.312351 190.441955 
C 354.496142 189.63994 357.458415 189.189309 360.546763 189.189309 
z
" clip-path="url(#p8c52bf6459)" style="fill: #16a34a; stroke: #15803d; stroke-linejoin: miter"/>
   </g>
   <g id="patch_38">
    <path d="M 101.764154 212.949309 
C 104.852502 212.949309 107.814775 213.39994 109.998566 214.201955 
C 112.182358 215.00397 113.409372 216.091889 113.409372 217.226109 
C 113.409372 218.36033 112.182358 219.448249 109.998566 220.250264 
C 107.814775 221.052279 104.852502 221.502909 101.764154 221.502909 
C 98.675806 221.502909 95.713534 221.052279 93.529742 220.250264 
C 91.34595 219.448249 90.118937 218.36033 90.118937 217.226109 
C 90.118937 216.091889 91.34595 215.00397 93.529742 214.201955 
C 95.713534 213.39994 98.675806 212.949309 101.764154 212.949309 
z
" clip-path="url(#p8c52bf6459)" style="fill: #16a34a; stroke: #15803d; stroke-linejoin: miter"/>
   </g>
   <g id="patch_39">
    <path d="M 166.459806 212.949309 
C 169.548154 212.949309 172.510427 213.39994 174.694219 214.201955 
C 176.87801 215.00397 178.105024 216.091889 178.105024 217.226109 
C 178.105024 218.36033 176.87801 219.448249 174.694219 220.250264 
C 172.510427 221.052279 169.548154 221.502909 166.459806 221.502909 
C 163.371459 221.502909 160.409186 221.052279 158.225394 220.250264 
C 156.041603 219.448249 154.814589 218.36033 154.814589 217.226109 
C 154.814589 216.091889 156.041603 215.00397 158.225394 214.201955 
C 160.409186 213.39994 163.371459 212.949309 166.459806 212.949309 
z
" clip-path="url(#p8c52bf6459)" style="fill: #16a34a; stroke: #15803d; stroke-linejoin: miter"/>
   </g>
   <g id="patch_40">
    <path d="M 231.155459 212.949309 
C 234.243806 212.949309 237.206079 213.39994 239.389871 214.201955 
C 241.573662 215.00397 242.800676 216.091889 242.800676 217.226109 
C 242.800676 218.36033 241.573662 219.448249 239.389871 220.250264 
C 237.206079 221.052279 234.243806 221.502909 231.155459 221.502909 
C 228.067111 221.502909 225.104838 221.052279 222.921046 220.250264 
C 220.737255 219.448249 219.510241 218.36033 219.510241 217.226109 
C 219.510241 216.091889 220.737255 215.00397 222.921046 214.201955 
C 225.104838 213.39994 228.067111 212.949309 231.155459 212.949309 
z
" clip-path="url(#p8c52bf6459)" style="fill: #16a34a; stroke: #15803d; stroke-linejoin: miter"/>
   </g>
   <g id="patch_41">
    <path d="M 295.851111 212.949309 
C 298.939458 212.949309 301.901731 213.39994 304.085523 214.201955 
C 306.269315 215.00397 307.496328 216.091889 307.496328 217.226109 
C 307.496328 218.36033 306.269315 219.448249 304.085523 220.250264 
C 301.901731 221.052279 298.939458 221.502909 295.851111 221.502909 
C 292.762763 221.502909 289.80049 221.052279 287.616699 220.250264 
C 285.432907 219.448249 284.205893 218.36033 284.205893 217.226109 
C 284.205893 216.091889 285.432907 215.00397 287.616699 214.201955 
C 289.80049 213.39994 292.762763 212.949309 295.851111 212.949309 
z
" clip-path="url(#p8c52bf6459)" style="fill: #16a34a; stroke: #15803d; stroke-linejoin: miter"/>
   </g>
   <g id="patch_42">
    <path d="M 360.546763 212.949309 
C 363.635111 212.949309 366.597383 213.39994 368.781175 214.201955 
C 370.964967 215.00397 372.19198 216.091889 372.19198 217.226109 
C 372.19198 218.36033 370.964967 219.448249 368.781175 220.250264 
C 366.597383 221.052279 363.635111 221.502909 360.546763 221.502909 
C 357.458415 221.502909 354.496142 221.052279 352.312351 220.250264 
C 350.128559 219.448249 348.901546 218.36033 348.901546 217.226109 
C 348.901546 216.091889 350.128559 215.00397 352.312351 214.201955 
C 354.496142 213.39994 357.458415 212.949309 360.546763 212.949309 
z
" clip-path="url(#p8c52bf6459)" style="fill: #16a34a; stroke: #15803d; stroke-linejoin: miter"/>
   </g>
   <g id="text_14">
    <!-- 100K+ -->
    <g style="fill: #374151" transform="translate(454.367497 77.287516) scale(0.095 -0.095)">
     <defs>
      <path id="DejaVuSans-31" d="M 794 531 
L 1825 531 
L 1825 4091 
L 703 3866 
L 703 4441 
L 1819 4666 
L 2450 4666 
L 2450 531 
L 3481 531 
L 3481 0 
L 794 0 
L 794 531 
z
" transform="scale(0.015625)"/>
      <path id="DejaVuSans-30" d="M 2034 4250 
Q 1547 4250 1301 3770 
Q 1056 3291 1056 2328 
Q 1056 1369 1301 889 
Q 1547 409 2034 409 
Q 2525 409 2770 889 
Q 3016 1369 3016 2328 
Q 3016 3291 2770 3770 
Q 2525 4250 2034 4250 
z
M 2034 4750 
Q 2819 4750 3233 4129 
Q 3647 3509 3647 2328 
Q 3647 1150 3233 529 
Q 2819 -91 2034 -91 
Q 1250 -91 836 529 
Q 422 1150 422 2328 
Q 422 3509 836 4129 
Q 1250 4750 2034 4750 
z
" transform="scale(0.015625)"/>
      <path id="DejaVuSans-4b" d="M 628 4666 
L 1259 4666 
L 1259 2694 
L 3353 4666 
L 4166 4666 
L 1850 2491 
L 4331 0 
L 3500 0 
L 1259 2247 
L 1259 0 
L 628 0 
L 628 4666 
z
" transform="scale(0.015625)"/>
      <path id="DejaVuSans-2b" d="M 2944 4013 
L 2944 2272 
L 4684 2272 
L 4684 1741 
L 2944 1741 
L 2944 0 
L 2419 0 
L 2419 1741 
L 678 1741 
L 678 2272 
L 2419 2272 
L 2419 4013 
L 2944 4013 
z
" transform="scale(0.015625)"/>
     </defs>
     <use xlink:href="#DejaVuSans-31"/>
     <use xlink:href="#DejaVuSans-30" transform="translate(63.623047 0)"/>
     <use xlink:href="#DejaVuSans-30" transform="translate(127.246094 0)"/>
     <use xlink:href="#DejaVuSans-4b" transform="translate(190.869141 0)"/>
     <use xlink:href="#DejaVuSans-2b" transform="translate(256.445312 0)"/>
    </g>
   </g>
   <g id="text_15">
    <!-- 50K+ -->
    <g style="fill: #374151" transform="translate(457.389684 101.047516) scale(0.095 -0.095)">
     <defs>
      <path id="DejaVuSans-35" d="M 691 4666 
L 3169 4666 
L 3169 4134 
L 1269 4134 
L 1269 2991 
Q 1406 3038 1543 3061 
Q 1681 3084 1819 3084 
Q 2600 3084 3056 2656 
Q 3513 2228 3513 1497 
Q 3513 744 3044 326 
Q 2575 -91 1722 -91 
Q 1428 -91 1123 -41 
Q 819 9 494 109 
L 494 744 
Q 775 591 1075 516 
Q 1375 441 1709 441 
Q 2250 441 2565 725 
Q 2881 1009 2881 1497 
Q 2881 1984 2565 2268 
Q 2250 2553 1709 2553 
Q 1456 2553 1204 2497 
Q 953 2441 691 2322 
L 691 4666 
z
" transform="scale(0.015625)"/>
     </defs>
     <use xlink:href="#DejaVuSans-35"/>
     <use xlink:href="#DejaVuSans-30" transform="translate(63.623047 0)"/>
     <use xlink:href="#DejaVuSans-4b" transform="translate(127.246094 0)"/>
     <use xlink:href="#DejaVuSans-2b" transform="translate(192.822266 0)"/>
    </g>
   </g>
   <g id="text_16">
    <!-- 10K+ -->
    <g style="fill: #374151" transform="translate(457.389684 124.807516) scale(0.095 -0.095)">
     <use xlink:href="#DejaVuSans-31"/>
     <use xlink:href="#DejaVuSans-30" transform="translate(63.623047 0)"/>
     <use xlink:href="#DejaVuSans-4b" transform="translate(127.246094 0)"/>
     <use xlink:href="#DejaVuSans-2b" transform="translate(192.822266 0)"/>
    </g>
   </g>
   <g id="text_17">
    <!-- N/A -->
    <g style="fill: #374151" transform="translate(462.126325 148.567516) scale(0.095 -0.095)">
     <defs>
      <path id="DejaVuSans-2f" d="M 1625 4666 
L 2156 4666 
L 531 -594 
L 0 -594 
L 1625 4666 
z
" transform="scale(0.015625)"/>
     </defs>
     <use xlink:href="#DejaVuSans-4e"/>
     <use xlink:href="#DejaVuSans-2f" transform="translate(74.804688 0)"/>
     <use xlink:href="#DejaVuSans-41" transform="translate(108.496094 0)"/>
    </g>
   </g>
   <g id="text_18">
    <!-- 5K+ -->
    <g style="fill: #374151" transform="translate(460.411872 172.327516) scale(0.095 -0.095)">
     <use xlink:href="#DejaVuSans-35"/>
     <use xlink:href="#DejaVuSans-4b" transform="translate(63.623047 0)"/>
     <use xlink:href="#DejaVuSans-2b" transform="translate(129.199219 0)"/>
    </g>
   </g>
   <g id="text_19">
    <!-- N/A -->
    <g style="fill: #374151" transform="translate(462.126325 196.087516) scale(0.095 -0.095)">
     <use xlink:href="#DejaVuSans-4e"/>
     <use xlink:href="#DejaVuSans-2f" transform="translate(74.804688 0)"/>
     <use xlink:href="#DejaVuSans-41" transform="translate(108.496094 0)"/>
    </g>
   </g>
   <g id="text_20">
    <!-- ~800 -->
    <g style="fill: #0d9488" transform="translate(456.634137 219.847516) scale(0.095 -0.095)">
     <defs>
      <path id="DejaVuSans-Bold-7e" d="M 4684 2656 
L 4684 1894 
Q 4353 1644 4073 1536 
Q 3794 1428 3494 1428 
Q 3159 1428 2713 1609 
Q 2669 1628 2644 1638 
Q 2622 1647 2575 1666 
Q 2091 1856 1797 1856 
Q 1522 1856 1253 1736 
Q 984 1616 678 1356 
L 678 2119 
Q 1013 2369 1291 2476 
Q 1569 2584 1869 2584 
Q 2203 2584 2650 2403 
Q 2697 2384 2719 2375 
Q 2741 2366 2788 2347 
Q 3272 2156 3566 2156 
Q 3834 2156 4098 2273 
Q 4363 2391 4684 2656 
z
" transform="scale(0.015625)"/>
      <path id="DejaVuSans-Bold-38" d="M 2228 2088 
Q 1891 2088 1709 1903 
Q 1528 1719 1528 1375 
Q 1528 1031 1709 848 
Q 1891 666 2228 666 
Q 2563 666 2741 848 
Q 2919 1031 2919 1375 
Q 2919 1722 2741 1905 
Q 2563 2088 2228 2088 
z
M 1350 2484 
Q 925 2613 709 2878 
Q 494 3144 494 3541 
Q 494 4131 934 4440 
Q 1375 4750 2228 4750 
Q 3075 4750 3515 4442 
Q 3956 4134 3956 3541 
Q 3956 3144 3739 2878 
Q 3522 2613 3097 2484 
Q 3572 2353 3814 2058 
Q 4056 1763 4056 1313 
Q 4056 619 3595 264 
Q 3134 -91 2228 -91 
Q 1319 -91 855 264 
Q 391 619 391 1313 
Q 391 1763 633 2058 
Q 875 2353 1350 2484 
z
M 1631 3419 
Q 1631 3141 1786 2991 
Q 1941 2841 2228 2841 
Q 2509 2841 2662 2991 
Q 2816 3141 2816 3419 
Q 2816 3697 2662 3845 
Q 2509 3994 2228 3994 
Q 1941 3994 1786 3844 
Q 1631 3694 1631 3419 
z
" transform="scale(0.015625)"/>
      <path id="DejaVuSans-Bold-30" d="M 2944 2338 
Q 2944 3213 2780 3570 
Q 2616 3928 2228 3928 
Q 1841 3928 1675 3570 
Q 1509 3213 1509 2338 
Q 1509 1453 1675 1090 
Q 1841 728 2228 728 
Q 2613 728 2778 1090 
Q 2944 1453 2944 2338 
z
M 4147 2328 
Q 4147 1169 3647 539 
Q 3147 -91 2228 -91 
Q 1306 -91 806 539 
Q 306 1169 306 2328 
Q 306 3491 806 4120 
Q 1306 4750 2228 4750 
Q 3147 4750 3647 4120 
Q 4147 3491 4147 2328 
z
" transform="scale(0.015625)"/>
     </defs>
     <use xlink:href="#DejaVuSans-Bold-7e"/>
     <use xlink:href="#DejaVuSans-Bold-38" transform="translate(83.789062 0)"/>
     <use xlink:href="#DejaVuSans-Bold-30" transform="translate(153.369141 0)"/>
     <use xlink:href="#DejaVuSans-Bold-30" transform="translate(222.949219 0)"/>
    </g>
   </g>
   <g id="text_21">
    <!-- Related Work Comparison -->
    <g transform="translate(69.416328 17.077969) scale(0.13 -0.13)">
     <defs>
      <path id="DejaVuSans-Bold-52" d="M 2297 2597 
Q 2675 2597 2839 2737 
Q 3003 2878 3003 3200 
Q 3003 3519 2839 3656 
Q 2675 3794 2297 3794 
L 1791 3794 
L 1791 2597 
L 2297 2597 
z
M 1791 1766 
L 1791 0 
L 588 0 
L 588 4666 
L 2425 4666 
Q 3347 4666 3776 4356 
Q 4206 4047 4206 3378 
Q 4206 2916 3982 2619 
Q 3759 2322 3309 2181 
Q 3556 2125 3751 1926 
Q 3947 1728 4147 1325 
L 4800 0 
L 3519 0 
L 2950 1159 
Q 2778 1509 2601 1637 
Q 2425 1766 2131 1766 
L 1791 1766 
z
" transform="scale(0.015625)"/>
      <path id="DejaVuSans-Bold-65" d="M 4031 1759 
L 4031 1441 
L 1416 1441 
Q 1456 1047 1700 850 
Q 1944 653 2381 653 
Q 2734 653 3104 758 
Q 3475 863 3866 1075 
L 3866 213 
Q 3469 63 3072 -14 
Q 2675 -91 2278 -91 
Q 1328 -91 801 392 
Q 275 875 275 1747 
Q 275 2603 792 3093 
Q 1309 3584 2216 3584 
Q 3041 3584 3536 3087 
Q 4031 2591 4031 1759 
z
M 2881 2131 
Q 2881 2450 2695 2645 
Q 2509 2841 2209 2841 
Q 1884 2841 1681 2658 
Q 1478 2475 1428 2131 
L 2881 2131 
z
" transform="scale(0.015625)"/>
      <path id="DejaVuSans-Bold-6c" d="M 538 4863 
L 1656 4863 
L 1656 0 
L 538 0 
L 538 4863 
z
" transform="scale(0.015625)"/>
      <path id="DejaVuSans-Bold-61" d="M 2106 1575 
Q 1756 1575 1579 1456 
Q 1403 1338 1403 1106 
Q 1403 894 1545 773 
Q 1688 653 1941 653 
Q 2256 653 2472 879 
Q 2688 1106 2688 1447 
L 2688 1575 
L 2106 1575 
z
M 3816 1997 
L 3816 0 
L 2688 0 
L 2688 519 
Q 2463 200 2181 54 
Q 1900 -91 1497 -91 
Q 953 -91 614 226 
Q 275 544 275 1050 
Q 275 1666 698 1953 
Q 1122 2241 2028 2241 
L 2688 2241 
L 2688 2328 
Q 2688 2594 2478 2717 
Q 2269 2841 1825 2841 
Q 1466 2841 1156 2769 
Q 847 2697 581 2553 
L 581 3406 
Q 941 3494 1303 3539 
Q 1666 3584 2028 3584 
Q 2975 3584 3395 3211 
Q 3816 2838 3816 1997 
z
" transform="scale(0.015625)"/>
      <path id="DejaVuSans-Bold-74" d="M 1759 4494 
L 1759 3500 
L 2913 3500 
L 2913 2700 
L 1759 2700 
L 1759 1216 
Q 1759 972 1856 886 
Q 1953 800 2241 800 
L 2816 800 
L 2816 0 
L 1856 0 
Q 1194 0 917 276 
Q 641 553 641 1216 
L 641 2700 
L 84 2700 
L 84 3500 
L 641 3500 
L 641 4494 
L 1759 4494 
z
" transform="scale(0.015625)"/>
      <path id="DejaVuSans-Bold-64" d="M 2919 2988 
L 2919 4863 
L 4044 4863 
L 4044 0 
L 2919 0 
L 2919 506 
Q 2688 197 2409 53 
Q 2131 -91 1766 -91 
Q 1119 -91 703 423 
Q 288 938 288 1747 
Q 288 2556 703 3070 
Q 1119 3584 1766 3584 
Q 2128 3584 2408 3439 
Q 2688 3294 2919 2988 
z
M 2181 722 
Q 2541 722 2730 984 
Q 2919 1247 2919 1747 
Q 2919 2247 2730 2509 
Q 2541 2772 2181 2772 
Q 1825 2772 1636 2509 
Q 1447 2247 1447 1747 
Q 1447 1247 1636 984 
Q 1825 722 2181 722 
z
" transform="scale(0.015625)"/>
      <path id="DejaVuSans-Bold-43" d="M 4288 256 
Q 3956 84 3597 -3 
Q 3238 -91 2847 -91 
Q 1681 -91 1000 561 
Q 319 1213 319 2328 
Q 319 3447 1000 4098 
Q 1681 4750 2847 4750 
Q 3238 4750 3597 4662 
Q 3956 4575 4288 4403 
L 4288 3438 
Q 3953 3666 3628 3772 
Q 3303 3878 2944 3878 
Q 2300 3878 1931 3465 
Q 1563 3053 1563 2328 
Q 1563 1606 1931 1193 
Q 2300 781 2944 781 
Q 3303 781 3628 887 
Q 3953 994 4288 1222 
L 4288 256 
z
" transform="scale(0.015625)"/>
      <path id="DejaVuSans-Bold-6d" d="M 3781 2919 
Q 3994 3244 4286 3414 
Q 4578 3584 4928 3584 
Q 5531 3584 5847 3212 
Q 6163 2841 6163 2131 
L 6163 0 
L 5038 0 
L 5038 1825 
Q 5041 1866 5042 1909 
Q 5044 1953 5044 2034 
Q 5044 2406 4934 2573 
Q 4825 2741 4581 2741 
Q 4263 2741 4089 2478 
Q 3916 2216 3909 1719 
L 3909 0 
L 2784 0 
L 2784 1825 
Q 2784 2406 2684 2573 
Q 2584 2741 2328 2741 
Q 2006 2741 1831 2477 
Q 1656 2213 1656 1722 
L 1656 0 
L 531 0 
L 531 3500 
L 1656 3500 
L 1656 2988 
Q 1863 3284 2130 3434 
Q 2397 3584 2719 3584 
Q 3081 3584 3359 3409 
Q 3638 3234 3781 2919 
z
" transform="scale(0.015625)"/>
      <path id="DejaVuSans-Bold-70" d="M 1656 506 
L 1656 -1331 
L 538 -1331 
L 538 3500 
L 1656 3500 
L 1656 2988 
Q 1888 3294 2169 3439 
Q 2450 3584 2816 3584 
Q 3463 3584 3878 3070 
Q 4294 2556 4294 1747 
Q 4294 938 3878 423 
Q 3463 -91 2816 -91 
Q 2450 -91 2169 54 
Q 1888 200 1656 506 
z
M 2400 2772 
Q 2041 2772 1848 2508 
Q 1656 2244 1656 1747 
Q 1656 1250 1848 986 
Q 2041 722 2400 722 
Q 2759 722 2948 984 
Q 3138 1247 3138 1747 
Q 3138 2247 2948 2509 
Q 2759 2772 2400 2772 
z
" transform="scale(0.015625)"/>
      <path id="DejaVuSans-Bold-6e" d="M 4056 2131 
L 4056 0 
L 2931 0 
L 2931 347 
L 2931 1631 
Q 2931 2084 2911 2256 
Q 2891 2428 2841 2509 
Q 2775 2619 2662 2680 
Q 2550 2741 2406 2741 
Q 2056 2741 1856 2470 
Q 1656 2200 1656 1722 
L 1656 0 
L 538 0 
L 538 3500 
L 1656 3500 
L 1656 2988 
Q 1909 3294 2193 3439 
Q 2478 3584 2822 3584 
Q 3428 3584 3742 3212 
Q 4056 2841 4056 2131 
z
" transform="scale(0.015625)"/>
     </defs>
     <use xlink:href="#DejaVuSans-Bold-52"/>
     <use xlink:href="#DejaVuSans-Bold-65" transform="translate(77.001953 0)"/>
     <use xlink:href="#DejaVuSans-Bold-6c" transform="translate(144.824219 0)"/>
     <use xlink:href="#DejaVuSans-Bold-61" transform="translate(179.101562 0)"/>
     <use xlink:href="#DejaVuSans-Bold-74" transform="translate(246.582031 0)"/>
     <use xlink:href="#DejaVuSans-Bold-65" transform="translate(294.384766 0)"/>
     <use xlink:href="#DejaVuSans-Bold-64" transform="translate(362.207031 0)"/>
     <use xlink:href="#DejaVuSans-Bold-20" transform="translate(433.789062 0)"/>
     <use xlink:href="#DejaVuSans-Bold-57" transform="translate(468.603516 0)"/>
     <use xlink:href="#DejaVuSans-Bold-6f" transform="translate(575.28125 0)"/>
     <use xlink:href="#DejaVuSans-Bold-72" transform="translate(643.982422 0)"/>
     <use xlink:href="#DejaVuSans-Bold-6b" transform="translate(693.298828 0)"/>
     <use xlink:href="#DejaVuSans-Bold-20" transform="translate(759.802734 0)"/>
     <use xlink:href="#DejaVuSans-Bold-43" transform="translate(794.617188 0)"/>
     <use xlink:href="#DejaVuSans-Bold-6f" transform="translate(868.005859 0)"/>
     <use xlink:href="#DejaVuSans-Bold-6d" transform="translate(936.707031 0)"/>
     <use xlink:href="#DejaVuSans-Bold-70" transform="translate(1040.90625 0)"/>
     <use xlink:href="#DejaVuSans-Bold-61" transform="translate(1112.488281 0)"/>
     <use xlink:href="#DejaVuSans-Bold-72" transform="translate(1179.96875 0)"/>
     <use xlink:href="#DejaVuSans-Bold-69" transform="translate(1229.285156 0)"/>
     <use xlink:href="#DejaVuSans-Bold-73" transform="translate(1263.5625 0)"/>
     <use xlink:href="#DejaVuSans-Bold-6f" transform="translate(1323.083984 0)"/>
     <use xlink:href="#DejaVuSans-Bold-6e" transform="translate(1391.785156 0)"/>
    </g>
   </g>
   <g id="legend_1">
    <g id="patch_43">
     <path d="M 349.072891 222.480109 
L 509.866328 222.480109 
Q 511.566328 222.480109 511.566328 220.780109 
L 511.566328 209.153703 
Q 511.566328 207.453703 509.866328 207.453703 
L 349.072891 207.453703 
Q 347.372891 207.453703 347.372891 209.153703 
L 347.372891 220.780109 
Q 347.372891 222.480109 349.072891 222.480109 
z
" style="fill: #ffffff; opacity: 0.9; stroke: #e5e7eb; stroke-linejoin: miter"/>
    </g>
    <g id="line2d_20">
     <path d="M 350.772891 214.337375 
L 359.272891 214.337375 
L 367.772891 214.337375 
" style="fill: none; stroke: #ffffff; stroke-width: 1.5; stroke-linecap: square"/>
     <defs>
      <path id="m35919cd1d1" d="M 0 5 
C 1.326016 5 2.597899 4.473168 3.535534 3.535534 
C 4.473168 2.597899 5 1.326016 5 0 
C 5 -1.326016 4.473168 -2.597899 3.535534 -3.535534 
C 2.597899 -4.473168 1.326016 -5 0 -5 
C -1.326016 -5 -2.597899 -4.473168 -3.535534 -3.535534 
C -4.473168 -2.597899 -5 -1.326016 -5 0 
C -5 1.326016 -4.473168 2.597899 -3.535534 3.535534 
C -2.597899 4.473168 -1.326016 5 0 5 
z
" style="stroke: #15803d"/>
     </defs>
     <g>
      <use xlink:href="#m35919cd1d1" x="359.272891" y="214.337375" style="fill: #16a34a; stroke: #15803d"/>
     </g>
    </g>
    <g id="text_22">
     <!-- Yes -->
     <g transform="translate(374.572891 217.312375) scale(0.085 -0.085)">
      <defs>
       <path id="DejaVuSans-59" d="M -13 4666 
L 666 4666 
L 1959 2747 
L 3244 4666 
L 3922 4666 
L 2272 2222 
L 2272 0 
L 1638 0 
L 1638 2222 
L -13 4666 
z
" transform="scale(0.015625)"/>
      </defs>
      <use xlink:href="#DejaVuSans-59"/>
      <use xlink:href="#DejaVuSans-65" transform="translate(47.833984 0)"/>
      <use xlink:href="#DejaVuSans-73" transform="translate(109.357422 0)"/>
     </g>
    </g>
    <g id="line2d_21">
     <path d="M 405.296406 214.337375 
L 413.796406 214.337375 
L 422.296406 214.337375 
" style="fill: none; stroke: #ffffff; stroke-width: 1.5; stroke-linecap: square"/>
     <defs>
      <path id="mdc8829654c" d="M 0 5 
C 1.326016 5 2.597899 4.473168 3.535534 3.535534 
C 4.473168 2.597899 5 1.326016 5 0 
C 5 -1.326016 4.473168 -2.597899 3.535534 -3.535534 
C 2.597899 -4.473168 1.326016 -5 0 -5 
C -1.326016 -5 -2.597899 -4.473168 -3.535534 -3.535534 
C -4.473168 -2.597899 -5 -1.326016 -5 0 
C -5 1.326016 -4.473168 2.597899 -3.535534 3.535534 
C -2.597899 4.473168 -1.326016 5 0 5 
z
" style="stroke: #d97706"/>
     </defs>
     <g>
      <use xlink:href="#mdc8829654c" x="413.796406" y="214.337375" style="fill: #f59e0b; stroke: #d97706"/>
     </g>
    </g>
    <g id="text_23">
     <!-- Partial -->
     <g transform="translate(429.096406 217.312375) scale(0.085 -0.085)">
      <use xlink:href="#DejaVuSans-50"/>
      <use xlink:href="#DejaVuSans-61" transform="translate(55.802734 0)"/>
      <use xlink:href="#DejaVuSans-72" transform="translate(117.082031 0)"/>
      <use xlink:href="#DejaVuSans-74" transform="translate(158.195312 0)"/>
      <use xlink:href="#DejaVuSans-69" transform="translate(197.404297 0)"/>
      <use xlink:href="#DejaVuSans-61" transform="translate(225.1875 0)"/>
      <use xlink:href="#DejaVuSans-6c" transform="translate(286.466797 0)"/>
     </g>
    </g>
    <g id="line2d_22">
     <path d="M 472.806328 214.337375 
L 481.306328 214.337375 
L 489.806328 214.337375 
" style="fill: none; stroke: #ffffff; stroke-width: 1.5; stroke-linecap: square"/>
     <defs>
      <path id="md9de9e3dde" d="M 0 5 
C 1.326016 5 2.597899 4.473168 3.535534 3.535534 
C 4.473168 2.597899 5 1.326016 5 0 
C 5 -1.326016 4.473168 -2.597899 3.535534 -3.535534 
C 2.597899 -4.473168 1.326016 -5 0 -5 
C -1.326016 -5 -2.597899 -4.473168 -3.535534 -3.535534 
C -4.473168 -2.597899 -5 -1.326016 -5 0 
C -5 1.326016 -4.473168 2.597899 -3.535534 3.535534 
C -2.597899 4.473168 -1.326016 5 0 5 
z
" style="stroke: #9ca3af"/>
     </defs>
     <g>
      <use xlink:href="#md9de9e3dde" x="481.306328" y="214.337375" style="fill: #ffffff; stroke: #9ca3af"/>
     </g>
    </g>
    <g id="text_24">
     <!-- No -->
     <g transform="translate(496.606328 217.312375) scale(0.085 -0.085)">
      <use xlink:href="#DejaVuSans-4e"/>
      <use xlink:href="#DejaVuSans-6f" transform="translate(74.804688 0)"/>
     </g>
    </g>
   </g>
  </g>
 </g>
 <defs>
  <clipPath id="p8c52bf6459">
   <rect x="69.416328" y="60.410109" width="446.4" height="166.32"/>
  </clipPath>
 </defs>
</svg>
