<?xml version="1.0" encoding="utf-8" standalone="no"?>
<!DOCTYPE svg PUBLIC "-//W3C//DTD SVG 1.1//EN"
  "http://www.w3.org/Graphics/SVG/1.1/DTD/svg11.dtd">
<svg xmlns:xlink="http://www.w3.org/1999/xlink" width="654.357031pt" height="301.935937pt" viewBox="0 0 654.357031 301.935937" xmlns="http://www.w3.org/2000/svg" version="1.1">
 <metadata>
  <rdf:RDF xmlns:dc="http://purl.org/dc/elements/1.1/" xmlns:cc="http://creativecommons.org/ns#" xmlns:rdf="http://www.w3.org/1999/02/22-rdf-syntax-ns#">
   <cc:Work>
    <dc:type rdf:resource="http://purl.org/dc/dcmitype/StillImage"/>
    <dc:date>2026-04-14T12:55:12.535534</dc:date>
    <dc:format>image/svg+xml</dc:format>
    <dc:creator>
     <cc:Agent>
      <dc:title>Matplotlib v3.10.8, https://matplotlib.org/</dc:title>
     </cc:Agent>
    </dc:creator>
   </cc:Work>
  </rdf:RDF>
 </metadata>
 <defs>
  <style type="text/css">*{stroke-linejoin: round; stroke-linecap: butt}</style>
 </defs>
 <g id="figure_1">
  <g id="patch_1">
   <path d="M 0 301.935937 
L 654.357031 301.935937 
L 654.357031 0 
L 0 0 
z
" style="fill: #ffffff"/>
  </g>
  <g id="axes_1">
   <g id="patch_2">
    <path d="M 76.286875 256.637187 
L 522.686875 256.637187 
L 522.686875 34.877187 
L 76.286875 34.877187 
z
" style="fill: #ffffff"/>
   </g>
   <g id="matplotlib.axis_1">
    <g id="xtick_1">
     <g id="line2d_1">
      <path d="M 80.706677 256.637187 
L 80.706677 34.877187 
" clip-path="url(#pf2add9b813)" style="fill: none; stroke: #d1d5db; stroke-opacity: 0.3; stroke-width: 0.2; stroke-linecap: square"/>
     </g>
     <g id="line2d_2">
      <defs>
       <path id="m82f90b2888" d="M 0 0 
L 0 3.5 
" style="stroke: #000000; stroke-width: 0.8"/>
      </defs>
      <g>
       <use xlink:href="#m82f90b2888" x="80.706677" y="256.637187" style="stroke: #000000; stroke-width: 0.8"/>
      </g>
     </g>
     <g id="text_1">
      <!-- 0 -->
      <g transform="translate(76.252927 274.275) scale(0.14 -0.14)">
       <defs>
        <path id="DejaVuSans-30" d="M 2034 4250 
Q 1547 4250 1301 3770 
Q 1056 3291 1056 2328 
Q 1056 1369 1301 889 
Q 1547 409 2034 409 
Q 2525 409 2770 889 
Q 3016 1369 3016 2328 
Q 3016 3291 2770 3770 
Q 2525 4250 2034 4250 
z
M 2034 4750 
Q 2819 4750 3233 4129 
Q 3647 3509 3647 2328 
Q 3647 1150 3233 529 
Q 2819 -91 2034 -91 
Q 1250 -91 836 529 
Q 422 1150 422 2328 
Q 422 3509 836 4129 
Q 1250 4750 2034 4750 
z
" transform="scale(0.015625)"/>
       </defs>
       <use xlink:href="#DejaVuSans-30"/>
      </g>
     </g>
    </g>
    <g id="xtick_2">
     <g id="line2d_3">
      <path d="M 169.102717 256.637187 
L 169.102717 34.877187 
" clip-path="url(#pf2add9b813)" style="fill: none; stroke: #d1d5db; stroke-opacity: 0.3; stroke-width: 0.2; stroke-linecap: square"/>
     </g>
     <g id="line2d_4">
      <g>
       <use xlink:href="#m82f90b2888" x="169.102717" y="256.637187" style="stroke: #000000; stroke-width: 0.8"/>
      </g>
     </g>
     <g id="text_2">
      <!-- 20 -->
      <g transform="translate(160.195217 274.275) scale(0.14 -0.14)">
       <defs>
        <path id="DejaVuSans-32" d="M 1228 531 
L 3431 531 
L 3431 0 
L 469 0 
L 469 531 
Q 828 903 1448 1529 
Q 2069 2156 2228 2338 
Q 2531 2678 2651 2914 
Q 2772 3150 2772 3378 
Q 2772 3750 2511 3984 
Q 2250 4219 1831 4219 
Q 1534 4219 1204 4116 
Q 875 4013 500 3803 
L 500 4441 
Q 881 4594 1212 4672 
Q 1544 4750 1819 4750 
Q 2544 4750 2975 4387 
Q 3406 4025 3406 3419 
Q 3406 3131 3298 2873 
Q 3191 2616 2906 2266 
Q 2828 2175 2409 1742 
Q 1991 1309 1228 531 
z
" transform="scale(0.015625)"/>
       </defs>
       <use xlink:href="#DejaVuSans-32"/>
       <use xlink:href="#DejaVuSans-30" transform="translate(63.623047 0)"/>
      </g>
     </g>
    </g>
    <g id="xtick_3">
     <g id="line2d_5">
      <path d="M 257.498756 256.637187 
L 257.498756 34.877187 
" clip-path="url(#pf2add9b813)" style="fill: none; stroke: #d1d5db; stroke-opacity: 0.3; stroke-width: 0.2; stroke-linecap: square"/>
     </g>
     <g id="line2d_6">
      <g>
       <use xlink:href="#m82f90b2888" x="257.498756" y="256.637187" style="stroke: #000000; stroke-width: 0.8"/>
      </g>
     </g>
     <g id="text_3">
      <!-- 40 -->
      <g transform="translate(248.591256 274.275) scale(0.14 -0.14)">
       <defs>
        <path id="DejaVuSans-34" d="M 2419 4116 
L 825 1625 
L 2419 1625 
L 2419 4116 
z
M 2253 4666 
L 3047 4666 
L 3047 1625 
L 3713 1625 
L 3713 1100 
L 3047 1100 
L 3047 0 
L 2419 0 
L 2419 1100 
L 313 1100 
L 313 1709 
L 2253 4666 
z
" transform="scale(0.015625)"/>
       </defs>
       <use xlink:href="#DejaVuSans-34"/>
       <use xlink:href="#DejaVuSans-30" transform="translate(63.623047 0)"/>
      </g>
     </g>
    </g>
    <g id="xtick_4">
     <g id="line2d_7">
      <path d="M 345.894796 256.637187 
L 345.894796 34.877187 
" clip-path="url(#pf2add9b813)" style="fill: none; stroke: #d1d5db; stroke-opacity: 0.3; stroke-width: 0.2; stroke-linecap: square"/>
     </g>
     <g id="line2d_8">
      <g>
       <use xlink:href="#m82f90b2888" x="345.894796" y="256.637187" style="stroke: #000000; stroke-width: 0.8"/>
      </g>
     </g>
     <g id="text_4">
      <!-- 60 -->
      <g transform="translate(336.987296 274.275) scale(0.14 -0.14)">
       <defs>
        <path id="DejaVuSans-36" d="M 2113 2584 
Q 1688 2584 1439 2293 
Q 1191 2003 1191 1497 
Q 1191 994 1439 701 
Q 1688 409 2113 409 
Q 2538 409 2786 701 
Q 3034 994 3034 1497 
Q 3034 2003 2786 2293 
Q 2538 2584 2113 2584 
z
M 3366 4563 
L 3366 3988 
Q 3128 4100 2886 4159 
Q 2644 4219 2406 4219 
Q 1781 4219 1451 3797 
Q 1122 3375 1075 2522 
Q 1259 2794 1537 2939 
Q 1816 3084 2150 3084 
Q 2853 3084 3261 2657 
Q 3669 2231 3669 1497 
Q 3669 778 3244 343 
Q 2819 -91 2113 -91 
Q 1303 -91 875 529 
Q 447 1150 447 2328 
Q 447 3434 972 4092 
Q 1497 4750 2381 4750 
Q 2619 4750 2861 4703 
Q 3103 4656 3366 4563 
z
" transform="scale(0.015625)"/>
       </defs>
       <use xlink:href="#DejaVuSans-36"/>
       <use xlink:href="#DejaVuSans-30" transform="translate(63.623047 0)"/>
      </g>
     </g>
    </g>
    <g id="xtick_5">
     <g id="line2d_9">
      <path d="M 434.290835 256.637187 
L 434.290835 34.877187 
" clip-path="url(#pf2add9b813)" style="fill: none; stroke: #d1d5db; stroke-opacity: 0.3; stroke-width: 0.2; stroke-linecap: square"/>
     </g>
     <g id="line2d_10">
      <g>
       <use xlink:href="#m82f90b2888" x="434.290835" y="256.637187" style="stroke: #000000; stroke-width: 0.8"/>
      </g>
     </g>
     <g id="text_5">
      <!-- 80 -->
      <g transform="translate(425.383335 274.275) scale(0.14 -0.14)">
       <defs>
        <path id="DejaVuSans-38" d="M 2034 2216 
Q 1584 2216 1326 1975 
Q 1069 1734 1069 1313 
Q 1069 891 1326 650 
Q 1584 409 2034 409 
Q 2484 409 2743 651 
Q 3003 894 3003 1313 
Q 3003 1734 2745 1975 
Q 2488 2216 2034 2216 
z
M 1403 2484 
Q 997 2584 770 2862 
Q 544 3141 544 3541 
Q 544 4100 942 4425 
Q 1341 4750 2034 4750 
Q 2731 4750 3128 4425 
Q 3525 4100 3525 3541 
Q 3525 3141 3298 2862 
Q 3072 2584 2669 2484 
Q 3125 2378 3379 2068 
Q 3634 1759 3634 1313 
Q 3634 634 3220 271 
Q 2806 -91 2034 -91 
Q 1263 -91 848 271 
Q 434 634 434 1313 
Q 434 1759 690 2068 
Q 947 2378 1403 2484 
z
M 1172 3481 
Q 1172 3119 1398 2916 
Q 1625 2713 2034 2713 
Q 2441 2713 2670 2916 
Q 2900 3119 2900 3481 
Q 2900 3844 2670 4047 
Q 2441 4250 2034 4250 
Q 1625 4250 1398 4047 
Q 1172 3844 1172 3481 
z
" transform="scale(0.015625)"/>
       </defs>
       <use xlink:href="#DejaVuSans-38"/>
       <use xlink:href="#DejaVuSans-30" transform="translate(63.623047 0)"/>
      </g>
     </g>
    </g>
    <g id="xtick_6">
     <g id="line2d_11">
      <path d="M 522.686875 256.637187 
L 522.686875 34.877187 
" clip-path="url(#pf2add9b813)" style="fill: none; stroke: #d1d5db; stroke-opacity: 0.3; stroke-width: 0.2; stroke-linecap: square"/>
     </g>
     <g id="line2d_12">
      <g>
       <use xlink:href="#m82f90b2888" x="522.686875" y="256.637187" style="stroke: #000000; stroke-width: 0.8"/>
      </g>
     </g>
     <g id="text_6">
      <!-- 100 -->
      <g transform="translate(509.325625 274.275) scale(0.14 -0.14)">
       <defs>
        <path id="DejaVuSans-31" d="M 794 531 
L 1825 531 
L 1825 4091 
L 703 3866 
L 703 4441 
L 1819 4666 
L 2450 4666 
L 2450 531 
L 3481 531 
L 3481 0 
L 794 0 
L 794 531 
z
" transform="scale(0.015625)"/>
       </defs>
       <use xlink:href="#DejaVuSans-31"/>
       <use xlink:href="#DejaVuSans-30" transform="translate(63.623047 0)"/>
       <use xlink:href="#DejaVuSans-30" transform="translate(127.246094 0)"/>
      </g>
     </g>
    </g>
    <g id="text_7">
     <!-- Dispatch Iteration -->
     <g transform="translate(236.825938 291.824375) scale(0.14 -0.14)">
      <defs>
       <path id="DejaVuSans-44" d="M 1259 4147 
L 1259 519 
L 2022 519 
Q 2988 519 3436 956 
Q 3884 1394 3884 2338 
Q 3884 3275 3436 3711 
Q 2988 4147 2022 4147 
L 1259 4147 
z
M 628 4666 
L 1925 4666 
Q 3281 4666 3915 4102 
Q 4550 3538 4550 2338 
Q 4550 1131 3912 565 
Q 3275 0 1925 0 
L 628 0 
L 628 4666 
z
" transform="scale(0.015625)"/>
       <path id="DejaVuSans-69" d="M 603 3500 
L 1178 3500 
L 1178 0 
L 603 0 
L 603 3500 
z
M 603 4863 
L 1178 4863 
L 1178 4134 
L 603 4134 
L 603 4863 
z
" transform="scale(0.015625)"/>
       <path id="DejaVuSans-73" d="M 2834 3397 
L 2834 2853 
Q 2591 2978 2328 3040 
Q 2066 3103 1784 3103 
Q 1356 3103 1142 2972 
Q 928 2841 928 2578 
Q 928 2378 1081 2264 
Q 1234 2150 1697 2047 
L 1894 2003 
Q 2506 1872 2764 1633 
Q 3022 1394 3022 966 
Q 3022 478 2636 193 
Q 2250 -91 1575 -91 
Q 1294 -91 989 -36 
Q 684 19 347 128 
L 347 722 
Q 666 556 975 473 
Q 1284 391 1588 391 
Q 1994 391 2212 530 
Q 2431 669 2431 922 
Q 2431 1156 2273 1281 
Q 2116 1406 1581 1522 
L 1381 1569 
Q 847 1681 609 1914 
Q 372 2147 372 2553 
Q 372 3047 722 3315 
Q 1072 3584 1716 3584 
Q 2034 3584 2315 3537 
Q 2597 3491 2834 3397 
z
" transform="scale(0.015625)"/>
       <path id="DejaVuSans-70" d="M 1159 525 
L 1159 -1331 
L 581 -1331 
L 581 3500 
L 1159 3500 
L 1159 2969 
Q 1341 3281 1617 3432 
Q 1894 3584 2278 3584 
Q 2916 3584 3314 3078 
Q 3713 2572 3713 1747 
Q 3713 922 3314 415 
Q 2916 -91 2278 -91 
Q 1894 -91 1617 61 
Q 1341 213 1159 525 
z
M 3116 1747 
Q 3116 2381 2855 2742 
Q 2594 3103 2138 3103 
Q 1681 3103 1420 2742 
Q 1159 2381 1159 1747 
Q 1159 1113 1420 752 
Q 1681 391 2138 391 
Q 2594 391 2855 752 
Q 3116 1113 3116 1747 
z
" transform="scale(0.015625)"/>
       <path id="DejaVuSans-61" d="M 2194 1759 
Q 1497 1759 1228 1600 
Q 959 1441 959 1056 
Q 959 750 1161 570 
Q 1363 391 1709 391 
Q 2188 391 2477 730 
Q 2766 1069 2766 1631 
L 2766 1759 
L 2194 1759 
z
M 3341 1997 
L 3341 0 
L 2766 0 
L 2766 531 
Q 2569 213 2275 61 
Q 1981 -91 1556 -91 
Q 1019 -91 701 211 
Q 384 513 384 1019 
Q 384 1609 779 1909 
Q 1175 2209 1959 2209 
L 2766 2209 
L 2766 2266 
Q 2766 2663 2505 2880 
Q 2244 3097 1772 3097 
Q 1472 3097 1187 3025 
Q 903 2953 641 2809 
L 641 3341 
Q 956 3463 1253 3523 
Q 1550 3584 1831 3584 
Q 2591 3584 2966 3190 
Q 3341 2797 3341 1997 
z
" transform="scale(0.015625)"/>
       <path id="DejaVuSans-74" d="M 1172 4494 
L 1172 3500 
L 2356 3500 
L 2356 3053 
L 1172 3053 
L 1172 1153 
Q 1172 725 1289 603 
Q 1406 481 1766 481 
L 2356 481 
L 2356 0 
L 1766 0 
Q 1100 0 847 248 
Q 594 497 594 1153 
L 594 3053 
L 172 3053 
L 172 3500 
L 594 3500 
L 594 4494 
L 1172 4494 
z
" transform="scale(0.015625)"/>
       <path id="DejaVuSans-63" d="M 3122 3366 
L 3122 2828 
Q 2878 2963 2633 3030 
Q 2388 3097 2138 3097 
Q 1578 3097 1268 2742 
Q 959 2388 959 1747 
Q 959 1106 1268 751 
Q 1578 397 2138 397 
Q 2388 397 2633 464 
Q 2878 531 3122 666 
L 3122 134 
Q 2881 22 2623 -34 
Q 2366 -91 2075 -91 
Q 1284 -91 818 406 
Q 353 903 353 1747 
Q 353 2603 823 3093 
Q 1294 3584 2113 3584 
Q 2378 3584 2631 3529 
Q 2884 3475 3122 3366 
z
" transform="scale(0.015625)"/>
       <path id="DejaVuSans-68" d="M 3513 2113 
L 3513 0 
L 2938 0 
L 2938 2094 
Q 2938 2591 2744 2837 
Q 2550 3084 2163 3084 
Q 1697 3084 1428 2787 
Q 1159 2491 1159 1978 
L 1159 0 
L 581 0 
L 581 4863 
L 1159 4863 
L 1159 2956 
Q 1366 3272 1645 3428 
Q 1925 3584 2291 3584 
Q 2894 3584 3203 3211 
Q 3513 2838 3513 2113 
z
" transform="scale(0.015625)"/>
       <path id="DejaVuSans-20" transform="scale(0.015625)"/>
       <path id="DejaVuSans-49" d="M 628 4666 
L 1259 4666 
L 1259 0 
L 628 0 
L 628 4666 
z
" transform="scale(0.015625)"/>
       <path id="DejaVuSans-65" d="M 3597 1894 
L 3597 1613 
L 953 1613 
Q 991 1019 1311 708 
Q 1631 397 2203 397 
Q 2534 397 2845 478 
Q 3156 559 3463 722 
L 3463 178 
Q 3153 47 2828 -22 
Q 2503 -91 2169 -91 
Q 1331 -91 842 396 
Q 353 884 353 1716 
Q 353 2575 817 3079 
Q 1281 3584 2069 3584 
Q 2775 3584 3186 3129 
Q 3597 2675 3597 1894 
z
M 3022 2063 
Q 3016 2534 2758 2815 
Q 2500 3097 2075 3097 
Q 1594 3097 1305 2825 
Q 1016 2553 972 2059 
L 3022 2063 
z
" transform="scale(0.015625)"/>
       <path id="DejaVuSans-72" d="M 2631 2963 
Q 2534 3019 2420 3045 
Q 2306 3072 2169 3072 
Q 1681 3072 1420 2755 
Q 1159 2438 1159 1844 
L 1159 0 
L 581 0 
L 581 3500 
L 1159 3500 
L 1159 2956 
Q 1341 3275 1631 3429 
Q 1922 3584 2338 3584 
Q 2397 3584 2469 3576 
Q 2541 3569 2628 3553 
L 2631 2963 
z
" transform="scale(0.015625)"/>
       <path id="DejaVuSans-6f" d="M 1959 3097 
Q 1497 3097 1228 2736 
Q 959 2375 959 1747 
Q 959 1119 1226 758 
Q 1494 397 1959 397 
Q 2419 397 2687 759 
Q 2956 1122 2956 1747 
Q 2956 2369 2687 2733 
Q 2419 3097 1959 3097 
z
M 1959 3584 
Q 2709 3584 3137 3096 
Q 3566 2609 3566 1747 
Q 3566 888 3137 398 
Q 2709 -91 1959 -91 
Q 1206 -91 779 398 
Q 353 888 353 1747 
Q 353 2609 779 3096 
Q 1206 3584 1959 3584 
z
" transform="scale(0.015625)"/>
       <path id="DejaVuSans-6e" d="M 3513 2113 
L 3513 0 
L 2938 0 
L 2938 2094 
Q 2938 2591 2744 2837 
Q 2550 3084 2163 3084 
Q 1697 3084 1428 2787 
Q 1159 2491 1159 1978 
L 1159 0 
L 581 0 
L 581 3500 
L 1159 3500 
L 1159 2956 
Q 1366 3272 1645 3428 
Q 1925 3584 2291 3584 
Q 2894 3584 3203 3211 
Q 3513 2838 3513 2113 
z
" transform="scale(0.015625)"/>
      </defs>
      <use xlink:href="#DejaVuSans-44"/>
      <use xlink:href="#DejaVuSans-69" transform="translate(77.001953 0)"/>
      <use xlink:href="#DejaVuSans-73" transform="translate(104.785156 0)"/>
      <use xlink:href="#DejaVuSans-70" transform="translate(156.884766 0)"/>
      <use xlink:href="#DejaVuSans-61" transform="translate(220.361328 0)"/>
      <use xlink:href="#DejaVuSans-74" transform="translate(281.640625 0)"/>
      <use xlink:href="#DejaVuSans-63" transform="translate(320.849609 0)"/>
      <use xlink:href="#DejaVuSans-68" transform="translate(375.830078 0)"/>
      <use xlink:href="#DejaVuSans-20" transform="translate(439.208984 0)"/>
      <use xlink:href="#DejaVuSans-49" transform="translate(470.996094 0)"/>
      <use xlink:href="#DejaVuSans-74" transform="translate(500.488281 0)"/>
      <use xlink:href="#DejaVuSans-65" transform="translate(539.697266 0)"/>
      <use xlink:href="#DejaVuSans-72" transform="translate(601.220703 0)"/>
      <use xlink:href="#DejaVuSans-61" transform="translate(642.333984 0)"/>
      <use xlink:href="#DejaVuSans-74" transform="translate(703.613281 0)"/>
      <use xlink:href="#DejaVuSans-69" transform="translate(742.822266 0)"/>
      <use xlink:href="#DejaVuSans-6f" transform="translate(770.605469 0)"/>
      <use xlink:href="#DejaVuSans-6e" transform="translate(831.787109 0)"/>
     </g>
    </g>
   </g>
   <g id="matplotlib.axis_2">
    <g id="ytick_1">
     <g id="line2d_13">
      <path d="M 76.286875 256.637187 
L 522.686875 256.637187 
" clip-path="url(#pf2add9b813)" style="fill: none; stroke: #d1d5db; stroke-opacity: 0.4; stroke-width: 0.3; stroke-linecap: square"/>
     </g>
     <g id="line2d_14">
      <defs>
       <path id="m8cbe20e606" d="M 0 0 
L -3.5 0 
" style="stroke: #000000; stroke-width: 0.8"/>
      </defs>
      <g>
       <use xlink:href="#m8cbe20e606" x="76.286875" y="256.637187" style="stroke: #000000; stroke-width: 0.8"/>
      </g>
     </g>
     <g id="text_8">
      <!-- 0 -->
      <g transform="translate(60.379375 261.956094) scale(0.14 -0.14)">
       <use xlink:href="#DejaVuSans-30"/>
      </g>
     </g>
    </g>
    <g id="ytick_2">
     <g id="line2d_15">
      <path d="M 76.286875 208.428492 
L 522.686875 208.428492 
" clip-path="url(#pf2add9b813)" style="fill: none; stroke: #d1d5db; stroke-opacity: 0.4; stroke-width: 0.3; stroke-linecap: square"/>
     </g>
     <g id="line2d_16">
      <g>
       <use xlink:href="#m8cbe20e606" x="76.286875" y="208.428492" style="stroke: #000000; stroke-width: 0.8"/>
      </g>
     </g>
     <g id="text_9">
      <!-- 5000 -->
      <g transform="translate(33.656875 213.747398) scale(0.14 -0.14)">
       <defs>
        <path id="DejaVuSans-35" d="M 691 4666 
L 3169 4666 
L 3169 4134 
L 1269 4134 
L 1269 2991 
Q 1406 3038 1543 3061 
Q 1681 3084 1819 3084 
Q 2600 3084 3056 2656 
Q 3513 2228 3513 1497 
Q 3513 744 3044 326 
Q 2575 -91 1722 -91 
Q 1428 -91 1123 -41 
Q 819 9 494 109 
L 494 744 
Q 775 591 1075 516 
Q 1375 441 1709 441 
Q 2250 441 2565 725 
Q 2881 1009 2881 1497 
Q 2881 1984 2565 2268 
Q 2250 2553 1709 2553 
Q 1456 2553 1204 2497 
Q 953 2441 691 2322 
L 691 4666 
z
" transform="scale(0.015625)"/>
       </defs>
       <use xlink:href="#DejaVuSans-35"/>
       <use xlink:href="#DejaVuSans-30" transform="translate(63.623047 0)"/>
       <use xlink:href="#DejaVuSans-30" transform="translate(127.246094 0)"/>
       <use xlink:href="#DejaVuSans-30" transform="translate(190.869141 0)"/>
      </g>
     </g>
    </g>
    <g id="ytick_3">
     <g id="line2d_17">
      <path d="M 76.286875 160.219796 
L 522.686875 160.219796 
" clip-path="url(#pf2add9b813)" style="fill: none; stroke: #d1d5db; stroke-opacity: 0.4; stroke-width: 0.3; stroke-linecap: square"/>
     </g>
     <g id="line2d_18">
      <g>
       <use xlink:href="#m8cbe20e606" x="76.286875" y="160.219796" style="stroke: #000000; stroke-width: 0.8"/>
      </g>
     </g>
     <g id="text_10">
      <!-- 10000 -->
      <g transform="translate(24.749375 165.538702) scale(0.14 -0.14)">
       <use xlink:href="#DejaVuSans-31"/>
       <use xlink:href="#DejaVuSans-30" transform="translate(63.623047 0)"/>
       <use xlink:href="#DejaVuSans-30" transform="translate(127.246094 0)"/>
       <use xlink:href="#DejaVuSans-30" transform="translate(190.869141 0)"/>
       <use xlink:href="#DejaVuSans-30" transform="translate(254.492188 0)"/>
      </g>
     </g>
    </g>
    <g id="ytick_4">
     <g id="line2d_19">
      <path d="M 76.286875 112.011101 
L 522.686875 112.011101 
" clip-path="url(#pf2add9b813)" style="fill: none; stroke: #d1d5db; stroke-opacity: 0.4; stroke-width: 0.3; stroke-linecap: square"/>
     </g>
     <g id="line2d_20">
      <g>
       <use xlink:href="#m8cbe20e606" x="76.286875" y="112.011101" style="stroke: #000000; stroke-width: 0.8"/>
      </g>
     </g>
     <g id="text_11">
      <!-- 15000 -->
      <g transform="translate(24.749375 117.330007) scale(0.14 -0.14)">
       <use xlink:href="#DejaVuSans-31"/>
       <use xlink:href="#DejaVuSans-35" transform="translate(63.623047 0)"/>
       <use xlink:href="#DejaVuSans-30" transform="translate(127.246094 0)"/>
       <use xlink:href="#DejaVuSans-30" transform="translate(190.869141 0)"/>
       <use xlink:href="#DejaVuSans-30" transform="translate(254.492188 0)"/>
      </g>
     </g>
    </g>
    <g id="ytick_5">
     <g id="line2d_21">
      <path d="M 76.286875 63.802405 
L 522.686875 63.802405 
" clip-path="url(#pf2add9b813)" style="fill: none; stroke: #d1d5db; stroke-opacity: 0.4; stroke-width: 0.3; stroke-linecap: square"/>
     </g>
     <g id="line2d_22">
      <g>
       <use xlink:href="#m8cbe20e606" x="76.286875" y="63.802405" style="stroke: #000000; stroke-width: 0.8"/>
      </g>
     </g>
     <g id="text_12">
      <!-- 20000 -->
      <g transform="translate(24.749375 69.121311) scale(0.14 -0.14)">
       <use xlink:href="#DejaVuSans-32"/>
       <use xlink:href="#DejaVuSans-30" transform="translate(63.623047 0)"/>
       <use xlink:href="#DejaVuSans-30" transform="translate(127.246094 0)"/>
       <use xlink:href="#DejaVuSans-30" transform="translate(190.869141 0)"/>
       <use xlink:href="#DejaVuSans-30" transform="translate(254.492188 0)"/>
      </g>
     </g>
    </g>
    <g id="text_13">
     <!-- Cumulative Regret (µs) -->
     <g transform="translate(17.837813 226.793125) rotate(-90) scale(0.14 -0.14)">
      <defs>
       <path id="DejaVuSans-43" d="M 4122 4306 
L 4122 3641 
Q 3803 3938 3442 4084 
Q 3081 4231 2675 4231 
Q 1875 4231 1450 3742 
Q 1025 3253 1025 2328 
Q 1025 1406 1450 917 
Q 1875 428 2675 428 
Q 3081 428 3442 575 
Q 3803 722 4122 1019 
L 4122 359 
Q 3791 134 3420 21 
Q 3050 -91 2638 -91 
Q 1578 -91 968 557 
Q 359 1206 359 2328 
Q 359 3453 968 4101 
Q 1578 4750 2638 4750 
Q 3056 4750 3426 4639 
Q 3797 4528 4122 4306 
z
" transform="scale(0.015625)"/>
       <path id="DejaVuSans-75" d="M 544 1381 
L 544 3500 
L 1119 3500 
L 1119 1403 
Q 1119 906 1312 657 
Q 1506 409 1894 409 
Q 2359 409 2629 706 
Q 2900 1003 2900 1516 
L 2900 3500 
L 3475 3500 
L 3475 0 
L 2900 0 
L 2900 538 
Q 2691 219 2414 64 
Q 2138 -91 1772 -91 
Q 1169 -91 856 284 
Q 544 659 544 1381 
z
M 1991 3584 
L 1991 3584 
z
" transform="scale(0.015625)"/>
       <path id="DejaVuSans-6d" d="M 3328 2828 
Q 3544 3216 3844 3400 
Q 4144 3584 4550 3584 
Q 5097 3584 5394 3201 
Q 5691 2819 5691 2113 
L 5691 0 
L 5113 0 
L 5113 2094 
Q 5113 2597 4934 2840 
Q 4756 3084 4391 3084 
Q 3944 3084 3684 2787 
Q 3425 2491 3425 1978 
L 3425 0 
L 2847 0 
L 2847 2094 
Q 2847 2600 2669 2842 
Q 2491 3084 2119 3084 
Q 1678 3084 1418 2786 
Q 1159 2488 1159 1978 
L 1159 0 
L 581 0 
L 581 3500 
L 1159 3500 
L 1159 2956 
Q 1356 3278 1631 3431 
Q 1906 3584 2284 3584 
Q 2666 3584 2933 3390 
Q 3200 3197 3328 2828 
z
" transform="scale(0.015625)"/>
       <path id="DejaVuSans-6c" d="M 603 4863 
L 1178 4863 
L 1178 0 
L 603 0 
L 603 4863 
z
" transform="scale(0.015625)"/>
       <path id="DejaVuSans-76" d="M 191 3500 
L 800 3500 
L 1894 563 
L 2988 3500 
L 3597 3500 
L 2284 0 
L 1503 0 
L 191 3500 
z
" transform="scale(0.015625)"/>
       <path id="DejaVuSans-52" d="M 2841 2188 
Q 3044 2119 3236 1894 
Q 3428 1669 3622 1275 
L 4263 0 
L 3584 0 
L 2988 1197 
Q 2756 1666 2539 1819 
Q 2322 1972 1947 1972 
L 1259 1972 
L 1259 0 
L 628 0 
L 628 4666 
L 2053 4666 
Q 2853 4666 3247 4331 
Q 3641 3997 3641 3322 
Q 3641 2881 3436 2590 
Q 3231 2300 2841 2188 
z
M 1259 4147 
L 1259 2491 
L 2053 2491 
Q 2509 2491 2742 2702 
Q 2975 2913 2975 3322 
Q 2975 3731 2742 3939 
Q 2509 4147 2053 4147 
L 1259 4147 
z
" transform="scale(0.015625)"/>
       <path id="DejaVuSans-67" d="M 2906 1791 
Q 2906 2416 2648 2759 
Q 2391 3103 1925 3103 
Q 1463 3103 1205 2759 
Q 947 2416 947 1791 
Q 947 1169 1205 825 
Q 1463 481 1925 481 
Q 2391 481 2648 825 
Q 2906 1169 2906 1791 
z
M 3481 434 
Q 3481 -459 3084 -895 
Q 2688 -1331 1869 -1331 
Q 1566 -1331 1297 -1286 
Q 1028 -1241 775 -1147 
L 775 -588 
Q 1028 -725 1275 -790 
Q 1522 -856 1778 -856 
Q 2344 -856 2625 -561 
Q 2906 -266 2906 331 
L 2906 616 
Q 2728 306 2450 153 
Q 2172 0 1784 0 
Q 1141 0 747 490 
Q 353 981 353 1791 
Q 353 2603 747 3093 
Q 1141 3584 1784 3584 
Q 2172 3584 2450 3431 
Q 2728 3278 2906 2969 
L 2906 3500 
L 3481 3500 
L 3481 434 
z
" transform="scale(0.015625)"/>
       <path id="DejaVuSans-28" d="M 1984 4856 
Q 1566 4138 1362 3434 
Q 1159 2731 1159 2009 
Q 1159 1288 1364 580 
Q 1569 -128 1984 -844 
L 1484 -844 
Q 1016 -109 783 600 
Q 550 1309 550 2009 
Q 550 2706 781 3412 
Q 1013 4119 1484 4856 
L 1984 4856 
z
" transform="scale(0.015625)"/>
       <path id="DejaVuSans-b5" d="M 544 -1331 
L 544 3500 
L 1119 3500 
L 1119 1325 
Q 1119 872 1334 640 
Q 1550 409 1972 409 
Q 2434 409 2667 671 
Q 2900 934 2900 1459 
L 2900 3500 
L 3475 3500 
L 3475 806 
Q 3475 619 3529 530 
Q 3584 441 3700 441 
Q 3728 441 3778 458 
Q 3828 475 3916 513 
L 3916 50 
Q 3788 -22 3673 -56 
Q 3559 -91 3450 -91 
Q 3234 -91 3106 31 
Q 2978 153 2931 403 
Q 2775 156 2548 32 
Q 2322 -91 2016 -91 
Q 1697 -91 1473 31 
Q 1250 153 1119 397 
L 1119 -1331 
L 544 -1331 
z
" transform="scale(0.015625)"/>
       <path id="DejaVuSans-29" d="M 513 4856 
L 1013 4856 
Q 1481 4119 1714 3412 
Q 1947 2706 1947 2009 
Q 1947 1309 1714 600 
Q 1481 -109 1013 -844 
L 513 -844 
Q 928 -128 1133 580 
Q 1338 1288 1338 2009 
Q 1338 2731 1133 3434 
Q 928 4138 513 4856 
z
" transform="scale(0.015625)"/>
      </defs>
      <use xlink:href="#DejaVuSans-43"/>
      <use xlink:href="#DejaVuSans-75" transform="translate(69.824219 0)"/>
      <use xlink:href="#DejaVuSans-6d" transform="translate(133.203125 0)"/>
      <use xlink:href="#DejaVuSans-75" transform="translate(230.615234 0)"/>
      <use xlink:href="#DejaVuSans-6c" transform="translate(293.994141 0)"/>
      <use xlink:href="#DejaVuSans-61" transform="translate(321.777344 0)"/>
      <use xlink:href="#DejaVuSans-74" transform="translate(383.056641 0)"/>
      <use xlink:href="#DejaVuSans-69" transform="translate(422.265625 0)"/>
      <use xlink:href="#DejaVuSans-76" transform="translate(450.048828 0)"/>
      <use xlink:href="#DejaVuSans-65" transform="translate(509.228516 0)"/>
      <use xlink:href="#DejaVuSans-20" transform="translate(570.751953 0)"/>
      <use xlink:href="#DejaVuSans-52" transform="translate(602.539062 0)"/>
      <use xlink:href="#DejaVuSans-65" transform="translate(667.521484 0)"/>
      <use xlink:href="#DejaVuSans-67" transform="translate(729.044922 0)"/>
      <use xlink:href="#DejaVuSans-72" transform="translate(792.521484 0)"/>
      <use xlink:href="#DejaVuSans-65" transform="translate(831.384766 0)"/>
      <use xlink:href="#DejaVuSans-74" transform="translate(892.908203 0)"/>
      <use xlink:href="#DejaVuSans-20" transform="translate(932.117188 0)"/>
      <use xlink:href="#DejaVuSans-28" transform="translate(963.904297 0)"/>
      <use xlink:href="#DejaVuSans-b5" transform="translate(1002.917969 0)"/>
      <use xlink:href="#DejaVuSans-73" transform="translate(1066.541016 0)"/>
      <use xlink:href="#DejaVuSans-29" transform="translate(1118.640625 0)"/>
     </g>
    </g>
   </g>
   <g id="FillBetweenPolyCollection_1">
    <defs>
     <path id="m436f17445b" d="M 80.706677 -47.227098 
L 80.706677 -50.164521 
L 85.126479 -54.95958 
L 89.546281 -59.71962 
L 93.966083 -60.643761 
L 98.385885 -61.681714 
L 102.805687 -62.712261 
L 107.225489 -65.697797 
L 111.645291 -68.527773 
L 116.065093 -71.293775 
L 120.484895 -72.237451 
L 124.904697 -73.136003 
L 129.324499 -74.246693 
L 133.744301 -75.098107 
L 138.164103 -75.583163 
L 142.583905 -76.482391 
L 147.003707 -77.335819 
L 151.423509 -78.226292 
L 155.843311 -79.120804 
L 160.263113 -80.749361 
L 164.682915 -81.643874 
L 169.102717 -82.570705 
L 173.522519 -83.502936 
L 177.942321 -84.391384 
L 182.362123 -85.16602 
L 186.781925 -86.057158 
L 191.201726 -86.956385 
L 195.621528 -87.879861 
L 200.04133 -88.777739 
L 204.461132 -89.632517 
L 208.880934 -90.527705 
L 213.300736 -91.377769 
L 217.720538 -92.30325 
L 222.14034 -93.206517 
L 226.560142 -93.905061 
L 230.979944 -94.801598 
L 235.399746 -95.693411 
L 239.819548 -96.624967 
L 244.23935 -97.524194 
L 248.659152 -98.18637 
L 253.078954 -98.868069 
L 257.498756 -99.757867 
L 261.918558 -100.690088 
L 266.33836 -101.589315 
L 270.758162 -101.853489 
L 275.177964 -102.745302 
L 279.597766 -103.643854 
L 284.017568 -104.538367 
L 288.43737 -105.479342 
L 292.857172 -106.124683 
L 297.276974 -107.02122 
L 301.696776 -107.934582 
L 306.116578 -108.8338 
L 310.53638 -109.728312 
L 314.956182 -110.388463 
L 319.375984 -111.282975 
L 323.795786 -112.179512 
L 328.215588 -113.074034 
L 332.63539 -113.963832 
L 337.055192 -114.626007 
L 341.474994 -115.527249 
L 345.894796 -116.424462 
L 350.314598 -117.318974 
L 354.7344 -118.214161 
L 359.154202 -118.808989 
L 363.574004 -119.725725 
L 367.993806 -120.617548 
L 372.413608 -121.51341 
L 376.83341 -122.405898 
L 381.253212 -123.070088 
L 385.673014 -123.969315 
L 390.092816 -124.869892 
L 394.512618 -125.76777 
L 398.93242 -126.662282 
L 403.352222 -127.24499 
L 407.772024 -128.144217 
L 412.191825 -129.03738 
L 416.611627 -129.938622 
L 421.031429 -131.346972 
L 425.451231 -132.19637 
L 429.871033 -133.095597 
L 434.290835 -133.989435 
L 438.710637 -134.657 
L 443.130439 -135.588546 
L 447.550241 -136.528182 
L 451.970043 -137.428759 
L 456.389845 -138.276133 
L 460.809647 -139.204989 
L 465.229449 -140.113646 
L 469.649251 -141.082236 
L 474.069053 -141.984153 
L 478.488855 -142.88068 
L 482.908657 -143.809536 
L 487.328459 -144.822575 
L 491.748261 -145.717087 
L 496.168063 -146.618329 
L 500.587865 -147.514191 
L 505.007667 -148.406014 
L 509.427469 -149.219044 
L 513.847271 -150.111531 
L 518.267073 -150.958905 
L 518.267073 -238.133533 
L 518.267073 -238.133533 
L 513.847271 -236.205185 
L 509.427469 -234.276837 
L 505.007667 -232.348489 
L 500.587865 -230.420141 
L 496.168063 -228.491793 
L 491.748261 -226.563446 
L 487.328459 -224.635098 
L 482.908657 -222.70675 
L 478.488855 -220.778402 
L 474.069053 -218.850054 
L 469.649251 -216.921707 
L 465.229449 -214.993359 
L 460.809647 -213.065011 
L 456.389845 -211.136663 
L 451.970043 -209.208315 
L 447.550241 -207.279967 
L 443.130439 -205.35162 
L 438.710637 -203.423272 
L 434.290835 -201.494924 
L 429.871033 -199.566576 
L 425.451231 -197.638228 
L 421.031429 -195.70988 
L 416.611627 -193.781533 
L 412.191825 -191.853185 
L 407.772024 -189.924837 
L 403.352222 -187.996489 
L 398.93242 -186.068141 
L 394.512618 -184.139793 
L 390.092816 -182.211446 
L 385.673014 -180.283098 
L 381.253212 -178.35475 
L 376.83341 -176.426402 
L 372.413608 -174.498054 
L 367.993806 -172.569707 
L 363.574004 -170.641359 
L 359.154202 -168.713011 
L 354.7344 -166.784663 
L 350.314598 -164.856315 
L 345.894796 -162.927967 
L 341.474994 -160.99962 
L 337.055192 -159.071272 
L 332.63539 -157.142924 
L 328.215588 -155.214576 
L 323.795786 -153.286228 
L 319.375984 -151.35788 
L 314.956182 -149.429533 
L 310.53638 -147.501185 
L 306.116578 -145.572837 
L 301.696776 -143.644489 
L 297.276974 -141.716141 
L 292.857172 -139.787793 
L 288.43737 -137.859446 
L 284.017568 -135.931098 
L 279.597766 -134.00275 
L 275.177964 -132.074402 
L 270.758162 -130.146054 
L 266.33836 -128.217707 
L 261.918558 -126.289359 
L 257.498756 -124.361011 
L 253.078954 -122.432663 
L 248.659152 -120.504315 
L 244.23935 -118.575967 
L 239.819548 -116.64762 
L 235.399746 -114.719272 
L 230.979944 -112.790924 
L 226.560142 -110.862576 
L 222.14034 -108.934228 
L 217.720538 -107.00588 
L 213.300736 -105.077533 
L 208.880934 -103.149185 
L 204.461132 -101.220837 
L 200.04133 -99.292489 
L 195.621528 -97.364141 
L 191.201726 -95.435793 
L 186.781925 -93.507446 
L 182.362123 -91.579098 
L 177.942321 -89.65075 
L 173.522519 -87.722402 
L 169.102717 -85.794054 
L 164.682915 -83.865707 
L 160.263113 -81.937359 
L 155.843311 -80.009011 
L 151.423509 -78.080663 
L 147.003707 -76.152315 
L 142.583905 -74.223967 
L 138.164103 -72.29562 
L 133.744301 -70.367272 
L 129.324499 -68.438924 
L 124.904697 -66.510576 
L 120.484895 -64.582228 
L 116.065093 -62.65388 
L 111.645291 -60.725533 
L 107.225489 -58.797185 
L 102.805687 -56.868837 
L 98.385885 -54.940489 
L 93.966083 -53.012141 
L 89.546281 -51.083793 
L 85.126479 -49.155446 
L 80.706677 -47.227098 
z
" style="stroke: #0d9488; stroke-opacity: 0.08"/>
    </defs>
    <g clip-path="url(#pf2add9b813)">
     <use xlink:href="#m436f17445b" x="0" y="301.935937" style="fill: #0d9488; fill-opacity: 0.08; stroke: #0d9488; stroke-opacity: 0.08"/>
    </g>
   </g>
   <g id="patch_3">
    <path d="M 76.286875 256.637187 
L 76.286875 34.877187 
" style="fill: none; stroke: #000000; stroke-width: 0.5; stroke-linejoin: miter; stroke-linecap: square"/>
   </g>
   <g id="patch_4">
    <path d="M 76.286875 256.637187 
L 522.686875 256.637187 
" style="fill: none; stroke: #000000; stroke-width: 0.5; stroke-linejoin: miter; stroke-linecap: square"/>
   </g>
   <g id="line2d_23">
    <path d="M 80.706677 254.70884 
L 85.126479 252.780492 
L 89.546281 250.852144 
L 93.966083 248.923796 
L 98.385885 246.995448 
L 102.805687 245.067101 
L 107.225489 243.138753 
L 111.645291 241.210405 
L 116.065093 239.282057 
L 120.484895 237.353709 
L 124.904697 235.425361 
L 129.324499 233.497014 
L 133.744301 231.568666 
L 138.164103 229.640318 
L 142.583905 227.71197 
L 147.003707 225.783622 
L 151.423509 223.855274 
L 155.843311 221.926927 
L 160.263113 219.998579 
L 164.682915 218.070231 
L 169.102717 216.141883 
L 173.522519 214.213535 
L 177.942321 212.285187 
L 182.362123 210.35684 
L 186.781925 208.428492 
L 191.201726 206.500144 
L 195.621528 204.571796 
L 200.04133 202.643448 
L 204.461132 200.715101 
L 208.880934 198.786753 
L 213.300736 196.858405 
L 217.720538 194.930057 
L 222.14034 193.001709 
L 226.560142 191.073361 
L 230.979944 189.145014 
L 235.399746 187.216666 
L 239.819548 185.288318 
L 244.23935 183.35997 
L 248.659152 181.431622 
L 253.078954 179.503274 
L 257.498756 177.574927 
L 261.918558 175.646579 
L 266.33836 173.718231 
L 270.758162 171.789883 
L 275.177964 169.861535 
L 279.597766 167.933187 
L 284.017568 166.00484 
L 288.43737 164.076492 
L 292.857172 162.148144 
L 297.276974 160.219796 
L 301.696776 158.291448 
L 306.116578 156.363101 
L 310.53638 154.434753 
L 314.956182 152.506405 
L 319.375984 150.578057 
L 323.795786 148.649709 
L 328.215588 146.721361 
L 332.63539 144.793014 
L 337.055192 142.864666 
L 341.474994 140.936318 
L 345.894796 139.00797 
L 350.314598 137.079622 
L 354.7344 135.151274 
L 359.154202 133.222927 
L 363.574004 131.294579 
L 367.993806 129.366231 
L 372.413608 127.437883 
L 376.83341 125.509535 
L 381.253212 123.581187 
L 385.673014 121.65284 
L 390.092816 119.724492 
L 394.512618 117.796144 
L 398.93242 115.867796 
L 403.352222 113.939448 
L 407.772024 112.011101 
L 412.191825 110.082753 
L 416.611627 108.154405 
L 421.031429 106.226057 
L 425.451231 104.297709 
L 429.871033 102.369361 
L 434.290835 100.441014 
L 438.710637 98.512666 
L 443.130439 96.584318 
L 447.550241 94.65597 
L 451.970043 92.727622 
L 456.389845 90.799274 
L 460.809647 88.870927 
L 465.229449 86.942579 
L 469.649251 85.014231 
L 474.069053 83.085883 
L 478.488855 81.157535 
L 482.908657 79.229187 
L 487.328459 77.30084 
L 491.748261 75.372492 
L 496.168063 73.444144 
L 500.587865 71.515796 
L 505.007667 69.587448 
L 509.427469 67.659101 
L 513.847271 65.730753 
L 518.267073 63.802405 
" clip-path="url(#pf2add9b813)" style="fill: none; stroke-dasharray: 7.4,3.2; stroke-dashoffset: 0; stroke: #9ca3af; stroke-width: 2"/>
   </g>
   <g id="line2d_24">
    <path d="M 76.286875 150.977032 
L 522.686875 150.977032 
" clip-path="url(#pf2add9b813)" style="fill: none; stroke-dasharray: 3.7,1.6; stroke-dashoffset: 0; stroke: #dc2626; stroke-opacity: 0.5"/>
   </g>
   <g id="text_14">
    <!-- Total cost: 10959 us -->
    <g style="fill: #dc2626" transform="translate(522.686875 154.012345) scale(0.11 -0.11)">
     <defs>
      <path id="DejaVuSans-Bold-54" d="M 31 4666 
L 4331 4666 
L 4331 3756 
L 2784 3756 
L 2784 0 
L 1581 0 
L 1581 3756 
L 31 3756 
L 31 4666 
z
" transform="scale(0.015625)"/>
      <path id="DejaVuSans-Bold-6f" d="M 2203 2784 
Q 1831 2784 1636 2517 
Q 1441 2250 1441 1747 
Q 1441 1244 1636 976 
Q 1831 709 2203 709 
Q 2569 709 2762 976 
Q 2956 1244 2956 1747 
Q 2956 2250 2762 2517 
Q 2569 2784 2203 2784 
z
M 2203 3584 
Q 3106 3584 3614 3096 
Q 4122 2609 4122 1747 
Q 4122 884 3614 396 
Q 3106 -91 2203 -91 
Q 1297 -91 786 396 
Q 275 884 275 1747 
Q 275 2609 786 3096 
Q 1297 3584 2203 3584 
z
" transform="scale(0.015625)"/>
      <path id="DejaVuSans-Bold-74" d="M 1759 4494 
L 1759 3500 
L 2913 3500 
L 2913 2700 
L 1759 2700 
L 1759 1216 
Q 1759 972 1856 886 
Q 1953 800 2241 800 
L 2816 800 
L 2816 0 
L 1856 0 
Q 1194 0 917 276 
Q 641 553 641 1216 
L 641 2700 
L 84 2700 
L 84 3500 
L 641 3500 
L 641 4494 
L 1759 4494 
z
" transform="scale(0.015625)"/>
      <path id="DejaVuSans-Bold-61" d="M 2106 1575 
Q 1756 1575 1579 1456 
Q 1403 1338 1403 1106 
Q 1403 894 1545 773 
Q 1688 653 1941 653 
Q 2256 653 2472 879 
Q 2688 1106 2688 1447 
L 2688 1575 
L 2106 1575 
z
M 3816 1997 
L 3816 0 
L 2688 0 
L 2688 519 
Q 2463 200 2181 54 
Q 1900 -91 1497 -91 
Q 953 -91 614 226 
Q 275 544 275 1050 
Q 275 1666 698 1953 
Q 1122 2241 2028 2241 
L 2688 2241 
L 2688 2328 
Q 2688 2594 2478 2717 
Q 2269 2841 1825 2841 
Q 1466 2841 1156 2769 
Q 847 2697 581 2553 
L 581 3406 
Q 941 3494 1303 3539 
Q 1666 3584 2028 3584 
Q 2975 3584 3395 3211 
Q 3816 2838 3816 1997 
z
" transform="scale(0.015625)"/>
      <path id="DejaVuSans-Bold-6c" d="M 538 4863 
L 1656 4863 
L 1656 0 
L 538 0 
L 538 4863 
z
" transform="scale(0.015625)"/>
      <path id="DejaVuSans-Bold-20" transform="scale(0.015625)"/>
      <path id="DejaVuSans-Bold-63" d="M 3366 3391 
L 3366 2478 
Q 3138 2634 2908 2709 
Q 2678 2784 2431 2784 
Q 1963 2784 1702 2511 
Q 1441 2238 1441 1747 
Q 1441 1256 1702 982 
Q 1963 709 2431 709 
Q 2694 709 2930 787 
Q 3166 866 3366 1019 
L 3366 103 
Q 3103 6 2833 -42 
Q 2563 -91 2291 -91 
Q 1344 -91 809 395 
Q 275 881 275 1747 
Q 275 2613 809 3098 
Q 1344 3584 2291 3584 
Q 2566 3584 2833 3536 
Q 3100 3488 3366 3391 
z
" transform="scale(0.015625)"/>
      <path id="DejaVuSans-Bold-73" d="M 3272 3391 
L 3272 2541 
Q 2913 2691 2578 2766 
Q 2244 2841 1947 2841 
Q 1628 2841 1473 2761 
Q 1319 2681 1319 2516 
Q 1319 2381 1436 2309 
Q 1553 2238 1856 2203 
L 2053 2175 
Q 2913 2066 3209 1816 
Q 3506 1566 3506 1031 
Q 3506 472 3093 190 
Q 2681 -91 1863 -91 
Q 1516 -91 1145 -36 
Q 775 19 384 128 
L 384 978 
Q 719 816 1070 734 
Q 1422 653 1784 653 
Q 2113 653 2278 743 
Q 2444 834 2444 1013 
Q 2444 1163 2330 1236 
Q 2216 1309 1875 1350 
L 1678 1375 
Q 931 1469 631 1722 
Q 331 1975 331 2491 
Q 331 3047 712 3315 
Q 1094 3584 1881 3584 
Q 2191 3584 2531 3537 
Q 2872 3491 3272 3391 
z
" transform="scale(0.015625)"/>
      <path id="DejaVuSans-Bold-3a" d="M 716 3500 
L 1844 3500 
L 1844 2291 
L 716 2291 
L 716 3500 
z
M 716 1209 
L 1844 1209 
L 1844 0 
L 716 0 
L 716 1209 
z
" transform="scale(0.015625)"/>
      <path id="DejaVuSans-Bold-31" d="M 750 831 
L 1813 831 
L 1813 3847 
L 722 3622 
L 722 4441 
L 1806 4666 
L 2950 4666 
L 2950 831 
L 4013 831 
L 4013 0 
L 750 0 
L 750 831 
z
" transform="scale(0.015625)"/>
      <path id="DejaVuSans-Bold-30" d="M 2944 2338 
Q 2944 3213 2780 3570 
Q 2616 3928 2228 3928 
Q 1841 3928 1675 3570 
Q 1509 3213 1509 2338 
Q 1509 1453 1675 1090 
Q 1841 728 2228 728 
Q 2613 728 2778 1090 
Q 2944 1453 2944 2338 
z
M 4147 2328 
Q 4147 1169 3647 539 
Q 3147 -91 2228 -91 
Q 1306 -91 806 539 
Q 306 1169 306 2328 
Q 306 3491 806 4120 
Q 1306 4750 2228 4750 
Q 3147 4750 3647 4120 
Q 4147 3491 4147 2328 
z
" transform="scale(0.015625)"/>
      <path id="DejaVuSans-Bold-39" d="M 641 103 
L 641 966 
Q 928 831 1190 764 
Q 1453 697 1709 697 
Q 2247 697 2547 995 
Q 2847 1294 2900 1881 
Q 2688 1725 2447 1647 
Q 2206 1569 1925 1569 
Q 1209 1569 770 1986 
Q 331 2403 331 3084 
Q 331 3838 820 4291 
Q 1309 4744 2131 4744 
Q 3044 4744 3544 4128 
Q 4044 3513 4044 2388 
Q 4044 1231 3459 570 
Q 2875 -91 1856 -91 
Q 1528 -91 1228 -42 
Q 928 6 641 103 
z
M 2125 2350 
Q 2441 2350 2600 2554 
Q 2759 2759 2759 3169 
Q 2759 3575 2600 3781 
Q 2441 3988 2125 3988 
Q 1809 3988 1650 3781 
Q 1491 3575 1491 3169 
Q 1491 2759 1650 2554 
Q 1809 2350 2125 2350 
z
" transform="scale(0.015625)"/>
      <path id="DejaVuSans-Bold-35" d="M 678 4666 
L 3669 4666 
L 3669 3781 
L 1638 3781 
L 1638 3059 
Q 1775 3097 1914 3117 
Q 2053 3138 2203 3138 
Q 3056 3138 3531 2711 
Q 4006 2284 4006 1522 
Q 4006 766 3489 337 
Q 2972 -91 2053 -91 
Q 1656 -91 1267 -14 
Q 878 63 494 219 
L 494 1166 
Q 875 947 1217 837 
Q 1559 728 1863 728 
Q 2300 728 2551 942 
Q 2803 1156 2803 1522 
Q 2803 1891 2551 2103 
Q 2300 2316 1863 2316 
Q 1603 2316 1309 2248 
Q 1016 2181 678 2041 
L 678 4666 
z
" transform="scale(0.015625)"/>
      <path id="DejaVuSans-Bold-75" d="M 500 1363 
L 500 3500 
L 1625 3500 
L 1625 3150 
Q 1625 2866 1622 2436 
Q 1619 2006 1619 1863 
Q 1619 1441 1641 1255 
Q 1663 1069 1716 984 
Q 1784 875 1895 815 
Q 2006 756 2150 756 
Q 2500 756 2700 1025 
Q 2900 1294 2900 1772 
L 2900 3500 
L 4019 3500 
L 4019 0 
L 2900 0 
L 2900 506 
Q 2647 200 2364 54 
Q 2081 -91 1741 -91 
Q 1134 -91 817 281 
Q 500 653 500 1363 
z
" transform="scale(0.015625)"/>
     </defs>
     <use xlink:href="#DejaVuSans-Bold-54"/>
     <use xlink:href="#DejaVuSans-Bold-6f" transform="translate(54.962891 0)"/>
     <use xlink:href="#DejaVuSans-Bold-74" transform="translate(123.664062 0)"/>
     <use xlink:href="#DejaVuSans-Bold-61" transform="translate(171.466797 0)"/>
     <use xlink:href="#DejaVuSans-Bold-6c" transform="translate(238.947266 0)"/>
     <use xlink:href="#DejaVuSans-Bold-20" transform="translate(273.224609 0)"/>
     <use xlink:href="#DejaVuSans-Bold-63" transform="translate(308.039062 0)"/>
     <use xlink:href="#DejaVuSans-Bold-6f" transform="translate(367.316406 0)"/>
     <use xlink:href="#DejaVuSans-Bold-73" transform="translate(436.017578 0)"/>
     <use xlink:href="#DejaVuSans-Bold-74" transform="translate(495.539062 0)"/>
     <use xlink:href="#DejaVuSans-Bold-3a" transform="translate(543.341797 0)"/>
     <use xlink:href="#DejaVuSans-Bold-20" transform="translate(583.332031 0)"/>
     <use xlink:href="#DejaVuSans-Bold-31" transform="translate(618.146484 0)"/>
     <use xlink:href="#DejaVuSans-Bold-30" transform="translate(687.726562 0)"/>
     <use xlink:href="#DejaVuSans-Bold-39" transform="translate(757.306641 0)"/>
     <use xlink:href="#DejaVuSans-Bold-35" transform="translate(826.886719 0)"/>
     <use xlink:href="#DejaVuSans-Bold-39" transform="translate(896.466797 0)"/>
     <use xlink:href="#DejaVuSans-Bold-20" transform="translate(966.046875 0)"/>
     <use xlink:href="#DejaVuSans-Bold-75" transform="translate(1000.861328 0)"/>
     <use xlink:href="#DejaVuSans-Bold-73" transform="translate(1072.052734 0)"/>
    </g>
   </g>
   <g id="patch_5">
    <path d="M 280.339552 193.351016 
Q 236.743136 203.929316 194.776481 214.112168 
" style="fill: none; stroke: #0d9488; stroke-width: 1.5; stroke-linecap: round"/>
    <path d="M 199.571167 215.212615 
L 194.776481 214.112168 
L 198.53365 210.936687 
" style="fill: none; stroke: #0d9488; stroke-width: 1.5; stroke-linecap: round"/>
   </g>
   <g id="text_15">
    <g id="patch_6">
     <path d="M 257.498756 192.380299 
L 442.797194 192.380299 
Q 447.197194 192.380299 447.197194 187.980299 
L 447.197194 164.844893 
Q 447.197194 160.444893 442.797194 160.444893 
L 257.498756 160.444893 
Q 253.098756 160.444893 253.098756 164.844893 
L 253.098756 187.980299 
Q 253.098756 192.380299 257.498756 192.380299 
z
" style="fill: #f0fdfa; stroke: #0d9488; stroke-linejoin: miter"/>
    </g>
    <!-- After 9 dispatches, regret = 0 -->
    <g style="fill: #0d9488" transform="translate(257.498756 173.203174) scale(0.11 -0.11)">
     <defs>
      <path id="DejaVuSans-Bold-41" d="M 3419 850 
L 1538 850 
L 1241 0 
L 31 0 
L 1759 4666 
L 3194 4666 
L 4922 0 
L 3713 0 
L 3419 850 
z
M 1838 1716 
L 3116 1716 
L 2478 3572 
L 1838 1716 
z
" transform="scale(0.015625)"/>
      <path id="DejaVuSans-Bold-66" d="M 2841 4863 
L 2841 4128 
L 2222 4128 
Q 1984 4128 1890 4042 
Q 1797 3956 1797 3744 
L 1797 3500 
L 2753 3500 
L 2753 2700 
L 1797 2700 
L 1797 0 
L 678 0 
L 678 2700 
L 122 2700 
L 122 3500 
L 678 3500 
L 678 3744 
Q 678 4316 997 4589 
Q 1316 4863 1984 4863 
L 2841 4863 
z
" transform="scale(0.015625)"/>
      <path id="DejaVuSans-Bold-65" d="M 4031 1759 
L 4031 1441 
L 1416 1441 
Q 1456 1047 1700 850 
Q 1944 653 2381 653 
Q 2734 653 3104 758 
Q 3475 863 3866 1075 
L 3866 213 
Q 3469 63 3072 -14 
Q 2675 -91 2278 -91 
Q 1328 -91 801 392 
Q 275 875 275 1747 
Q 275 2603 792 3093 
Q 1309 3584 2216 3584 
Q 3041 3584 3536 3087 
Q 4031 2591 4031 1759 
z
M 2881 2131 
Q 2881 2450 2695 2645 
Q 2509 2841 2209 2841 
Q 1884 2841 1681 2658 
Q 1478 2475 1428 2131 
L 2881 2131 
z
" transform="scale(0.015625)"/>
      <path id="DejaVuSans-Bold-72" d="M 3138 2547 
Q 2991 2616 2845 2648 
Q 2700 2681 2553 2681 
Q 2122 2681 1889 2404 
Q 1656 2128 1656 1613 
L 1656 0 
L 538 0 
L 538 3500 
L 1656 3500 
L 1656 2925 
Q 1872 3269 2151 3426 
Q 2431 3584 2822 3584 
Q 2878 3584 2943 3579 
Q 3009 3575 3134 3559 
L 3138 2547 
z
" transform="scale(0.015625)"/>
      <path id="DejaVuSans-Bold-64" d="M 2919 2988 
L 2919 4863 
L 4044 4863 
L 4044 0 
L 2919 0 
L 2919 506 
Q 2688 197 2409 53 
Q 2131 -91 1766 -91 
Q 1119 -91 703 423 
Q 288 938 288 1747 
Q 288 2556 703 3070 
Q 1119 3584 1766 3584 
Q 2128 3584 2408 3439 
Q 2688 3294 2919 2988 
z
M 2181 722 
Q 2541 722 2730 984 
Q 2919 1247 2919 1747 
Q 2919 2247 2730 2509 
Q 2541 2772 2181 2772 
Q 1825 2772 1636 2509 
Q 1447 2247 1447 1747 
Q 1447 1247 1636 984 
Q 1825 722 2181 722 
z
" transform="scale(0.015625)"/>
      <path id="DejaVuSans-Bold-69" d="M 538 3500 
L 1656 3500 
L 1656 0 
L 538 0 
L 538 3500 
z
M 538 4863 
L 1656 4863 
L 1656 3950 
L 538 3950 
L 538 4863 
z
" transform="scale(0.015625)"/>
      <path id="DejaVuSans-Bold-70" d="M 1656 506 
L 1656 -1331 
L 538 -1331 
L 538 3500 
L 1656 3500 
L 1656 2988 
Q 1888 3294 2169 3439 
Q 2450 3584 2816 3584 
Q 3463 3584 3878 3070 
Q 4294 2556 4294 1747 
Q 4294 938 3878 423 
Q 3463 -91 2816 -91 
Q 2450 -91 2169 54 
Q 1888 200 1656 506 
z
M 2400 2772 
Q 2041 2772 1848 2508 
Q 1656 2244 1656 1747 
Q 1656 1250 1848 986 
Q 2041 722 2400 722 
Q 2759 722 2948 984 
Q 3138 1247 3138 1747 
Q 3138 2247 2948 2509 
Q 2759 2772 2400 2772 
z
" transform="scale(0.015625)"/>
      <path id="DejaVuSans-Bold-68" d="M 4056 2131 
L 4056 0 
L 2931 0 
L 2931 347 
L 2931 1625 
Q 2931 2084 2911 2256 
Q 2891 2428 2841 2509 
Q 2775 2619 2662 2680 
Q 2550 2741 2406 2741 
Q 2056 2741 1856 2470 
Q 1656 2200 1656 1722 
L 1656 0 
L 538 0 
L 538 4863 
L 1656 4863 
L 1656 2988 
Q 1909 3294 2193 3439 
Q 2478 3584 2822 3584 
Q 3428 3584 3742 3212 
Q 4056 2841 4056 2131 
z
" transform="scale(0.015625)"/>
      <path id="DejaVuSans-Bold-2c" d="M 653 1209 
L 1778 1209 
L 1778 256 
L 1006 -909 
L 341 -909 
L 653 256 
L 653 1209 
z
" transform="scale(0.015625)"/>
      <path id="DejaVuSans-Bold-67" d="M 2919 594 
Q 2688 288 2409 144 
Q 2131 0 1766 0 
Q 1125 0 706 504 
Q 288 1009 288 1791 
Q 288 2575 706 3076 
Q 1125 3578 1766 3578 
Q 2131 3578 2409 3434 
Q 2688 3291 2919 2981 
L 2919 3500 
L 4044 3500 
L 4044 353 
Q 4044 -491 3511 -936 
Q 2978 -1381 1966 -1381 
Q 1638 -1381 1331 -1331 
Q 1025 -1281 716 -1178 
L 716 -306 
Q 1009 -475 1290 -558 
Q 1572 -641 1856 -641 
Q 2406 -641 2662 -400 
Q 2919 -159 2919 353 
L 2919 594 
z
M 2181 2772 
Q 1834 2772 1640 2515 
Q 1447 2259 1447 1791 
Q 1447 1309 1634 1061 
Q 1822 813 2181 813 
Q 2531 813 2725 1069 
Q 2919 1325 2919 1791 
Q 2919 2259 2725 2515 
Q 2531 2772 2181 2772 
z
" transform="scale(0.015625)"/>
      <path id="DejaVuSans-Bold-3d" d="M 678 3084 
L 4684 3084 
L 4684 2350 
L 678 2350 
L 678 3084 
z
M 678 1663 
L 4684 1663 
L 4684 922 
L 678 922 
L 678 1663 
z
" transform="scale(0.015625)"/>
     </defs>
     <use xlink:href="#DejaVuSans-Bold-41"/>
     <use xlink:href="#DejaVuSans-Bold-66" transform="translate(77.392578 0)"/>
     <use xlink:href="#DejaVuSans-Bold-74" transform="translate(120.898438 0)"/>
     <use xlink:href="#DejaVuSans-Bold-65" transform="translate(168.701172 0)"/>
     <use xlink:href="#DejaVuSans-Bold-72" transform="translate(236.523438 0)"/>
     <use xlink:href="#DejaVuSans-Bold-20" transform="translate(285.839844 0)"/>
     <use xlink:href="#DejaVuSans-Bold-39" transform="translate(320.654297 0)"/>
     <use xlink:href="#DejaVuSans-Bold-20" transform="translate(390.234375 0)"/>
     <use xlink:href="#DejaVuSans-Bold-64" transform="translate(425.048828 0)"/>
     <use xlink:href="#DejaVuSans-Bold-69" transform="translate(496.630859 0)"/>
     <use xlink:href="#DejaVuSans-Bold-73" transform="translate(530.908203 0)"/>
     <use xlink:href="#DejaVuSans-Bold-70" transform="translate(590.429688 0)"/>
     <use xlink:href="#DejaVuSans-Bold-61" transform="translate(662.011719 0)"/>
     <use xlink:href="#DejaVuSans-Bold-74" transform="translate(729.492188 0)"/>
     <use xlink:href="#DejaVuSans-Bold-63" transform="translate(777.294922 0)"/>
     <use xlink:href="#DejaVuSans-Bold-68" transform="translate(836.572266 0)"/>
     <use xlink:href="#DejaVuSans-Bold-65" transform="translate(907.763672 0)"/>
     <use xlink:href="#DejaVuSans-Bold-73" transform="translate(975.585938 0)"/>
     <use xlink:href="#DejaVuSans-Bold-2c" transform="translate(1035.107422 0)"/>
     <use xlink:href="#DejaVuSans-Bold-20" transform="translate(1073.095703 0)"/>
     <use xlink:href="#DejaVuSans-Bold-72" transform="translate(1107.910156 0)"/>
     <use xlink:href="#DejaVuSans-Bold-65" transform="translate(1157.226562 0)"/>
     <use xlink:href="#DejaVuSans-Bold-67" transform="translate(1225.048828 0)"/>
     <use xlink:href="#DejaVuSans-Bold-72" transform="translate(1296.630859 0)"/>
     <use xlink:href="#DejaVuSans-Bold-65" transform="translate(1345.947266 0)"/>
     <use xlink:href="#DejaVuSans-Bold-74" transform="translate(1413.769531 0)"/>
     <use xlink:href="#DejaVuSans-Bold-20" transform="translate(1461.572266 0)"/>
     <use xlink:href="#DejaVuSans-Bold-3d" transform="translate(1496.386719 0)"/>
     <use xlink:href="#DejaVuSans-Bold-20" transform="translate(1580.175781 0)"/>
     <use xlink:href="#DejaVuSans-Bold-30" transform="translate(1614.990234 0)"/>
    </g>
    <!-- (always picks optimal) -->
    <g style="fill: #0d9488" transform="translate(257.498756 185.606705) scale(0.11 -0.11)">
     <defs>
      <path id="DejaVuSans-Bold-28" d="M 2413 -844 
L 1484 -844 
Q 1006 -72 778 623 
Q 550 1319 550 2003 
Q 550 2688 779 3389 
Q 1009 4091 1484 4856 
L 2413 4856 
Q 2013 4116 1813 3408 
Q 1613 2700 1613 2009 
Q 1613 1319 1811 609 
Q 2009 -100 2413 -844 
z
" transform="scale(0.015625)"/>
      <path id="DejaVuSans-Bold-77" d="M 225 3500 
L 1313 3500 
L 1900 1088 
L 2491 3500 
L 3425 3500 
L 4013 1113 
L 4603 3500 
L 5691 3500 
L 4769 0 
L 3547 0 
L 2956 2406 
L 2369 0 
L 1147 0 
L 225 3500 
z
" transform="scale(0.015625)"/>
      <path id="DejaVuSans-Bold-79" d="M 78 3500 
L 1197 3500 
L 2138 1125 
L 2938 3500 
L 4056 3500 
L 2584 -331 
Q 2363 -916 2067 -1148 
Q 1772 -1381 1288 -1381 
L 641 -1381 
L 641 -647 
L 991 -647 
Q 1275 -647 1404 -556 
Q 1534 -466 1606 -231 
L 1638 -134 
L 78 3500 
z
" transform="scale(0.015625)"/>
      <path id="DejaVuSans-Bold-6b" d="M 538 4863 
L 1656 4863 
L 1656 2216 
L 2944 3500 
L 4244 3500 
L 2534 1894 
L 4378 0 
L 3022 0 
L 1656 1459 
L 1656 0 
L 538 0 
L 538 4863 
z
" transform="scale(0.015625)"/>
      <path id="DejaVuSans-Bold-6d" d="M 3781 2919 
Q 3994 3244 4286 3414 
Q 4578 3584 4928 3584 
Q 5531 3584 5847 3212 
Q 6163 2841 6163 2131 
L 6163 0 
L 5038 0 
L 5038 1825 
Q 5041 1866 5042 1909 
Q 5044 1953 5044 2034 
Q 5044 2406 4934 2573 
Q 4825 2741 4581 2741 
Q 4263 2741 4089 2478 
Q 3916 2216 3909 1719 
L 3909 0 
L 2784 0 
L 2784 1825 
Q 2784 2406 2684 2573 
Q 2584 2741 2328 2741 
Q 2006 2741 1831 2477 
Q 1656 2213 1656 1722 
L 1656 0 
L 531 0 
L 531 3500 
L 1656 3500 
L 1656 2988 
Q 1863 3284 2130 3434 
Q 2397 3584 2719 3584 
Q 3081 3584 3359 3409 
Q 3638 3234 3781 2919 
z
" transform="scale(0.015625)"/>
      <path id="DejaVuSans-Bold-29" d="M 513 -844 
Q 913 -100 1113 609 
Q 1313 1319 1313 2009 
Q 1313 2700 1113 3408 
Q 913 4116 513 4856 
L 1441 4856 
Q 1916 4091 2145 3389 
Q 2375 2688 2375 2003 
Q 2375 1319 2147 623 
Q 1919 -72 1441 -844 
L 513 -844 
z
" transform="scale(0.015625)"/>
     </defs>
     <use xlink:href="#DejaVuSans-Bold-28"/>
     <use xlink:href="#DejaVuSans-Bold-61" transform="translate(45.703125 0)"/>
     <use xlink:href="#DejaVuSans-Bold-6c" transform="translate(113.183594 0)"/>
     <use xlink:href="#DejaVuSans-Bold-77" transform="translate(147.460938 0)"/>
     <use xlink:href="#DejaVuSans-Bold-61" transform="translate(239.84375 0)"/>
     <use xlink:href="#DejaVuSans-Bold-79" transform="translate(304.199219 0)"/>
     <use xlink:href="#DejaVuSans-Bold-73" transform="translate(369.384766 0)"/>
     <use xlink:href="#DejaVuSans-Bold-20" transform="translate(428.90625 0)"/>
     <use xlink:href="#DejaVuSans-Bold-70" transform="translate(463.720703 0)"/>
     <use xlink:href="#DejaVuSans-Bold-69" transform="translate(535.302734 0)"/>
     <use xlink:href="#DejaVuSans-Bold-63" transform="translate(569.580078 0)"/>
     <use xlink:href="#DejaVuSans-Bold-6b" transform="translate(628.857422 0)"/>
     <use xlink:href="#DejaVuSans-Bold-73" transform="translate(695.361328 0)"/>
     <use xlink:href="#DejaVuSans-Bold-20" transform="translate(754.882812 0)"/>
     <use xlink:href="#DejaVuSans-Bold-6f" transform="translate(789.697266 0)"/>
     <use xlink:href="#DejaVuSans-Bold-70" transform="translate(858.398438 0)"/>
     <use xlink:href="#DejaVuSans-Bold-74" transform="translate(929.980469 0)"/>
     <use xlink:href="#DejaVuSans-Bold-69" transform="translate(977.783203 0)"/>
     <use xlink:href="#DejaVuSans-Bold-6d" transform="translate(1012.060547 0)"/>
     <use xlink:href="#DejaVuSans-Bold-61" transform="translate(1116.259766 0)"/>
     <use xlink:href="#DejaVuSans-Bold-6c" transform="translate(1183.740234 0)"/>
     <use xlink:href="#DejaVuSans-Bold-29" transform="translate(1218.017578 0)"/>
    </g>
   </g>
   <g id="text_16">
    <g id="patch_7">
     <path d="M 386.9845 154.840109 
L 513.758875 154.840109 
Q 520.258875 154.840109 520.258875 148.340109 
L 520.258875 120.998266 
Q 520.258875 114.498266 513.758875 114.498266 
L 386.9845 114.498266 
Q 380.4845 114.498266 380.4845 120.998266 
L 380.4845 148.340109 
Q 380.4845 154.840109 386.9845 154.840109 
z
" style="fill: #ffffff; opacity: 0.9; stroke: #1e3a5f; stroke-linejoin: miter"/>
    </g>
    <!-- Savings: 9041 us -->
    <g style="fill: #1e3a5f" transform="translate(388.975125 130.876234) scale(0.13 -0.13)">
     <defs>
      <path id="DejaVuSans-Bold-53" d="M 3834 4519 
L 3834 3531 
Q 3450 3703 3084 3790 
Q 2719 3878 2394 3878 
Q 1963 3878 1756 3759 
Q 1550 3641 1550 3391 
Q 1550 3203 1689 3098 
Q 1828 2994 2194 2919 
L 2706 2816 
Q 3484 2659 3812 2340 
Q 4141 2022 4141 1434 
Q 4141 663 3683 286 
Q 3225 -91 2284 -91 
Q 1841 -91 1394 -6 
Q 947 78 500 244 
L 500 1259 
Q 947 1022 1364 901 
Q 1781 781 2169 781 
Q 2563 781 2772 912 
Q 2981 1044 2981 1288 
Q 2981 1506 2839 1625 
Q 2697 1744 2272 1838 
L 1806 1941 
Q 1106 2091 782 2419 
Q 459 2747 459 3303 
Q 459 4000 909 4375 
Q 1359 4750 2203 4750 
Q 2588 4750 2994 4692 
Q 3400 4634 3834 4519 
z
" transform="scale(0.015625)"/>
      <path id="DejaVuSans-Bold-76" d="M 97 3500 
L 1216 3500 
L 2088 1081 
L 2956 3500 
L 4078 3500 
L 2700 0 
L 1472 0 
L 97 3500 
z
" transform="scale(0.015625)"/>
      <path id="DejaVuSans-Bold-6e" d="M 4056 2131 
L 4056 0 
L 2931 0 
L 2931 347 
L 2931 1631 
Q 2931 2084 2911 2256 
Q 2891 2428 2841 2509 
Q 2775 2619 2662 2680 
Q 2550 2741 2406 2741 
Q 2056 2741 1856 2470 
Q 1656 2200 1656 1722 
L 1656 0 
L 538 0 
L 538 3500 
L 1656 3500 
L 1656 2988 
Q 1909 3294 2193 3439 
Q 2478 3584 2822 3584 
Q 3428 3584 3742 3212 
Q 4056 2841 4056 2131 
z
" transform="scale(0.015625)"/>
      <path id="DejaVuSans-Bold-34" d="M 2356 3675 
L 1038 1722 
L 2356 1722 
L 2356 3675 
z
M 2156 4666 
L 3494 4666 
L 3494 1722 
L 4159 1722 
L 4159 850 
L 3494 850 
L 3494 0 
L 2356 0 
L 2356 850 
L 288 850 
L 288 1881 
L 2156 4666 
z
" transform="scale(0.015625)"/>
     </defs>
     <use xlink:href="#DejaVuSans-Bold-53"/>
     <use xlink:href="#DejaVuSans-Bold-61" transform="translate(72.021484 0)"/>
     <use xlink:href="#DejaVuSans-Bold-76" transform="translate(139.501953 0)"/>
     <use xlink:href="#DejaVuSans-Bold-69" transform="translate(204.6875 0)"/>
     <use xlink:href="#DejaVuSans-Bold-6e" transform="translate(238.964844 0)"/>
     <use xlink:href="#DejaVuSans-Bold-67" transform="translate(310.15625 0)"/>
     <use xlink:href="#DejaVuSans-Bold-73" transform="translate(381.738281 0)"/>
     <use xlink:href="#DejaVuSans-Bold-3a" transform="translate(441.259766 0)"/>
     <use xlink:href="#DejaVuSans-Bold-20" transform="translate(481.25 0)"/>
     <use xlink:href="#DejaVuSans-Bold-39" transform="translate(516.064453 0)"/>
     <use xlink:href="#DejaVuSans-Bold-30" transform="translate(585.644531 0)"/>
     <use xlink:href="#DejaVuSans-Bold-34" transform="translate(655.224609 0)"/>
     <use xlink:href="#DejaVuSans-Bold-31" transform="translate(724.804688 0)"/>
     <use xlink:href="#DejaVuSans-Bold-20" transform="translate(794.384766 0)"/>
     <use xlink:href="#DejaVuSans-Bold-75" transform="translate(829.199219 0)"/>
     <use xlink:href="#DejaVuSans-Bold-73" transform="translate(900.390625 0)"/>
    </g>
    <!-- (45% less regret) -->
    <g style="fill: #1e3a5f" transform="translate(386.9845 145.534953) scale(0.13 -0.13)">
     <defs>
      <path id="DejaVuSans-Bold-25" d="M 4959 1925 
Q 4738 1925 4616 1733 
Q 4494 1541 4494 1184 
Q 4494 825 4614 633 
Q 4734 441 4959 441 
Q 5184 441 5303 633 
Q 5422 825 5422 1184 
Q 5422 1541 5301 1733 
Q 5181 1925 4959 1925 
z
M 4959 2450 
Q 5541 2450 5875 2112 
Q 6209 1775 6209 1184 
Q 6209 594 5875 251 
Q 5541 -91 4959 -91 
Q 4378 -91 4042 251 
Q 3706 594 3706 1184 
Q 3706 1772 4042 2111 
Q 4378 2450 4959 2450 
z
M 2094 -91 
L 1403 -91 
L 4319 4750 
L 5013 4750 
L 2094 -91 
z
M 1453 4750 
Q 2034 4750 2367 4411 
Q 2700 4072 2700 3481 
Q 2700 2891 2367 2550 
Q 2034 2209 1453 2209 
Q 872 2209 539 2550 
Q 206 2891 206 3481 
Q 206 4072 539 4411 
Q 872 4750 1453 4750 
z
M 1453 4225 
Q 1228 4225 1106 4031 
Q 984 3838 984 3481 
Q 984 3122 1106 2926 
Q 1228 2731 1453 2731 
Q 1678 2731 1798 2926 
Q 1919 3122 1919 3481 
Q 1919 3838 1797 4031 
Q 1675 4225 1453 4225 
z
" transform="scale(0.015625)"/>
     </defs>
     <use xlink:href="#DejaVuSans-Bold-28"/>
     <use xlink:href="#DejaVuSans-Bold-34" transform="translate(45.703125 0)"/>
     <use xlink:href="#DejaVuSans-Bold-35" transform="translate(115.283203 0)"/>
     <use xlink:href="#DejaVuSans-Bold-25" transform="translate(184.863281 0)"/>
     <use xlink:href="#DejaVuSans-Bold-20" transform="translate(285.058594 0)"/>
     <use xlink:href="#DejaVuSans-Bold-6c" transform="translate(319.873047 0)"/>
     <use xlink:href="#DejaVuSans-Bold-65" transform="translate(354.150391 0)"/>
     <use xlink:href="#DejaVuSans-Bold-73" transform="translate(421.972656 0)"/>
     <use xlink:href="#DejaVuSans-Bold-73" transform="translate(481.494141 0)"/>
     <use xlink:href="#DejaVuSans-Bold-20" transform="translate(541.015625 0)"/>
     <use xlink:href="#DejaVuSans-Bold-72" transform="translate(575.830078 0)"/>
     <use xlink:href="#DejaVuSans-Bold-65" transform="translate(625.146484 0)"/>
     <use xlink:href="#DejaVuSans-Bold-67" transform="translate(692.96875 0)"/>
     <use xlink:href="#DejaVuSans-Bold-72" transform="translate(764.550781 0)"/>
     <use xlink:href="#DejaVuSans-Bold-65" transform="translate(813.867188 0)"/>
     <use xlink:href="#DejaVuSans-Bold-74" transform="translate(881.689453 0)"/>
     <use xlink:href="#DejaVuSans-Bold-29" transform="translate(929.492188 0)"/>
    </g>
   </g>
   <g id="text_17">
    <!-- Cumulative Regret: Profiled vs. Random Dispatch -->
    <g transform="translate(76.286875 20.877187) scale(0.18 -0.18)">
     <defs>
      <path id="DejaVuSans-Bold-43" d="M 4288 256 
Q 3956 84 3597 -3 
Q 3238 -91 2847 -91 
Q 1681 -91 1000 561 
Q 319 1213 319 2328 
Q 319 3447 1000 4098 
Q 1681 4750 2847 4750 
Q 3238 4750 3597 4662 
Q 3956 4575 4288 4403 
L 4288 3438 
Q 3953 3666 3628 3772 
Q 3303 3878 2944 3878 
Q 2300 3878 1931 3465 
Q 1563 3053 1563 2328 
Q 1563 1606 1931 1193 
Q 2300 781 2944 781 
Q 3303 781 3628 887 
Q 3953 994 4288 1222 
L 4288 256 
z
" transform="scale(0.015625)"/>
      <path id="DejaVuSans-Bold-52" d="M 2297 2597 
Q 2675 2597 2839 2737 
Q 3003 2878 3003 3200 
Q 3003 3519 2839 3656 
Q 2675 3794 2297 3794 
L 1791 3794 
L 1791 2597 
L 2297 2597 
z
M 1791 1766 
L 1791 0 
L 588 0 
L 588 4666 
L 2425 4666 
Q 3347 4666 3776 4356 
Q 4206 4047 4206 3378 
Q 4206 2916 3982 2619 
Q 3759 2322 3309 2181 
Q 3556 2125 3751 1926 
Q 3947 1728 4147 1325 
L 4800 0 
L 3519 0 
L 2950 1159 
Q 2778 1509 2601 1637 
Q 2425 1766 2131 1766 
L 1791 1766 
z
" transform="scale(0.015625)"/>
      <path id="DejaVuSans-Bold-50" d="M 588 4666 
L 2584 4666 
Q 3475 4666 3951 4270 
Q 4428 3875 4428 3144 
Q 4428 2409 3951 2014 
Q 3475 1619 2584 1619 
L 1791 1619 
L 1791 0 
L 588 0 
L 588 4666 
z
M 1791 3794 
L 1791 2491 
L 2456 2491 
Q 2806 2491 2997 2661 
Q 3188 2831 3188 3144 
Q 3188 3456 2997 3625 
Q 2806 3794 2456 3794 
L 1791 3794 
z
" transform="scale(0.015625)"/>
      <path id="DejaVuSans-Bold-2e" d="M 653 1209 
L 1778 1209 
L 1778 0 
L 653 0 
L 653 1209 
z
" transform="scale(0.015625)"/>
      <path id="DejaVuSans-Bold-44" d="M 1791 3756 
L 1791 909 
L 2222 909 
Q 2959 909 3348 1275 
Q 3738 1641 3738 2338 
Q 3738 3031 3350 3393 
Q 2963 3756 2222 3756 
L 1791 3756 
z
M 588 4666 
L 1856 4666 
Q 2919 4666 3439 4514 
Q 3959 4363 4331 4000 
Q 4659 3684 4818 3271 
Q 4978 2859 4978 2338 
Q 4978 1809 4818 1395 
Q 4659 981 4331 666 
Q 3956 303 3431 151 
Q 2906 0 1856 0 
L 588 0 
L 588 4666 
z
" transform="scale(0.015625)"/>
     </defs>
     <use xlink:href="#DejaVuSans-Bold-43"/>
     <use xlink:href="#DejaVuSans-Bold-75" transform="translate(73.388672 0)"/>
     <use xlink:href="#DejaVuSans-Bold-6d" transform="translate(144.580078 0)"/>
     <use xlink:href="#DejaVuSans-Bold-75" transform="translate(248.779297 0)"/>
     <use xlink:href="#DejaVuSans-Bold-6c" transform="translate(319.970703 0)"/>
     <use xlink:href="#DejaVuSans-Bold-61" transform="translate(354.248047 0)"/>
     <use xlink:href="#DejaVuSans-Bold-74" transform="translate(421.728516 0)"/>
     <use xlink:href="#DejaVuSans-Bold-69" transform="translate(469.53125 0)"/>
     <use xlink:href="#DejaVuSans-Bold-76" transform="translate(503.808594 0)"/>
     <use xlink:href="#DejaVuSans-Bold-65" transform="translate(568.994141 0)"/>
     <use xlink:href="#DejaVuSans-Bold-20" transform="translate(636.816406 0)"/>
     <use xlink:href="#DejaVuSans-Bold-52" transform="translate(671.630859 0)"/>
     <use xlink:href="#DejaVuSans-Bold-65" transform="translate(748.632812 0)"/>
     <use xlink:href="#DejaVuSans-Bold-67" transform="translate(816.455078 0)"/>
     <use xlink:href="#DejaVuSans-Bold-72" transform="translate(888.037109 0)"/>
     <use xlink:href="#DejaVuSans-Bold-65" transform="translate(937.353516 0)"/>
     <use xlink:href="#DejaVuSans-Bold-74" transform="translate(1005.175781 0)"/>
     <use xlink:href="#DejaVuSans-Bold-3a" transform="translate(1052.978516 0)"/>
     <use xlink:href="#DejaVuSans-Bold-20" transform="translate(1092.96875 0)"/>
     <use xlink:href="#DejaVuSans-Bold-50" transform="translate(1127.783203 0)"/>
     <use xlink:href="#DejaVuSans-Bold-72" transform="translate(1201.074219 0)"/>
     <use xlink:href="#DejaVuSans-Bold-6f" transform="translate(1250.390625 0)"/>
     <use xlink:href="#DejaVuSans-Bold-66" transform="translate(1319.091797 0)"/>
     <use xlink:href="#DejaVuSans-Bold-69" transform="translate(1362.597656 0)"/>
     <use xlink:href="#DejaVuSans-Bold-6c" transform="translate(1396.875 0)"/>
     <use xlink:href="#DejaVuSans-Bold-65" transform="translate(1431.152344 0)"/>
     <use xlink:href="#DejaVuSans-Bold-64" transform="translate(1498.974609 0)"/>
     <use xlink:href="#DejaVuSans-Bold-20" transform="translate(1570.556641 0)"/>
     <use xlink:href="#DejaVuSans-Bold-76" transform="translate(1605.371094 0)"/>
     <use xlink:href="#DejaVuSans-Bold-73" transform="translate(1670.556641 0)"/>
     <use xlink:href="#DejaVuSans-Bold-2e" transform="translate(1730.078125 0)"/>
     <use xlink:href="#DejaVuSans-Bold-20" transform="translate(1768.066406 0)"/>
     <use xlink:href="#DejaVuSans-Bold-52" transform="translate(1802.880859 0)"/>
     <use xlink:href="#DejaVuSans-Bold-61" transform="translate(1879.882812 0)"/>
     <use xlink:href="#DejaVuSans-Bold-6e" transform="translate(1947.363281 0)"/>
     <use xlink:href="#DejaVuSans-Bold-64" transform="translate(2018.554688 0)"/>
     <use xlink:href="#DejaVuSans-Bold-6f" transform="translate(2090.136719 0)"/>
     <use xlink:href="#DejaVuSans-Bold-6d" transform="translate(2158.837891 0)"/>
     <use xlink:href="#DejaVuSans-Bold-20" transform="translate(2263.037109 0)"/>
     <use xlink:href="#DejaVuSans-Bold-44" transform="translate(2297.851562 0)"/>
     <use xlink:href="#DejaVuSans-Bold-69" transform="translate(2380.859375 0)"/>
     <use xlink:href="#DejaVuSans-Bold-73" transform="translate(2415.136719 0)"/>
     <use xlink:href="#DejaVuSans-Bold-70" transform="translate(2474.658203 0)"/>
     <use xlink:href="#DejaVuSans-Bold-61" transform="translate(2546.240234 0)"/>
     <use xlink:href="#DejaVuSans-Bold-74" transform="translate(2613.720703 0)"/>
     <use xlink:href="#DejaVuSans-Bold-63" transform="translate(2661.523438 0)"/>
     <use xlink:href="#DejaVuSans-Bold-68" transform="translate(2720.800781 0)"/>
    </g>
   </g>
   <g id="line2d_25">
    <path d="M 80.706677 251.771416 
L 85.126479 246.976358 
L 89.546281 242.216318 
L 93.966083 241.292176 
L 98.385885 240.254224 
L 102.805687 239.223676 
L 107.225489 236.238141 
L 111.645291 233.408165 
L 116.065093 230.642162 
L 120.484895 229.698487 
L 124.904697 228.799934 
L 129.324499 227.689245 
L 133.744301 226.837831 
L 138.164103 226.352774 
L 142.583905 225.453547 
L 147.003707 224.600118 
L 151.423509 223.709646 
L 155.843311 222.815133 
L 160.263113 221.186576 
L 164.682915 220.292064 
L 169.102717 219.365232 
L 173.522519 218.433001 
L 177.942321 217.544554 
L 182.362123 216.769917 
L 186.781925 215.878779 
L 191.201726 214.979552 
L 195.621528 214.056076 
L 200.04133 213.158199 
L 204.461132 212.30342 
L 208.880934 211.408233 
L 213.300736 210.558169 
L 217.720538 209.632687 
L 222.14034 208.72942 
L 226.560142 208.030876 
L 230.979944 207.134339 
L 235.399746 206.242526 
L 239.819548 205.31097 
L 244.23935 204.411743 
L 248.659152 203.749568 
L 253.078954 203.067868 
L 257.498756 202.178071 
L 261.918558 201.245849 
L 266.33836 200.346622 
L 270.758162 200.082448 
L 275.177964 199.190636 
L 279.597766 198.292083 
L 284.017568 197.397571 
L 288.43737 196.456595 
L 292.857172 195.811254 
L 297.276974 194.914717 
L 301.696776 194.001355 
L 306.116578 193.102138 
L 310.53638 192.207625 
L 314.956182 191.547475 
L 319.375984 190.652962 
L 323.795786 189.756425 
L 328.215588 188.861903 
L 332.63539 187.972106 
L 337.055192 187.30993 
L 341.474994 186.408688 
L 345.894796 185.511476 
L 350.314598 184.616964 
L 354.7344 183.721776 
L 359.154202 183.126949 
L 363.574004 182.210212 
L 367.993806 181.31839 
L 372.413608 180.422528 
L 376.83341 179.53004 
L 381.253212 178.865849 
L 385.673014 177.966622 
L 390.092816 177.066045 
L 394.512618 176.168168 
L 398.93242 175.273656 
L 403.352222 174.690947 
L 407.772024 173.79172 
L 412.191825 172.898558 
L 416.611627 171.997316 
L 421.031429 170.588966 
L 425.451231 169.739567 
L 429.871033 168.84034 
L 434.290835 167.946503 
L 438.710637 167.278938 
L 443.130439 166.347391 
L 447.550241 165.407756 
L 451.970043 164.507179 
L 456.389845 163.659805 
L 460.809647 162.730949 
L 465.229449 161.822292 
L 469.649251 160.853702 
L 474.069053 159.951785 
L 478.488855 159.055257 
L 482.908657 158.126401 
L 487.328459 157.113363 
L 491.748261 156.21885 
L 496.168063 155.317608 
L 500.587865 154.421746 
L 505.007667 153.529924 
L 509.427469 152.716894 
L 513.847271 151.824406 
L 518.267073 150.977032 
" clip-path="url(#pf2add9b813)" style="fill: none; stroke: #0d9488; stroke-width: 2.5; stroke-linecap: square"/>
   </g>
   <g id="line2d_26">
    <path d="M 120.484895 256.637187 
L 120.484895 34.877187 
" clip-path="url(#pf2add9b813)" style="fill: none; stroke-dasharray: 1.2,1.98; stroke-dashoffset: 0; stroke: #1e3a5f; stroke-opacity: 0.6; stroke-width: 1.2"/>
   </g>
   <g id="legend_1">
    <g id="patch_8">
     <path d="M 81.786875 75.969062 
L 347.015781 75.969062 
L 347.015781 40.377187 
L 81.786875 40.377187 
z
" style="fill: #ffffff; opacity: 0.95; stroke: #e5e7eb; stroke-linejoin: miter"/>
    </g>
    <g id="line2d_27">
     <path d="M 86.186875 49.285469 
L 97.186875 49.285469 
L 108.186875 49.285469 
" style="fill: none; stroke-dasharray: 7.4,3.2; stroke-dashoffset: 0; stroke: #9ca3af; stroke-width: 2"/>
    </g>
    <g id="text_18">
     <!-- Random dispatch (E[regret]=200 us/iter) -->
     <g transform="translate(116.986875 53.135469) scale(0.11 -0.11)">
      <defs>
       <path id="DejaVuSans-64" d="M 2906 2969 
L 2906 4863 
L 3481 4863 
L 3481 0 
L 2906 0 
L 2906 525 
Q 2725 213 2448 61 
Q 2172 -91 1784 -91 
Q 1150 -91 751 415 
Q 353 922 353 1747 
Q 353 2572 751 3078 
Q 1150 3584 1784 3584 
Q 2172 3584 2448 3432 
Q 2725 3281 2906 2969 
z
M 947 1747 
Q 947 1113 1208 752 
Q 1469 391 1925 391 
Q 2381 391 2643 752 
Q 2906 1113 2906 1747 
Q 2906 2381 2643 2742 
Q 2381 3103 1925 3103 
Q 1469 3103 1208 2742 
Q 947 2381 947 1747 
z
" transform="scale(0.015625)"/>
       <path id="DejaVuSans-45" d="M 628 4666 
L 3578 4666 
L 3578 4134 
L 1259 4134 
L 1259 2753 
L 3481 2753 
L 3481 2222 
L 1259 2222 
L 1259 531 
L 3634 531 
L 3634 0 
L 628 0 
L 628 4666 
z
" transform="scale(0.015625)"/>
       <path id="DejaVuSans-5b" d="M 550 4863 
L 1875 4863 
L 1875 4416 
L 1125 4416 
L 1125 -397 
L 1875 -397 
L 1875 -844 
L 550 -844 
L 550 4863 
z
" transform="scale(0.015625)"/>
       <path id="DejaVuSans-5d" d="M 1947 4863 
L 1947 -844 
L 622 -844 
L 622 -397 
L 1369 -397 
L 1369 4416 
L 622 4416 
L 622 4863 
L 1947 4863 
z
" transform="scale(0.015625)"/>
       <path id="DejaVuSans-3d" d="M 678 2906 
L 4684 2906 
L 4684 2381 
L 678 2381 
L 678 2906 
z
M 678 1631 
L 4684 1631 
L 4684 1100 
L 678 1100 
L 678 1631 
z
" transform="scale(0.015625)"/>
       <path id="DejaVuSans-2f" d="M 1625 4666 
L 2156 4666 
L 531 -594 
L 0 -594 
L 1625 4666 
z
" transform="scale(0.015625)"/>
      </defs>
      <use xlink:href="#DejaVuSans-52"/>
      <use xlink:href="#DejaVuSans-61" transform="translate(67.232422 0)"/>
      <use xlink:href="#DejaVuSans-6e" transform="translate(128.511719 0)"/>
      <use xlink:href="#DejaVuSans-64" transform="translate(191.890625 0)"/>
      <use xlink:href="#DejaVuSans-6f" transform="translate(255.367188 0)"/>
      <use xlink:href="#DejaVuSans-6d" transform="translate(316.548828 0)"/>
      <use xlink:href="#DejaVuSans-20" transform="translate(413.960938 0)"/>
      <use xlink:href="#DejaVuSans-64" transform="translate(445.748047 0)"/>
      <use xlink:href="#DejaVuSans-69" transform="translate(509.224609 0)"/>
      <use xlink:href="#DejaVuSans-73" transform="translate(537.007812 0)"/>
      <use xlink:href="#DejaVuSans-70" transform="translate(589.107422 0)"/>
      <use xlink:href="#DejaVuSans-61" transform="translate(652.583984 0)"/>
      <use xlink:href="#DejaVuSans-74" transform="translate(713.863281 0)"/>
      <use xlink:href="#DejaVuSans-63" transform="translate(753.072266 0)"/>
      <use xlink:href="#DejaVuSans-68" transform="translate(808.052734 0)"/>
      <use xlink:href="#DejaVuSans-20" transform="translate(871.431641 0)"/>
      <use xlink:href="#DejaVuSans-28" transform="translate(903.21875 0)"/>
      <use xlink:href="#DejaVuSans-45" transform="translate(942.232422 0)"/>
      <use xlink:href="#DejaVuSans-5b" transform="translate(1005.416016 0)"/>
      <use xlink:href="#DejaVuSans-72" transform="translate(1044.429688 0)"/>
      <use xlink:href="#DejaVuSans-65" transform="translate(1083.292969 0)"/>
      <use xlink:href="#DejaVuSans-67" transform="translate(1144.816406 0)"/>
      <use xlink:href="#DejaVuSans-72" transform="translate(1208.292969 0)"/>
      <use xlink:href="#DejaVuSans-65" transform="translate(1247.15625 0)"/>
      <use xlink:href="#DejaVuSans-74" transform="translate(1308.679688 0)"/>
      <use xlink:href="#DejaVuSans-5d" transform="translate(1347.888672 0)"/>
      <use xlink:href="#DejaVuSans-3d" transform="translate(1386.902344 0)"/>
      <use xlink:href="#DejaVuSans-32" transform="translate(1470.691406 0)"/>
      <use xlink:href="#DejaVuSans-30" transform="translate(1534.314453 0)"/>
      <use xlink:href="#DejaVuSans-30" transform="translate(1597.9375 0)"/>
      <use xlink:href="#DejaVuSans-20" transform="translate(1661.560547 0)"/>
      <use xlink:href="#DejaVuSans-75" transform="translate(1693.347656 0)"/>
      <use xlink:href="#DejaVuSans-73" transform="translate(1756.726562 0)"/>
      <use xlink:href="#DejaVuSans-2f" transform="translate(1808.826172 0)"/>
      <use xlink:href="#DejaVuSans-69" transform="translate(1842.517578 0)"/>
      <use xlink:href="#DejaVuSans-74" transform="translate(1870.300781 0)"/>
      <use xlink:href="#DejaVuSans-65" transform="translate(1909.509766 0)"/>
      <use xlink:href="#DejaVuSans-72" transform="translate(1971.033203 0)"/>
      <use xlink:href="#DejaVuSans-29" transform="translate(2012.146484 0)"/>
     </g>
    </g>
    <g id="line2d_28">
     <path d="M 86.186875 65.431406 
L 97.186875 65.431406 
L 108.186875 65.431406 
" style="fill: none; stroke: #0d9488; stroke-width: 2.5; stroke-linecap: square"/>
    </g>
    <g id="text_19">
     <!-- Profiled dispatch (explore/exploit) -->
     <g transform="translate(116.986875 69.281406) scale(0.11 -0.11)">
      <defs>
       <path id="DejaVuSans-50" d="M 1259 4147 
L 1259 2394 
L 2053 2394 
Q 2494 2394 2734 2622 
Q 2975 2850 2975 3272 
Q 2975 3691 2734 3919 
Q 2494 4147 2053 4147 
L 1259 4147 
z
M 628 4666 
L 2053 4666 
Q 2838 4666 3239 4311 
Q 3641 3956 3641 3272 
Q 3641 2581 3239 2228 
Q 2838 1875 2053 1875 
L 1259 1875 
L 1259 0 
L 628 0 
L 628 4666 
z
" transform="scale(0.015625)"/>
       <path id="DejaVuSans-66" d="M 2375 4863 
L 2375 4384 
L 1825 4384 
Q 1516 4384 1395 4259 
Q 1275 4134 1275 3809 
L 1275 3500 
L 2222 3500 
L 2222 3053 
L 1275 3053 
L 1275 0 
L 697 0 
L 697 3053 
L 147 3053 
L 147 3500 
L 697 3500 
L 697 3744 
Q 697 4328 969 4595 
Q 1241 4863 1831 4863 
L 2375 4863 
z
" transform="scale(0.015625)"/>
       <path id="DejaVuSans-78" d="M 3513 3500 
L 2247 1797 
L 3578 0 
L 2900 0 
L 1881 1375 
L 863 0 
L 184 0 
L 1544 1831 
L 300 3500 
L 978 3500 
L 1906 2253 
L 2834 3500 
L 3513 3500 
z
" transform="scale(0.015625)"/>
      </defs>
      <use xlink:href="#DejaVuSans-50"/>
      <use xlink:href="#DejaVuSans-72" transform="translate(58.552734 0)"/>
      <use xlink:href="#DejaVuSans-6f" transform="translate(97.416016 0)"/>
      <use xlink:href="#DejaVuSans-66" transform="translate(158.597656 0)"/>
      <use xlink:href="#DejaVuSans-69" transform="translate(193.802734 0)"/>
      <use xlink:href="#DejaVuSans-6c" transform="translate(221.585938 0)"/>
      <use xlink:href="#DejaVuSans-65" transform="translate(249.369141 0)"/>
      <use xlink:href="#DejaVuSans-64" transform="translate(310.892578 0)"/>
      <use xlink:href="#DejaVuSans-20" transform="translate(374.369141 0)"/>
      <use xlink:href="#DejaVuSans-64" transform="translate(406.15625 0)"/>
      <use xlink:href="#DejaVuSans-69" transform="translate(469.632812 0)"/>
      <use xlink:href="#DejaVuSans-73" transform="translate(497.416016 0)"/>
      <use xlink:href="#DejaVuSans-70" transform="translate(549.515625 0)"/>
      <use xlink:href="#DejaVuSans-61" transform="translate(612.992188 0)"/>
      <use xlink:href="#DejaVuSans-74" transform="translate(674.271484 0)"/>
      <use xlink:href="#DejaVuSans-63" transform="translate(713.480469 0)"/>
      <use xlink:href="#DejaVuSans-68" transform="translate(768.460938 0)"/>
      <use xlink:href="#DejaVuSans-20" transform="translate(831.839844 0)"/>
      <use xlink:href="#DejaVuSans-28" transform="translate(863.626953 0)"/>
      <use xlink:href="#DejaVuSans-65" transform="translate(902.640625 0)"/>
      <use xlink:href="#DejaVuSans-78" transform="translate(962.414062 0)"/>
      <use xlink:href="#DejaVuSans-70" transform="translate(1021.59375 0)"/>
      <use xlink:href="#DejaVuSans-6c" transform="translate(1085.070312 0)"/>
      <use xlink:href="#DejaVuSans-6f" transform="translate(1112.853516 0)"/>
      <use xlink:href="#DejaVuSans-72" transform="translate(1174.035156 0)"/>
      <use xlink:href="#DejaVuSans-65" transform="translate(1212.898438 0)"/>
      <use xlink:href="#DejaVuSans-2f" transform="translate(1274.421875 0)"/>
      <use xlink:href="#DejaVuSans-65" transform="translate(1308.113281 0)"/>
      <use xlink:href="#DejaVuSans-78" transform="translate(1367.886719 0)"/>
      <use xlink:href="#DejaVuSans-70" transform="translate(1427.066406 0)"/>
      <use xlink:href="#DejaVuSans-6c" transform="translate(1490.542969 0)"/>
      <use xlink:href="#DejaVuSans-6f" transform="translate(1518.326172 0)"/>
      <use xlink:href="#DejaVuSans-69" transform="translate(1579.507812 0)"/>
      <use xlink:href="#DejaVuSans-74" transform="translate(1607.291016 0)"/>
      <use xlink:href="#DejaVuSans-29" transform="translate(1646.5 0)"/>
     </g>
    </g>
   </g>
  </g>
 </g>
 <defs>
  <clipPath id="pf2add9b813">
   <rect x="76.286875" y="34.877187" width="446.4" height="221.76"/>
  </clipPath>
 </defs>
</svg>
